<?xml version="1.0" encoding="UTF-8"?>
<svg version="1.1" xmlns="http://www.w3.org/2000/svg" width="100" height="100">
<path d="M0 0 C33 0 66 0 100 0 C100 33 100 66 100 100 C67 100 34 100 0 100 C0 67 0 34 0 0 Z " fill="#171717" transform="translate(0,0)"/>
<path d="M0 0 C9.93123811 1.65520635 17.77935129 7.09217742 24 15 C31.66654643 26.94590075 34.69095953 37.91639975 32.53515625 52.046875 C29.99676743 63.64235529 24.5559368 73.75385456 15 81 C2.44308754 88.75399247 -10.359687 92.34217207 -25.22265625 89.3515625 C-32.4304052 87.17528733 -38.18715315 83.7393943 -44 79 C-44.95519531 78.24976562 -44.95519531 78.24976562 -45.9296875 77.484375 C-53.52734356 70.79843767 -59.11666879 59.06016097 -60 49 C-60.89339219 34.98697802 -58.4019218 25.31097429 -50 14 C-47.90234375 11.6796875 -47.90234375 11.6796875 -46 10 C-45.34 10 -44.68 10 -44 10 C-40.535 16.435 -40.535 16.435 -37 23 C-36.34 22.67 -35.68 22.34 -35 22 C-35.33 21.401875 -35.66 20.80375 -36 20.1875 C-37 18 -37 18 -37 15 C-34.35261084 13.5393715 -33.10551666 13 -30 13 C-29.731875 13.969375 -29.46375 14.93875 -29.1875 15.9375 C-28.795625 16.948125 -28.40375 17.95875 -28 19 C-27.01 19.33 -26.02 19.66 -25 20 C-26.26346061 23.79038184 -28.13850551 24.9121128 -31.2109375 27.3046875 C-34.4987832 30.42024434 -35.87153986 32.96653235 -36.43359375 37.48828125 C-36.44187624 45.59683843 -36.4466737 52.38687327 -30.5390625 58.515625 C-24.31569584 64.0124057 -18.90759779 64.69766813 -10.77734375 64.4375 C-5.21574299 63.79334355 -1.9180397 61.9180397 2 58 C2.54527344 57.45472656 3.09054688 56.90945312 3.65234375 56.34765625 C7.83944445 51.04708833 7.71574282 45.1056152 7.48828125 38.57421875 C6.63482818 32.32694228 4.02566898 29.02566898 -0.3125 24.6875 C-6.89751881 20.55272075 -13.3080669 19.45710258 -21 19 C-20.01 18.67 -19.02 18.34 -18 18 C-17.505 16.515 -17.505 16.515 -17 15 C-17 15.66 -17 16.32 -17 17 C-15.68 17 -14.36 17 -13 17 C-12.67 13.37 -12.34 9.74 -12 6 C-9.09907498 8.90092502 -8.44538205 9.96517325 -7.3125 13.6875 C-7.06113281 14.49574219 -6.80976562 15.30398437 -6.55078125 16.13671875 C-6.36902344 16.75160156 -6.18726563 17.36648437 -6 18 C-4.68 18 -3.36 18 -2 18 C-1.34 12.06 -0.68 6.12 0 0 Z " fill="#FAFAFA" transform="translate(63,6)"/>
<path d="M0 0 C14.85 0 29.7 0 45 0 C45 33 45 66 45 100 C12 100 -21 100 -55 100 C-55 85.15 -55 70.3 -55 55 C-54.67 55 -54.34 55 -54 55 C-53.93683594 55.64324219 -53.87367187 56.28648438 -53.80859375 56.94921875 C-52.44029185 67.04584647 -48.27422628 75.83793139 -41 83 C-41 83.66 -41 84.32 -41 85 C-40.13761719 85.40605469 -40.13761719 85.40605469 -39.2578125 85.8203125 C-36.97195764 87.01465189 -34.97434706 88.37989305 -32.875 89.875 C-21.00186028 97.88838968 -8.53157817 99.33032286 5.5 97.4375 C17.0408584 95.00165652 26.75398359 88.15286283 34 79 C42.34529213 66.09426942 44.81620628 54.08769218 42.53515625 38.90625 C39.36917188 25.86763979 31.99468719 15.35624204 20.8515625 7.890625 C14.07329099 3.99432641 7.784221 1.76438242 0 1 C0 0.67 0 0.34 0 0 Z " fill="#FAFAFA" transform="translate(55,0)"/>
<path d="M0 0 C4.70467621 3.58451521 9.68578856 7.91803321 10.625 14 C11.30285878 21.15641073 10.98952348 27.09110667 6.625 33 C2.8236843 37.08250892 -1.4399806 39.66667184 -7.0234375 40.30078125 C-13.77690097 40.3298076 -19.19757299 40.06258025 -24.3203125 35.125 C-29.94008969 28.93641945 -30.74103552 24.62534295 -30.6484375 16.30078125 C-30.20140534 10.90446442 -28.69204261 7.10113637 -24.65625 3.44140625 C-17.42236258 -1.96868328 -8.61689039 -2.55315271 0 0 Z " fill="#FBFBFB" transform="translate(58.375,29)"/>
<path d="M0 0 C-0.30872329 2.60466543 -0.62181723 5.20867691 -0.9375 7.8125 C-1.02451172 8.55048828 -1.11152344 9.28847656 -1.20117188 10.04882812 C-1.58216546 13.16733121 -2.00369374 16.01108122 -3 19 C-4.32 19 -5.64 19 -7 19 C-8.65 15.37 -10.3 11.74 -12 8 C-12.66 11.3 -13.32 14.6 -14 18 C-15.65 18.33 -17.3 18.66 -19 19 C-18.29875 19.08636719 -17.5975 19.17273438 -16.875 19.26171875 C-8.68728168 20.47430203 -2.6407962 22.72895495 2.875 29.0625 C7.89753268 36.00541282 7.95789909 42.66368898 7 51 C4.76988062 57.02047436 0.20689974 61.65454219 -5.2421875 64.9609375 C-11.63101744 67.36806039 -19.13972326 67.39251992 -25.56640625 65.07421875 C-31.48555055 61.62606448 -35.87846724 56.53985534 -38 50 C-38.80012608 43.12968662 -39.52502538 36.02977947 -35.1875 30.25 C-33.60546875 28.515625 -33.60546875 28.515625 -32 27 C-31.48050781 26.43796875 -30.96101563 25.8759375 -30.42578125 25.296875 C-29 24 -29 24 -27 24 C-27 23.236875 -27 22.47375 -27 21.6875 C-27 19.79166667 -27 17.89583333 -27 16 C-27.9373003 14.0723973 -28.94604573 12.17887735 -30 10.3125 C-30.556875 9.31863281 -31.11375 8.32476562 -31.6875 7.30078125 C-32.120625 6.54152344 -32.55375 5.78226563 -33 5 C-33.99 5.495 -33.99 5.495 -35 6 C-34.34 7.65 -33.68 9.3 -33 11 C-35.3125 12.5625 -35.3125 12.5625 -38 14 C-38.99 13.67 -39.98 13.34 -41 13 C-41.3721042 11.67696283 -41.70630173 10.34262065 -42 9 C-42.66 8.67 -43.32 8.34 -44 8 C-30.907971 -2.24593574 -15.95072661 -4.32562077 0 0 Z M-30.6875 28.3125 C-35.87445724 34.34058544 -36.50366118 39.13541699 -36.2734375 46.9453125 C-35.64810447 53.93117582 -32.07968403 57.17900412 -27.03515625 61.58203125 C-22.10750757 65.01530663 -15.76893311 64.56730506 -10 64 C-4.05863261 62.24959715 -0.47925186 59.01421592 3 54 C6.03565335 47.5771966 5.80747468 41.02803007 4 34.25 C0.8930403 29.20119049 -3.3000073 24.89999757 -9 23 C-17.72977592 22.39392744 -23.86739244 22.44403536 -30.6875 28.3125 Z " fill="#F3F3F3" transform="translate(64,5)"/>
<path d="M0 0 C13.86 0 27.72 0 42 0 C39.10194652 1.44902674 36.89735285 2.3800977 33.875 3.25 C20.11369224 7.80702323 10.85489738 17.0594209 4.375 29.82421875 C2.61373954 33.89212998 1.66722334 37.62598036 1 42 C0.67 42 0.34 42 0 42 C0 28.14 0 14.28 0 0 Z " fill="#FAFAFA" transform="translate(0,0)"/>
<path d="M0 0 C5.42173256 3.17042266 10.03937759 8.21393994 12.36328125 14.07421875 C13.1943411 20.93845347 13.66536453 28.06637026 9.92578125 34.13671875 C5.37252274 39.70181248 1.00185484 43.53430138 -6.26953125 44.61328125 C-12.96723874 44.86627616 -18.61622686 44.75466251 -24.05859375 40.56640625 C-29.03065753 35.86509841 -32.23179073 31.55114875 -33.04296875 24.5859375 C-33.35397499 11.89947474 -33.35397499 11.89947474 -28.44140625 6.7265625 C-27.84585937 6.18128906 -27.2503125 5.63601562 -26.63671875 5.07421875 C-26.10304688 4.47738281 -25.569375 3.88054688 -25.01953125 3.265625 C-18.64761374 -2.86557563 -8.02848945 -2.81889185 0 0 Z M-25.32421875 6.38671875 C-30.51117599 12.41480419 -31.14037993 17.20963574 -30.91015625 25.01953125 C-30.28482322 32.00539457 -26.71640278 35.25322287 -21.671875 39.65625 C-16.74422632 43.08952538 -10.40565186 42.64152381 -4.63671875 42.07421875 C1.30464864 40.3238159 4.88402939 37.08843467 8.36328125 32.07421875 C11.3989346 25.65141535 11.17075593 19.10224882 9.36328125 12.32421875 C6.25632155 7.27540924 2.06327395 2.97421632 -3.63671875 1.07421875 C-12.36649467 0.46814619 -18.50411119 0.51825411 -25.32421875 6.38671875 Z " fill="#303030" transform="translate(58.63671875,26.92578125)"/>
<path d="M0 0 C3.21618922 5.92455909 3.11308594 12.44101522 3 19 C5.64 19.33 8.28 19.66 11 20 C11 20.33 11 20.66 11 21 C10.16855469 21.06058594 9.33710937 21.12117188 8.48046875 21.18359375 C6.85044922 21.30927734 6.85044922 21.30927734 5.1875 21.4375 C4.10855469 21.51871094 3.02960937 21.59992187 1.91796875 21.68359375 C-1.05989905 21.90212461 -1.05989905 21.90212461 -4 23 C-3.76410156 22.31550781 -3.52820313 21.63101562 -3.28515625 20.92578125 C-2.89842891 16.95785282 -4.48195051 14.49094236 -6.4375 11.1875 C-6.77587891 10.59001953 -7.11425781 9.99253906 -7.46289062 9.37695312 C-8.29577251 7.91061178 -9.14618561 6.45425244 -10 5 C-10.99 5.495 -10.99 5.495 -12 6 C-11.34 7.65 -10.68 9.3 -10 11 C-12.3125 12.5625 -12.3125 12.5625 -15 14 C-15.99 13.67 -16.98 13.34 -18 13 C-18.3721042 11.67696283 -18.70630173 10.34262065 -19 9 C-19.66 8.67 -20.32 8.34 -21 8 C-7.03538621 -2.92882818 -7.03538621 -2.92882818 0 0 Z " fill="#E7E7E7" transform="translate(41,5)"/>
<path d="M0 0 C2.3125 0.0625 2.3125 0.0625 5 1 C6.88042897 4.50148842 8 7.0080306 8 11 C8.66 11 9.32 11 10 11 C9.979375 9.906875 9.95875 8.81375 9.9375 7.6875 C10 4 10 4 11 1 C11.99 1 12.98 1 14 1 C13.85899143 3.27113803 13.71203245 5.54190725 13.5625 7.8125 C13.48128906 9.07707031 13.40007813 10.34164063 13.31640625 11.64453125 C13 15 13 15 12 18 C10.68 18 9.36 18 8 18 C6.35 14.37 4.7 10.74 3 7 C2.34 10.3 1.68 13.6 1 17 C0.01 17 -0.98 17 -2 17 C-2.21824777 10.9981863 -1.5056904 5.80766296 0 0 Z " fill="#171717" transform="translate(49,6)"/>
<path d="M0 0 C2.375 1.1875 2.375 1.1875 4 3 C4.66540191 5.73554118 4.45680531 7.23444485 3.01171875 9.65625 C1.75 11.3125 1.75 11.3125 -1 14 C-2.32 14 -3.64 14 -5 14 C-4.42618522 10.67187429 -3.40619252 9.30157545 -1 7 C-1 6.34 -1 5.68 -1 5 C-3.31 5.33 -5.62 5.66 -8 6 C-8.33 4.68 -8.66 3.36 -9 2 C-5.51131349 -0.32579101 -4.10281481 -0.41865457 0 0 Z " fill="#1D1D1D" transform="translate(51,38)"/>
<path d="M0 0 C1.65376718 0.73233973 3.29787304 1.48652714 4.9375 2.25 C5.85402344 2.66765625 6.77054688 3.0853125 7.71484375 3.515625 C10 5 10 5 10.81640625 7.171875 C10.87699219 7.77515625 10.93757813 8.3784375 11 9 C9.02 8.34 7.04 7.68 5 7 C4.7525 7.86625 4.505 8.7325 4.25 9.625 C2.93221387 13.18302254 1.19813178 15.9226155 -1 19 C-1.99 18.01 -2.98 17.02 -4 16 C-1.69 12.04 0.62 8.08 3 4 C1.68 3.67 0.36 3.34 -1 3 C-0.67 2.01 -0.34 1.02 0 0 Z " fill="#161616" transform="translate(69,10)"/>
<path d="M0 0 C7.68395543 -0.2137731 14.56340812 -0.01670288 22 2 C21.67 2.66 21.34 3.32 21 4 C20.01 4 19.02 4 18 4 C17.67 7.3 17.34 10.6 17 14 C16.34 14 15.68 14 15 14 C14.75765625 13.30132812 14.5153125 12.60265625 14.265625 11.8828125 C13.93046875 10.97273437 13.5953125 10.06265625 13.25 9.125 C12.76273438 7.76761719 12.76273438 7.76761719 12.265625 6.3828125 C10.79570839 3.61537691 9.9211346 3.00277755 7 2 C4.67504723 1.61250787 2.34148732 1.27017161 0 1 C0 0.67 0 0.34 0 0 Z " fill="#E5E5E5" transform="translate(42,3)"/>
<path d="M0 0 C0.70395903 2.19009477 1.10121346 3.59726469 0.53344727 5.85644531 C-0.04279246 8.17195321 -0.11375842 10.16375446 -0.09765625 12.546875 C-0.09443359 13.39121094 -0.09121094 14.23554687 -0.08789062 15.10546875 C-0.07951172 15.97816406 -0.07113281 16.85085937 -0.0625 17.75 C-0.05573242 19.08224609 -0.05573242 19.08224609 -0.04882812 20.44140625 C-0.037074 22.62767329 -0.02064249 24.81380179 0 27 C-0.99 27 -1.98 27 -3 27 C-5.04941742 18.09164525 -4.98267686 9.28396786 -1 1 C-0.67 0.67 -0.34 0.34 0 0 Z " fill="#161616" transform="translate(4,33)"/>
<path d="M0 0 C0.33 0 0.66 0 1 0 C1.02578125 0.6290625 1.0515625 1.258125 1.078125 1.90625 C1.60969712 9.92815657 3.33430242 15.84214868 9.375 21.375 C14.46636738 25.37226503 19.66076064 26.23929128 26 27 C26 27.33 26 27.66 26 28 C19.28563408 28.5554163 14.291495 28.53471154 8.71875 24.4921875 C4.61002 20.92506282 1.69423329 17.24153425 0 12 C-0.1953125 8.88671875 -0.1953125 8.88671875 -0.125 5.6875 C-0.10695313 4.61886719 -0.08890625 3.55023438 -0.0703125 2.44921875 C-0.04710938 1.64097656 -0.02390625 0.83273438 0 0 Z " fill="#1E1E1E" transform="translate(26,43)"/>
<path d="M0 0 C0 0.33 0 0.66 0 1 C-0.72445312 1.03738281 -1.44890625 1.07476563 -2.1953125 1.11328125 C-9.40856031 1.6037821 -14.14949145 2.53819716 -19.75 7.375 C-23.33947194 11.56271726 -24.23226895 15.37972051 -24.625 20.8125 C-24.69976563 21.78832031 -24.77453125 22.76414062 -24.8515625 23.76953125 C-24.90054687 24.50558594 -24.94953125 25.24164063 -25 26 C-25.33 26 -25.66 26 -26 26 C-27.83506896 15.05631605 -27.83506896 15.05631605 -26.01171875 10.56640625 C-24.49328907 8.46679863 -22.89406499 6.76619562 -21 5 C-20.43023437 4.38898437 -19.86046875 3.77796875 -19.2734375 3.1484375 C-13.4015142 -2.32369528 -7.51942763 -1.26087963 0 0 Z " fill="#3E3E3E" transform="translate(53,27)"/>
<path d="M0 0 C0.33 1.32 0.66 2.64 1 4 C1.66 4 2.32 4 3 4 C2.70007424 10.74832964 0.00516686 16.57848607 -4 22 C-6.19921875 22.8203125 -6.19921875 22.8203125 -8 23 C-7.08121145 20.62646292 -6.13338546 18.28262412 -5.046875 15.98046875 C-2.58338513 10.73176458 -1.02509079 5.70543951 0 0 Z " fill="#1B1B1B" transform="translate(95,55)"/>
<path d="M0 0 C0.99 2.31 1.98 4.62 3 7 C0.6875 8.5625 0.6875 8.5625 -2 10 C-2.99 9.67 -3.98 9.34 -5 9 C-5.3721042 7.67696283 -5.70630173 6.34262065 -6 5 C-6.66 4.67 -7.32 4.34 -8 4 C-2.25 0 -2.25 0 0 0 Z " fill="#EDEDED" transform="translate(28,9)"/>
<path d="M0 0 C0.99 0 1.98 0 3 0 C4.5056904 5.80766296 5.21824777 10.9981863 5 17 C4.01 17 3.02 17 2 17 C0.7017874 11.23918159 -0.25706972 5.91260345 0 0 Z " fill="#1E1E1E" transform="translate(39,7)"/>
<path d="M0 0 C6.27 0 12.54 0 19 0 C19 0.66 19 1.32 19 2 C15.43354453 3.10683101 12.0945207 3.13339621 8.375 3.125 C7.22773437 3.12757812 6.08046875 3.13015625 4.8984375 3.1328125 C2 3 2 3 0 2 C0 1.34 0 0.68 0 0 Z " fill="#101010" transform="translate(40,96)"/>
<path d="M0 0 C0.33 0.99 0.66 1.98 1 3 C-0.76480081 4.8187336 -2.53630765 6.62994991 -4.3125 8.4375 C-5.06176758 9.2119043 -5.06176758 9.2119043 -5.82617188 10.00195312 C-8.19869635 12.40590176 -9.74970379 13.91656793 -13 15 C-11.58884686 11.87729974 -9.889376 9.50346319 -7.625 6.9375 C-7.03976563 6.26589844 -6.45453125 5.59429687 -5.8515625 4.90234375 C-4.0239296 3.02458589 -2.13635135 1.51050393 0 0 Z " fill="#101010" transform="translate(89,76)"/>
<path d="M0 0 C0.33 0 0.66 0 1 0 C1.02578125 0.6290625 1.0515625 1.258125 1.078125 1.90625 C1.58552816 9.56342492 3.78786013 14.68179019 8 21 C7.01 21 6.02 21 5 21 C1.07273376 15.80214762 -0.13170035 12.24813291 -0.0625 5.8125 C-0.05347656 4.72582031 -0.04445313 3.63914063 -0.03515625 2.51953125 C-0.02355469 1.68808594 -0.01195313 0.85664062 0 0 Z " fill="#161616" transform="translate(26,43)"/>
<path d="M0 0 C8.40410547 -0.57650114 14.38940013 -0.59204823 21 5 C20.34 5.66 19.68 6.32 19 7 C18.443125 6.54625 17.88625 6.0925 17.3125 5.625 C11.88450886 1.81073596 6.45654351 1.47640515 0 1 C0 0.67 0 0.34 0 0 Z " fill="#171717" transform="translate(43,26)"/>
<path d="M0 0 C1.13732426 3.40401948 0.83989957 5.77456664 0.0625 9.25 C-0.13214844 10.14203125 -0.32679687 11.0340625 -0.52734375 11.953125 C-0.68332031 12.62859375 -0.83929688 13.3040625 -1 14 C-1.66 14 -2.32 14 -3 14 C-3.32374517 8.49633208 -3.53286034 4.56327794 0 0 Z " fill="#060606" transform="translate(4,33)"/>
<path d="M0 0 C1.16144531 0.11988281 2.32289062 0.23976563 3.51953125 0.36328125 C4.39996094 0.47027344 5.28039062 0.57726562 6.1875 0.6875 C6.1875 1.0175 6.1875 1.3475 6.1875 1.6875 C5.47464844 1.72488281 4.76179688 1.76226563 4.02734375 1.80078125 C-1.9118423 2.20845082 -6.50371747 2.97412226 -11.8125 5.6875 C-11.8125 4.6975 -11.8125 3.7075 -11.8125 2.6875 C-7.86242023 -0.56331895 -4.95902621 -0.55100291 0 0 Z " fill="#494949" transform="translate(46.8125,26.3125)"/>
<path d="M0 0 C-0.33 0.99 -0.66 1.98 -1 3 C-3.31 3.33 -5.62 3.66 -8 4 C-8 3.34 -8 2.68 -8 2 C-9.32 1.67 -10.64 1.34 -12 1 C-10.56496445 0.63597631 -9.12683494 0.28413409 -7.6875 -0.0625 C-6.88699219 -0.25972656 -6.08648437 -0.45695312 -5.26171875 -0.66015625 C-3 -1 -3 -1 0 0 Z " fill="#272727" transform="translate(67,94)"/>
<path d="M0 0 C3.83325416 1.45399296 5.28279605 3.3080115 7 7 C7.1875 9.8125 7.1875 9.8125 7 12 C3.76140913 10.38070456 3.32339087 7.25333589 2 4 C1.34711373 2.65986503 0.68774405 1.32258472 0 0 Z " fill="#252525" transform="translate(63,32)"/>
<path d="M0 0 C-2.36689329 2.19219402 -3.51727269 2.9871902 -6.796875 3.07421875 C-7.77140625 2.94660156 -8.7459375 2.81898437 -9.75 2.6875 C-10.73484375 2.56761719 -11.7196875 2.44773437 -12.734375 2.32421875 C-13.48203125 2.21722656 -14.2296875 2.11023438 -15 2 C-15 1.67 -15 1.34 -15 1 C-13.0641649 0.63684334 -11.12624752 0.28477269 -9.1875 -0.0625 C-8.10855469 -0.25972656 -7.02960937 -0.45695312 -5.91796875 -0.66015625 C-3 -1 -3 -1 0 0 Z " fill="#393939" transform="translate(60,68)"/>
<path d="M0 0 C0.66 0 1.32 0 2 0 C0.65365543 4.4062186 -1.19374374 6.43077702 -5 9 C-5.66 9 -6.32 9 -7 9 C-7 8.34 -7 7.68 -7 7 C-5.01739574 5.31267723 -3.0167658 3.64633943 -1 2 C-0.67 1.34 -0.34 0.68 0 0 Z " fill="#1B1B1B" transform="translate(66,59)"/>
<path d="M0 0 C1.18851563 0.19464844 2.37703125 0.38929687 3.6015625 0.58984375 C4.97441406 0.82380859 4.97441406 0.82380859 6.375 1.0625 C6.375 1.3925 6.375 1.7225 6.375 2.0625 C5.12783203 2.15337891 5.12783203 2.15337891 3.85546875 2.24609375 C2.22544922 2.37177734 2.22544922 2.37177734 0.5625 2.5 C-1.05591797 2.62181641 -1.05591797 2.62181641 -2.70703125 2.74609375 C-5.68489905 2.96462461 -5.68489905 2.96462461 -8.625 4.0625 C-8.625 2.7425 -8.625 1.4225 -8.625 0.0625 C-5.61666904 -1.44166548 -3.27538422 -0.54589737 0 0 Z " fill="#C9C9C9" transform="translate(45.625,23.9375)"/>
<path d="M0 0 C0.33 0.66 0.66 1.32 1 2 C-1.97 2.66 -4.94 3.32 -8 4 C-8 2.68 -8 1.36 -8 0 C-4.71303767 -0.79953138 -3.28976808 -1.09658936 0 0 Z " fill="#1A1A1A" transform="translate(41,2)"/>
<path d="M0 0 C0.33 1.32 0.66 2.64 1 4 C1.66 4 2.32 4 3 4 C2.67 6.31 2.34 8.62 2 11 C1.01 10.34 0.02 9.68 -1 9 C-0.67 6.03 -0.34 3.06 0 0 Z " fill="#343434" transform="translate(95,55)"/>
<path d="M0 0 C3.37503669 1.1858237 5.64722731 2.27573689 8 5 C7.67 5.99 7.34 6.98 7 8 C6.608125 7.5875 6.21625 7.175 5.8125 6.75 C3.65940626 4.67115087 1.35436159 2.84531043 -1 1 C-0.67 0.67 -0.34 0.34 0 0 Z " fill="#D5D5D5" transform="translate(73,10)"/>
<path d="M0 0 C0.66 0.66 1.32 1.32 2 2 C-0.625 5.875 -0.625 5.875 -4 7 C-3.39816251 4.97954558 -2.72693904 2.97888961 -2 1 C-1.34 0.67 -0.68 0.34 0 0 Z " fill="#212121" transform="translate(6,28)"/>
<path d="M0 0 C0.6875 1.8125 0.6875 1.8125 1 4 C-0.4375 5.75 -0.4375 5.75 -2 7 C-3 4 -3 4 -2 1 C-1.34 0.67 -0.68 0.34 0 0 Z " fill="#101010" transform="translate(95,63)"/>
<path d="M0 0 C1.32 0 2.64 0 4 0 C3.67 1.32 3.34 2.64 3 4 C1.68 3.67 0.36 3.34 -1 3 C-0.67 2.01 -0.34 1.02 0 0 Z " fill="#161616" transform="translate(46,55)"/>
</svg>
