<?xml version="1.0" encoding="UTF-8"?>
<!DOCTYPE svg PUBLIC "-//W3C//DTD SVG 1.1//EN" "http://www.w3.org/Graphics/SVG/1.1/DTD/svg11.dtd">
<svg xmlns="http://www.w3.org/2000/svg" version="1.1" width="2200px" height="550px" style="shape-rendering:geometricPrecision; text-rendering:geometricPrecision; image-rendering:optimizeQuality; fill-rule:evenodd; clip-rule:evenodd" xmlns:xlink="http://www.w3.org/1999/xlink">
<g><path style="opacity:1" fill="#fefefe" d="M -0.5,-0.5 C 732.833,-0.5 1466.17,-0.5 2199.5,-0.5C 2199.5,182.833 2199.5,366.167 2199.5,549.5C 1466.17,549.5 732.833,549.5 -0.5,549.5C -0.5,366.167 -0.5,182.833 -0.5,-0.5 Z"/></g>
<g><path style="opacity:1" fill="#9f9afa" d="M 257.5,43.5 C 263.683,43.0474 269.683,43.5474 275.5,45C 269.167,45.6667 262.833,45.6667 256.5,45C 257.056,44.6174 257.389,44.1174 257.5,43.5 Z"/></g>
<g><path style="opacity:1" fill="#8680f9" d="M 233.5,46.5 C 238.511,46.3341 243.511,46.5007 248.5,47C 241.279,49.3906 233.946,50.2239 226.5,49.5C 229,48.6411 231.333,47.6411 233.5,46.5 Z"/></g>
<g><path style="opacity:1" fill="#7873f9" d="M 61.5,189.5 C 60.1566,191.683 60.49,193.683 62.5,195.5C 36.2946,266.818 45.4613,333.818 90,396.5C 125,440.753 170.833,464.586 227.5,468C 300.603,477.174 361.437,454.341 410,399.5C 422.555,386.066 432.888,371.066 441,354.5C 446.925,339.727 452.258,324.727 457,309.5C 458.576,302.559 462.743,299.726 469.5,301C 475.732,303.035 481.899,305.202 488,307.5C 490.411,306.201 492.911,305.368 495.5,305C 496.98,306.299 497.646,307.966 497.5,310C 479.866,376.936 442.199,429.269 384.5,467C 377.271,471.114 369.937,474.947 362.5,478.5C 370.322,472.863 378.322,467.363 386.5,462C 387.696,461.346 387.696,460.846 386.5,460.5C 362.851,474.49 337.851,485.49 311.5,493.5C 307.082,494.864 302.749,496.197 298.5,497.5C 277.882,500.746 257.215,503.58 236.5,506C 228.5,506.667 220.5,506.667 212.5,506C 210.956,505.71 209.623,505.044 208.5,504C 217.18,503.51 225.847,502.844 234.5,502C 219.169,500.737 204.502,497.07 190.5,491C 197.163,490.832 203.829,490.999 210.5,491.5C 220.683,492.567 231.016,493.567 241.5,494.5C 282.771,497.346 321.771,489.513 358.5,471C 363.167,467.667 367.833,464.333 372.5,461C 336.174,478.169 297.841,488.669 257.5,492.5C 243.421,492.865 229.421,492.199 215.5,490.5C 178.31,484.734 145.643,469.567 117.5,445C 87.1038,418.779 64.7705,386.946 50.5,349.5C 40.2443,328.312 34.5776,305.812 33.5,282C 33.968,274.693 35.1346,267.526 37,260.5C 37.0243,264.882 38.191,268.882 40.5,272.5C 43.2401,263.764 42.9067,255.098 39.5,246.5C 41.3376,244.287 43.1709,241.954 45,239.5C 45.6536,228.996 47.3202,218.662 50,208.5C 56.1084,189.327 64.6084,171.327 75.5,154.5C 75.3333,154.167 75.1667,153.833 75,153.5C 69.1983,160.12 64.0317,167.12 59.5,174.5C 64.1327,163.027 70.966,153.027 80,144.5C 80.7096,145.973 81.8762,146.64 83.5,146.5C 82.6226,142.09 84.1226,138.757 88,136.5C 88.3333,134.833 88.6667,133.167 89,131.5C 123.421,95.0311 164.254,68.1977 211.5,51C 214.833,50.3333 218.167,50.3333 221.5,51C 202.617,59.775 183.95,69.1083 165.5,79C 120.39,105.773 86.8897,142.94 65,190.5C 64.4569,188.369 63.6236,186.369 62.5,184.5C 61.5481,186.045 61.2148,187.712 61.5,189.5 Z"/></g>
<g><path style="opacity:1" fill="#f14927" d="M 241.5,93.5 C 242.822,93.33 243.989,93.6634 245,94.5C 249.627,110.047 255.627,125.047 263,139.5C 267.951,148.896 275.784,153.563 286.5,153.5C 305.222,151.471 322.222,144.971 337.5,134C 338.635,133.251 339.635,133.417 340.5,134.5C 321.455,150.375 301.955,165.708 282,180.5C 281.667,200.167 281.333,219.833 281,239.5C 280,240.833 279,240.833 278,239.5C 273.333,224.167 268.667,208.833 264,193.5C 258.778,183.057 254.111,172.391 250,161.5C 246.674,138.894 243.841,116.228 241.5,93.5 Z"/></g>
<g><path style="opacity:1" fill="#e7e5fe" d="M 117.5,110.5 C 118.239,110.369 118.906,110.536 119.5,111C 116.616,114.586 113.283,117.252 109.5,119C 111.695,115.641 114.362,112.807 117.5,110.5 Z"/></g>
<g><path style="opacity:1" fill="#e6e5fe" d="M 101.5,123.5 C 102.497,123.47 103.164,123.97 103.5,125C 102.711,126.626 101.711,128.126 100.5,129.5C 99.5307,127.383 99.864,125.383 101.5,123.5 Z"/></g>
<g><path style="opacity:1" fill="#7a76f9" d="M 84.5,131.5 C 87.9571,131.667 88.2904,132.667 85.5,134.5C 84.6143,133.675 84.281,132.675 84.5,131.5 Z"/></g>
<g><path style="opacity:1" fill="#ebeafe" d="M 84.5,149.5 C 85.0431,149.56 85.3764,149.893 85.5,150.5C 83.7997,153.039 82.2997,155.705 81,158.5C 80.2825,159.451 79.4491,159.617 78.5,159C 80.3289,155.682 82.3289,152.516 84.5,149.5 Z"/></g>
<g><path style="opacity:1" fill="#87c63a" d="M 180.5,156.5 C 182.124,156.36 183.29,157.027 184,158.5C 191.606,181.318 199.606,203.984 208,226.5C 226.398,232.799 244.898,238.799 263.5,244.5C 263.5,245.5 263.5,246.5 263.5,247.5C 243.497,247.333 223.497,247.5 203.5,248C 194.288,250.29 184.955,250.956 175.5,250C 154.535,246.34 133.702,242.174 113,237.5C 112.383,236.551 112.549,235.718 113.5,235C 129.619,234.896 145.619,233.563 161.5,231C 173.892,228.941 181.392,221.774 184,209.5C 185.006,204.389 185.506,199.222 185.5,194C 185.064,181.326 183.398,168.826 180.5,156.5 Z"/></g>
<g><path style="opacity:1" fill="#ec1590" d="M 414.5,172.5 C 416.288,172.215 417.955,172.548 419.5,173.5C 405.282,184.543 391.782,196.543 379,209.5C 374.259,215.391 372.592,222.058 374,229.5C 376.503,238.84 380.836,247.174 387,254.5C 394.552,262.387 402.385,269.887 410.5,277C 410.37,278.059 409.87,278.892 409,279.5C 388.731,264.619 367.898,250.619 346.5,237.5C 327.929,243.58 309.262,249.247 290.5,254.5C 290.33,253.178 290.663,252.011 291.5,251C 304.5,242 317.5,233 330.5,224C 336.446,218.054 342.446,212.054 348.5,206C 351.672,204.248 354.672,202.248 357.5,200C 376.835,191.331 395.835,182.164 414.5,172.5 Z"/></g>
<g><path style="opacity:1" fill="#908bfa" d="M 59.5,174.5 C 59.2914,175.922 58.7914,177.255 58,178.5C 57.2274,176.648 57.7274,175.314 59.5,174.5 Z"/></g>
<g><path style="opacity:1" fill="#e1dffe" d="M 72.5,167.5 C 72.744,171.421 71.4106,175.088 68.5,178.5C 67.4173,177.635 67.2506,176.635 68,175.5C 69.7653,172.968 71.2653,170.301 72.5,167.5 Z"/></g>
<g><path style="opacity:1" fill="#f14927" d="M 295.5,179.5 C 309.693,178.865 316.86,185.532 317,199.5C 311.416,209.801 303.25,212.301 292.5,207C 285.971,202.08 283.804,195.58 286,187.5C 288.772,184.217 291.939,181.55 295.5,179.5 Z"/></g>
<g><path style="opacity:1" fill="#7672f9" d="M 1505.5,186.5 C 1507.47,195.44 1508.14,204.773 1507.5,214.5C 1506.07,212.256 1504.07,210.423 1501.5,209C 1486.17,208.5 1470.84,208.333 1455.5,208.5C 1455.33,244.168 1455.5,279.835 1456,315.5C 1456.93,318.035 1458.76,319.035 1461.5,318.5C 1461.5,319.5 1461.5,320.5 1461.5,321.5C 1450.5,321.5 1439.5,321.5 1428.5,321.5C 1428.5,320.5 1428.5,319.5 1428.5,318.5C 1430.58,318.528 1432.42,317.861 1434,316.5C 1434.5,280.502 1434.67,244.502 1434.5,208.5C 1419.16,208.333 1403.83,208.5 1388.5,209C 1386.27,210.277 1384.6,212.111 1383.5,214.5C 1382.17,205.167 1382.17,195.833 1383.5,186.5C 1385,188.829 1387,190.663 1389.5,192C 1426.17,192.667 1462.83,192.667 1499.5,192C 1502.65,191.351 1504.65,189.518 1505.5,186.5 Z"/></g>
<g><path style="opacity:1" fill="#9c98fb" d="M 1505.5,186.5 C 1506.21,185.596 1507.21,185.263 1508.5,185.5C 1508.83,195.348 1508.49,205.014 1507.5,214.5C 1508.14,204.773 1507.47,195.44 1505.5,186.5 Z"/></g>
<g><path style="opacity:1" fill="#7571f9" d="M 1319.5,240.5 C 1319.83,250.19 1319.5,259.856 1318.5,269.5C 1317.82,268.757 1317.15,268.091 1316.5,267.5C 1315.55,265.39 1313.88,264.223 1311.5,264C 1293.5,263.5 1275.5,263.333 1257.5,263.5C 1256.5,277.323 1256.17,291.323 1256.5,305.5C 1285.67,305.831 1314.67,305.498 1343.5,304.5C 1345.09,304.372 1346.42,303.705 1347.5,302.5C 1348.03,300.664 1348.69,298.997 1349.5,297.5C 1350.83,301.951 1351.49,306.784 1351.5,312C 1351.49,317.216 1350.83,322.049 1349.5,326.5C 1348.94,324.407 1347.61,322.907 1345.5,322C 1307.17,321.5 1268.83,321.333 1230.5,321.5C 1230.5,320.5 1230.5,319.5 1230.5,318.5C 1232.99,318.671 1234.83,317.671 1236,315.5C 1236.67,276.5 1236.67,237.5 1236,198.5C 1235.07,195.965 1233.24,194.965 1230.5,195.5C 1230.5,194.5 1230.5,193.5 1230.5,192.5C 1267.17,192.667 1303.83,192.5 1340.5,192C 1342.02,189.695 1344.02,188.195 1346.5,187.5C 1346.5,196.833 1346.5,206.167 1346.5,215.5C 1345.5,215.5 1344.5,215.5 1343.5,215.5C 1343.2,212.358 1341.53,210.191 1338.5,209C 1311.5,208.5 1284.5,208.333 1257.5,208.5C 1257.5,221.5 1257.5,234.5 1257.5,247.5C 1275.5,247.667 1293.5,247.5 1311.5,247C 1315.28,246.391 1316.95,244.224 1316.5,240.5C 1317.5,240.5 1318.5,240.5 1319.5,240.5 Z"/></g>
<g><path style="opacity:1" fill="#7672f9" d="M 1651.5,209.5 C 1624.67,208.502 1597.67,208.169 1570.5,208.5C 1570.5,221.5 1570.5,234.5 1570.5,247.5C 1589.01,247.83 1607.34,247.497 1625.5,246.5C 1628.12,245.879 1629.79,244.212 1630.5,241.5C 1631.32,240.614 1632.32,240.281 1633.5,240.5C 1633.5,250.5 1633.5,260.5 1633.5,270.5C 1632.5,270.5 1631.5,270.5 1630.5,270.5C 1630.92,266.749 1629.25,264.582 1625.5,264C 1607.17,263.5 1588.84,263.333 1570.5,263.5C 1570.5,277.5 1570.5,291.5 1570.5,305.5C 1598.84,305.667 1627.17,305.5 1655.5,305C 1660.53,304.446 1662.87,301.613 1662.5,296.5C 1663.5,296.5 1664.5,296.5 1665.5,296.5C 1665.5,306.5 1665.5,316.5 1665.5,326.5C 1664.5,326.5 1663.5,326.5 1662.5,326.5C 1662.86,324.089 1661.86,322.589 1659.5,322C 1621.17,321.5 1582.83,321.333 1544.5,321.5C 1544.5,320.5 1544.5,319.5 1544.5,318.5C 1546.39,318.703 1547.89,318.037 1549,316.5C 1549.67,276.833 1549.67,237.167 1549,197.5C 1547.89,195.963 1546.39,195.297 1544.5,195.5C 1544.5,194.5 1544.5,193.5 1544.5,192.5C 1580.83,192.667 1617.17,192.5 1653.5,192C 1655.86,191.411 1656.86,189.911 1656.5,187.5C 1657.5,187.5 1658.5,187.5 1659.5,187.5C 1659.5,196.833 1659.5,206.167 1659.5,215.5C 1658.5,215.5 1657.5,215.5 1656.5,215.5C 1656.63,211.968 1654.97,209.968 1651.5,209.5 Z"/></g>
<g><path style="opacity:1" fill="#7571f9" d="M 2062.5,208.5 C 2061.5,221.323 2061.17,234.323 2061.5,247.5C 2080.01,247.83 2098.34,247.497 2116.5,246.5C 2119.97,246.032 2121.63,244.032 2121.5,240.5C 2122.5,240.5 2123.5,240.5 2124.5,240.5C 2124.5,250.5 2124.5,260.5 2124.5,270.5C 2123.5,270.5 2122.5,270.5 2121.5,270.5C 2122.03,267.192 2120.69,265.026 2117.5,264C 2099.17,263.5 2080.84,263.333 2062.5,263.5C 2061.5,277.323 2061.17,291.323 2061.5,305.5C 2090.67,305.831 2119.67,305.498 2148.5,304.5C 2152.09,303.57 2153.76,301.237 2153.5,297.5C 2154.5,297.5 2155.5,297.5 2156.5,297.5C 2156.5,307.167 2156.5,316.833 2156.5,326.5C 2155.5,326.5 2154.5,326.5 2153.5,326.5C 2153.86,324.089 2152.86,322.589 2150.5,322C 2112.17,321.5 2073.83,321.333 2035.5,321.5C 2035.5,320.5 2035.5,319.5 2035.5,318.5C 2037.9,318.607 2039.74,317.607 2041,315.5C 2041.67,276.5 2041.67,237.5 2041,198.5C 2039.83,196.329 2037.99,195.329 2035.5,195.5C 2035.5,194.5 2035.5,193.5 2035.5,192.5C 2071.83,192.667 2108.17,192.5 2144.5,192C 2146.86,191.411 2147.86,189.911 2147.5,187.5C 2148.5,187.5 2149.5,187.5 2150.5,187.5C 2150.5,196.833 2150.5,206.167 2150.5,215.5C 2149.5,215.5 2148.5,215.5 2147.5,215.5C 2147.79,211.283 2145.79,209.117 2141.5,209C 2115.17,208.5 2088.84,208.333 2062.5,208.5 Z"/></g>
<g><path style="opacity:1" fill="#b3b0fb" d="M 61.5,189.5 C 61.3285,191.492 61.9951,193.158 63.5,194.5C 63.3764,195.107 63.0431,195.44 62.5,195.5C 60.49,193.683 60.1566,191.683 61.5,189.5 Z"/></g>
<g><path style="opacity:1" fill="#7672f9" d="M 675.5,191.5 C 687.356,191.24 699.189,191.574 711,192.5C 720.321,194.663 729.487,197.329 738.5,200.5C 741.645,199.752 744.645,198.752 747.5,197.5C 744.285,206.797 740.285,215.797 735.5,224.5C 734.675,225.386 733.675,225.719 732.5,225.5C 732.857,221.336 731.19,218.169 727.5,216C 711.44,207.905 694.44,205.238 676.5,208C 666.357,209.487 657.857,213.987 651,221.5C 646.01,230.703 648.177,237.536 657.5,242C 660.471,242.794 663.471,243.461 666.5,244C 685.239,243.912 703.905,244.912 722.5,247C 746.147,252.127 755.981,266.627 752,290.5C 747.013,302.429 738.513,310.929 726.5,316C 705.556,323.042 684.222,324.375 662.5,320C 651.961,316.321 641.628,312.154 631.5,307.5C 629.306,308.94 626.973,309.773 624.5,310C 627.504,300.141 631.837,290.641 637.5,281.5C 638.086,281.709 638.586,282.043 639,282.5C 639.241,285.289 639.908,287.956 641,290.5C 650.931,299.047 662.431,304.213 675.5,306C 686.55,306.879 697.55,306.546 708.5,305C 716.528,303.736 723.361,300.236 729,294.5C 737.047,278.426 732.213,268.926 714.5,266C 695.483,265.102 676.483,264.102 657.5,263C 635.385,258.937 625.885,245.771 629,223.5C 633.411,211.422 641.577,202.922 653.5,198C 660.77,195.188 668.104,193.021 675.5,191.5 Z"/></g>
<g><path style="opacity:1" fill="#7672f9" d="M 841.5,191.5 C 852.172,191.333 862.839,191.5 873.5,192C 904.599,196.105 924.099,213.272 932,243.5C 936.406,288.233 916.573,314.4 872.5,322C 842.651,326.829 817.484,318.329 797,296.5C 786.681,279.933 783.014,261.933 786,242.5C 789.649,224.197 799.482,210.364 815.5,201C 823.882,196.71 832.548,193.543 841.5,191.5 Z"/></g>
<g><path style="opacity:1" fill="#7672f9" d="M 1021.5,191.5 C 1046.36,189.216 1070.03,193.383 1092.5,204C 1094.94,204.682 1097.1,204.182 1099,202.5C 1100.28,202.613 1101.11,203.28 1101.5,204.5C 1096.83,212.5 1092.17,220.5 1087.5,228.5C 1086.17,229.833 1084.83,229.833 1083.5,228.5C 1084.48,226.902 1084.65,225.235 1084,223.5C 1078.6,218.298 1072.27,214.631 1065,212.5C 1041.45,203.726 1019.28,206.226 998.5,220C 982.578,235.032 978.412,252.866 986,273.5C 996.222,292.883 1012.39,303.717 1034.5,306C 1054.19,307.547 1071.03,301.381 1085,287.5C 1086.65,285.246 1086.82,282.912 1085.5,280.5C 1085.83,279.5 1086.5,278.833 1087.5,278.5C 1094.18,286.019 1100.52,293.853 1106.5,302C 1105.39,302.638 1104.22,303.138 1103,303.5C 1101.21,302.591 1099.38,302.424 1097.5,303C 1085.06,313.382 1070.73,319.715 1054.5,322C 1024.09,326.864 998.261,318.364 977,296.5C 963.094,278.177 959.094,257.844 965,235.5C 976.106,210.892 994.939,196.226 1021.5,191.5 Z"/></g>
<g><path style="opacity:1" fill="#7672f9" d="M 1916.5,191.5 C 1928.36,191.24 1940.19,191.574 1952,192.5C 1961.32,194.663 1970.49,197.329 1979.5,200.5C 1982.65,199.752 1985.65,198.752 1988.5,197.5C 1985.29,206.797 1981.29,215.797 1976.5,224.5C 1975.68,225.386 1974.68,225.719 1973.5,225.5C 1973.86,221.336 1972.19,218.169 1968.5,216C 1952.44,207.905 1935.44,205.238 1917.5,208C 1907.36,209.487 1898.86,213.987 1892,221.5C 1887.01,230.703 1889.18,237.536 1898.5,242C 1901.47,242.794 1904.47,243.461 1907.5,244C 1926.24,243.912 1944.91,244.912 1963.5,247C 1987.15,252.127 1996.98,266.627 1993,290.5C 1988.01,302.429 1979.51,310.929 1967.5,316C 1946.56,323.042 1925.22,324.375 1903.5,320C 1892.96,316.321 1882.63,312.154 1872.5,307.5C 1870.31,308.94 1867.97,309.773 1865.5,310C 1868.5,300.141 1872.84,290.641 1878.5,281.5C 1879.09,281.709 1879.59,282.043 1880,282.5C 1880.24,285.289 1880.91,287.956 1882,290.5C 1891.93,299.047 1903.43,304.213 1916.5,306C 1927.55,306.879 1938.55,306.546 1949.5,305C 1957.53,303.736 1964.36,300.236 1970,294.5C 1978.05,278.426 1973.21,268.926 1955.5,266C 1936.48,265.102 1917.48,264.102 1898.5,263C 1876.39,258.937 1866.89,245.771 1870,223.5C 1874.41,211.422 1882.58,202.922 1894.5,198C 1901.77,195.188 1909.1,193.021 1916.5,191.5 Z"/></g>
<g><path style="opacity:1" fill="#7571f9" d="M 1149.5,192.5 C 1160.17,192.5 1170.83,192.5 1181.5,192.5C 1181.5,193.5 1181.5,194.5 1181.5,195.5C 1179.1,195.393 1177.26,196.393 1176,198.5C 1175.33,237.5 1175.33,276.5 1176,315.5C 1177.26,317.607 1179.1,318.607 1181.5,318.5C 1181.5,319.5 1181.5,320.5 1181.5,321.5C 1170.83,321.5 1160.17,321.5 1149.5,321.5C 1149.5,320.5 1149.5,319.5 1149.5,318.5C 1151.9,318.607 1153.74,317.607 1155,315.5C 1155.67,276.5 1155.67,237.5 1155,198.5C 1153.74,196.393 1151.9,195.393 1149.5,195.5C 1149.5,194.5 1149.5,193.5 1149.5,192.5 Z"/></g>
<g><path style="opacity:1" fill="#7772f9" d="M 1745.5,192.5 C 1757.17,192.5 1768.83,192.5 1780.5,192.5C 1780.54,194.359 1779.71,195.692 1778,196.5C 1777.33,198.167 1777.33,199.833 1778,201.5C 1796.53,240.719 1815.69,279.552 1835.5,318C 1837.13,318.494 1838.8,318.66 1840.5,318.5C 1840.5,319.5 1840.5,320.5 1840.5,321.5C 1829.17,321.5 1817.83,321.5 1806.5,321.5C 1806.5,320.5 1806.5,319.5 1806.5,318.5C 1807.82,318.67 1808.99,318.337 1810,317.5C 1810.67,315.5 1810.67,313.5 1810,311.5C 1806.57,303.467 1802.73,295.634 1798.5,288C 1775.16,287.167 1751.83,287.334 1728.5,288.5C 1724.73,296.383 1721.23,304.383 1718,312.5C 1716.61,316.22 1717.77,318.22 1721.5,318.5C 1721.5,319.5 1721.5,320.5 1721.5,321.5C 1711.5,321.5 1701.5,321.5 1691.5,321.5C 1691.5,320.5 1691.5,319.5 1691.5,318.5C 1693.9,318.607 1695.74,317.607 1697,315.5C 1714.79,276.62 1732.29,237.62 1749.5,198.5C 1747.55,196.874 1746.21,194.874 1745.5,192.5 Z"/></g>
<g><path style="opacity:1" fill="#86c539" d="M 223.5,196.5 C 240.269,196.03 245.769,203.697 240,219.5C 234.868,226.325 228.035,228.825 219.5,227C 211.25,221.151 209.417,213.651 214,204.5C 216.772,201.217 219.939,198.55 223.5,196.5 Z"/></g>
<g><path style="opacity:1" fill="#fefefe" d="M 847.5,207.5 C 860.901,206.633 873.901,208.466 886.5,213C 903.054,222.427 911.387,236.76 911.5,256C 909.477,290.017 891.31,306.851 857,306.5C 820.1,303.586 803.433,283.586 807,246.5C 812.2,224.799 825.7,211.799 847.5,207.5 Z"/></g>
<g><path style="opacity:1" fill="#f1f0fe" d="M 1651.5,209.5 C 1624.83,209.5 1598.17,209.5 1571.5,209.5C 1571.5,221.833 1571.5,234.167 1571.5,246.5C 1589.5,246.5 1607.5,246.5 1625.5,246.5C 1607.34,247.497 1589.01,247.83 1570.5,247.5C 1570.5,234.5 1570.5,221.5 1570.5,208.5C 1597.67,208.169 1624.67,208.502 1651.5,209.5 Z"/></g>
<g><path style="opacity:1" fill="#8a84f9" d="M 47.5,197.5 C 48.0967,197.735 48.4301,198.235 48.5,199C 43.1552,211.722 39.3219,224.889 37,238.5C 36.5686,231.746 37.2353,225.08 39,218.5C 41.8461,211.479 44.6795,204.479 47.5,197.5 Z"/></g>
<g><path style="opacity:1" fill="#fdfdfe" d="M 1789.5,270.5 C 1771.99,270.83 1754.66,270.497 1737.5,269.5C 1745.27,250.837 1753.6,232.503 1762.5,214.5C 1772.04,232.914 1781.04,251.58 1789.5,270.5 Z"/></g>
<g><path style="opacity:1" fill="#bfbcfb" d="M 1319.5,240.5 C 1320.49,250.319 1320.83,260.319 1320.5,270.5C 1319.17,270.5 1317.83,270.5 1316.5,270.5C 1316.5,269.5 1316.5,268.5 1316.5,267.5C 1317.15,268.091 1317.82,268.757 1318.5,269.5C 1319.5,259.856 1319.83,250.19 1319.5,240.5 Z"/></g>
<g><path style="opacity:1" fill="#ec1490" d="M 336.5,243.5 C 349.778,243.611 355.944,250.277 355,263.5C 351.667,274.583 344.5,278.416 333.5,275C 325.595,269.269 323.428,261.769 327,252.5C 329.406,248.592 332.572,245.592 336.5,243.5 Z"/></g>
<g><path style="opacity:1" fill="#e0dffd" d="M 2062.5,208.5 C 2062.5,221.167 2062.5,233.833 2062.5,246.5C 2080.5,246.5 2098.5,246.5 2116.5,246.5C 2098.34,247.497 2080.01,247.83 2061.5,247.5C 2061.17,234.323 2061.5,221.323 2062.5,208.5 Z"/></g>
<g><path style="opacity:1" fill="#55aee5" d="M 262.5,263.5 C 263.5,263.5 264.5,263.5 265.5,263.5C 260.111,280.168 254.611,296.835 249,313.5C 247.451,321.46 246.118,329.46 245,337.5C 243.864,341.243 242.53,344.91 241,348.5C 230.633,366.706 220.466,385.039 210.5,403.5C 209.675,404.386 208.675,404.719 207.5,404.5C 211.091,389.553 214.591,374.553 218,359.5C 220.927,342.082 214.094,330.248 197.5,324C 183.278,318.944 168.611,316.444 153.5,316.5C 153.5,315.167 153.5,313.833 153.5,312.5C 178.509,312.208 203.509,311.541 228.5,310.5C 239.858,294.815 251.191,279.148 262.5,263.5 Z"/></g>
<g><path style="opacity:1" fill="#9a1f90" d="M 280.5,267.5 C 281.552,267.351 282.552,267.517 283.5,268C 297.551,279.052 311.885,289.719 326.5,300C 335.318,303.906 343.652,308.573 351.5,314C 366.846,330.678 382.179,347.345 397.5,364C 397.37,365.059 396.87,365.892 396,366.5C 381.167,354.83 365,345.33 347.5,338C 339.918,336.452 332.918,337.785 326.5,342C 312.64,354.856 302.64,370.356 296.5,388.5C 295.675,389.386 294.675,389.719 293.5,389.5C 300.108,365.572 307.108,341.739 314.5,318C 304.069,302.566 293.236,287.399 282,272.5C 280.991,270.975 280.491,269.308 280.5,267.5 Z"/></g>
<g><path style="opacity:1" fill="#aba9fa" d="M 1737.5,269.5 C 1754.66,270.497 1771.99,270.83 1789.5,270.5C 1772,271.827 1754.33,271.827 1736.5,270.5C 1736.62,269.893 1736.96,269.56 1737.5,269.5 Z"/></g>
<g><path style="opacity:1" fill="#53ade5" d="M 213.5,272.5 C 232.062,272.22 238.562,280.887 233,298.5C 231.833,299.667 230.667,300.833 229.5,302C 218.149,306.306 210.315,302.806 206,291.5C 203.552,283.081 206.052,276.747 213.5,272.5 Z"/></g>
<g><path style="opacity:1" fill="#f9f8fe" d="M 39.5,283.5 C 42.254,285.053 43.0874,287.386 42,290.5C 40.0972,288.559 39.2639,286.226 39.5,283.5 Z"/></g>
<g><path style="opacity:1" fill="#afadfb" d="M 1349.5,297.5 C 1350.21,296.596 1351.21,296.263 1352.5,296.5C 1352.5,306.833 1352.5,317.167 1352.5,327.5C 1351.21,327.737 1350.21,327.404 1349.5,326.5C 1350.83,322.049 1351.49,317.216 1351.5,312C 1351.49,306.784 1350.83,301.951 1349.5,297.5 Z"/></g>
<g><path style="opacity:1" fill="#cdccfc" d="M 2153.5,297.5 C 2154.57,296.566 2155.9,296.232 2157.5,296.5C 2157.83,306.681 2157.49,316.681 2156.5,326.5C 2156.5,316.833 2156.5,307.167 2156.5,297.5C 2155.5,297.5 2154.5,297.5 2153.5,297.5 Z"/></g>
<g><path style="opacity:1" fill="#e0dffd" d="M 45.5,298.5 C 48.0764,298.722 48.9098,300.055 48,302.5C 46.5187,301.529 45.6854,300.196 45.5,298.5 Z"/></g>
<g><path style="opacity:1" fill="#991e8f" d="M 286.5,302.5 C 302.469,301.95 308.636,309.284 305,324.5C 298.275,332.756 290.108,334.589 280.5,330C 272.5,322 272.5,314 280.5,306C 282.727,305.059 284.727,303.892 286.5,302.5 Z"/></g>
<g><path style="opacity:1" fill="#d3d1fd" d="M 1257.5,263.5 C 1257.5,277.167 1257.5,290.833 1257.5,304.5C 1286.17,304.5 1314.83,304.5 1343.5,304.5C 1314.67,305.498 1285.67,305.831 1256.5,305.5C 1256.17,291.323 1256.5,277.323 1257.5,263.5 Z"/></g>
<g><path style="opacity:1" fill="#dbdafd" d="M 2062.5,263.5 C 2062.5,277.167 2062.5,290.833 2062.5,304.5C 2091.17,304.5 2119.83,304.5 2148.5,304.5C 2119.67,305.498 2090.67,305.831 2061.5,305.5C 2061.17,291.323 2061.5,277.323 2062.5,263.5 Z"/></g>
<g><path style="opacity:1" fill="#efeefe" d="M 42.5,309.5 C 46.5265,310.886 47.8598,313.553 46.5,317.5C 44.1132,315.393 42.7799,312.727 42.5,309.5 Z"/></g>
<g><path style="opacity:1" fill="#d9d7fd" d="M 477.5,315.5 C 480.275,315.834 480.941,317.167 479.5,319.5C 478.295,318.423 477.628,317.09 477.5,315.5 Z"/></g>
<g><path style="opacity:1" fill="#e4e2fe" d="M 45.5,320.5 C 46.1174,320.611 46.6174,320.944 47,321.5C 48.1163,324.82 48.783,328.153 49,331.5C 46.1457,328.386 44.979,324.719 45.5,320.5 Z"/></g>
<g><path style="opacity:1" fill="#f2f1fe" d="M 50.5,349.5 C 49.0181,345.236 48.1847,340.902 48,336.5C 52.8369,346.666 58.5036,356.333 65,365.5C 67.208,368.554 68.208,371.887 68,375.5C 61.4003,367.285 55.5669,358.619 50.5,349.5 Z"/></g>
<g><path style="opacity:1" fill="#f6f6fe" d="M 456.5,368.5 C 457.124,368.917 457.457,369.584 457.5,370.5C 455.095,379.233 451.261,387.233 446,394.5C 436.343,407.157 425.343,418.49 413,428.5C 412.685,427.092 413.018,425.759 414,424.5C 426.376,410.459 438.376,396.126 450,381.5C 452.707,377.419 454.874,373.086 456.5,368.5 Z"/></g>
<g><path style="opacity:1" fill="#eae8fe" d="M 69.5,383.5 C 70.1894,382.226 71.0228,382.226 72,383.5C 74,386.167 76,388.833 78,391.5C 78.6877,392.332 78.521,392.998 77.5,393.5C 74.4297,390.436 71.7631,387.103 69.5,383.5 Z"/></g>
<g><path style="opacity:1" fill="#e7e5fe" d="M 456.5,386.5 C 457.097,386.735 457.43,387.235 457.5,388C 456.191,392.634 454.024,396.801 451,400.5C 452.308,395.765 454.141,391.098 456.5,386.5 Z"/></g>
<g><path style="opacity:1" fill="#807bf9" d="M 91.5,391.5 C 107.355,410.512 126.355,425.679 148.5,437C 152.567,439.361 156.233,442.194 159.5,445.5C 158.635,446.583 157.635,446.749 156.5,446C 134.787,434.892 115.287,420.725 98,403.5C 95.0259,399.882 92.8592,395.882 91.5,391.5 Z"/></g>
<g><path style="opacity:1" fill="#eeecfe" d="M 79.5,400.5 C 83.0746,399.111 85.7413,400.278 87.5,404C 87.1667,404.5 86.8333,405 86.5,405.5C 83.9613,404.069 81.6279,402.403 79.5,400.5 Z"/></g>
<g><path style="opacity:1" fill="#e4e2fe" d="M 445.5,401.5 C 446.573,402.251 446.74,403.251 446,404.5C 443.916,408.336 441.583,412.003 439,415.5C 440.316,410.53 442.482,405.863 445.5,401.5 Z"/></g>
<g><path style="opacity:1" fill="#f0f0fe" d="M 88.5,408.5 C 92.3731,411.186 95.2064,414.519 97,418.5C 93.558,415.568 90.7246,412.235 88.5,408.5 Z"/></g>
<g><path style="opacity:1" fill="#ebeafe" d="M 433.5,414.5 C 434.043,414.56 434.376,414.893 434.5,415.5C 431.636,421.531 427.802,426.864 423,431.5C 422.333,430.833 422.333,430.167 423,429.5C 427.002,424.821 430.502,419.821 433.5,414.5 Z"/></g>
<g><path style="opacity:1" fill="#f0effe" d="M 100.5,423.5 C 105.682,425.008 110.182,427.675 114,431.5C 114.667,432.167 114.667,432.833 114,433.5C 110.369,430.958 106.536,428.791 102.5,427C 101.177,426.184 100.511,425.017 100.5,423.5 Z"/></g>
<g><path style="opacity:1" fill="#dad8fd" d="M 403.5,432.5 C 404.782,433.708 404.782,435.042 403.5,436.5C 402.374,435.192 402.374,433.858 403.5,432.5 Z"/></g>
<g><path style="opacity:1" fill="#dfdefd" d="M 114.5,437.5 C 115.708,436.218 117.042,436.218 118.5,437.5C 117.192,438.626 115.858,438.626 114.5,437.5 Z"/></g>
<g><path style="opacity:1" fill="#f1f0fe" d="M 417.5,436.5 C 418.465,437.721 418.298,439.054 417,440.5C 409.071,447.701 400.238,453.201 390.5,457C 399.4,449.919 408.4,443.086 417.5,436.5 Z"/></g>
<g><path style="opacity:1" fill="#e9e8fe" d="M 396.5,438.5 C 397.314,441.591 396.314,444.257 393.5,446.5C 392.417,445.635 392.251,444.635 393,443.5C 393.997,441.677 395.164,440.01 396.5,438.5 Z"/></g>
<g><path style="opacity:1" fill="#eeedfe" d="M 122.5,442.5 C 124.484,442.383 126.15,443.05 127.5,444.5C 124.83,446.09 123.163,445.423 122.5,442.5 Z"/></g>
<g><path style="opacity:1" fill="#f5f4fe" d="M 241.5,494.5 C 246.833,493.833 252.167,493.167 257.5,492.5C 297.841,488.669 336.174,478.169 372.5,461C 367.833,464.333 363.167,467.667 358.5,471C 321.771,489.513 282.771,497.346 241.5,494.5 Z"/></g>
<g><path style="opacity:1" fill="#f4f3fe" d="M 362.5,478.5 C 358.182,479.992 354.182,481.992 350.5,484.5C 347.869,486.153 345.203,487.819 342.5,489.5C 342.44,488.957 342.107,488.624 341.5,488.5C 332.299,491.144 322.965,493.144 313.5,494.5C 312.508,494.672 311.842,494.338 311.5,493.5C 337.851,485.49 362.851,474.49 386.5,460.5C 387.696,460.846 387.696,461.346 386.5,462C 378.322,467.363 370.322,472.863 362.5,478.5 Z"/></g>
<g><path style="opacity:1" fill="#b5b1fc" d="M 362.5,478.5 C 359.086,481.54 355.086,483.54 350.5,484.5C 354.182,481.992 358.182,479.992 362.5,478.5 Z"/></g>
<g><path style="opacity:1" fill="#817cf9" d="M 342.5,489.5 C 337.499,492.337 332.166,494.504 326.5,496C 318.14,496.984 309.807,498.151 301.5,499.5C 299.657,499.592 298.991,499.259 299.5,498.5C 304.271,497.144 308.937,495.811 313.5,494.5C 322.965,493.144 332.299,491.144 341.5,488.5C 342.107,488.624 342.44,488.957 342.5,489.5 Z"/></g>
<g><path style="opacity:1" fill="#d9d7fd" d="M 215.5,490.5 C 229.421,492.199 243.421,492.865 257.5,492.5C 252.167,493.167 246.833,493.833 241.5,494.5C 231.016,493.567 220.683,492.567 210.5,491.5C 212.415,491.784 214.081,491.451 215.5,490.5 Z"/></g>
<g><path style="opacity:1" fill="#c9c6fd" d="M 311.5,493.5 C 311.842,494.338 312.508,494.672 313.5,494.5C 308.937,495.811 304.271,497.144 299.5,498.5C 299.5,497.833 299.167,497.5 298.5,497.5C 302.749,496.197 307.082,494.864 311.5,493.5 Z"/></g>
<g><path style="opacity:1" fill="#807bf9" d="M 196.5,498.5 C 200.276,498.469 200.443,499.136 197,500.5C 195.316,500.317 195.15,499.65 196.5,498.5 Z"/></g>
</svg>
