<?xml version="1.0" standalone="no"?>
<!DOCTYPE svg PUBLIC "-//W3C//DTD SVG 20010904//EN"
 "http://www.w3.org/TR/2001/REC-SVG-20010904/DTD/svg10.dtd">
<svg version="1.0" xmlns="http://www.w3.org/2000/svg"
 width="200.000000pt" height="44.000000pt" viewBox="0 0 200.000000 44.000000"
 preserveAspectRatio="xMidYMid meet">

<g transform="translate(0.000000,44.000000) scale(0.100000,-0.100000)"
fill="#000000" stroke="none">
<path d="M231 330 c0 -8 4 -24 9 -35 7 -16 9 -17 9 -3 1 9 7 19 14 21 7 4 6 6
-5 6 -9 1 -19 7 -21 14 -4 8 -5 7 -6 -3z"/>
<path d="M260 290 c0 -5 5 -10 10 -10 6 0 10 5 10 10 0 6 -4 10 -10 10 -5 0
-10 -4 -10 -10z"/>
<path d="M310 275 c-19 -14 -28 -25 -21 -25 7 0 10 -4 6 -9 -3 -5 -1 -12 5
-16 5 -3 10 1 10 9 0 10 6 13 15 10 11 -5 13 -2 9 10 -3 9 -1 23 6 31 18 22 9
18 -30 -10z"/>
<path d="M548 293 c6 -2 18 -2 25 0 6 3 1 5 -13 5 -14 0 -19 -2 -12 -5z"/>
<path d="M703 293 c9 -2 23 -2 30 0 6 3 -1 5 -18 5 -16 0 -22 -2 -12 -5z"/>
<path d="M871 296 c2 -2 20 -6 39 -10 25 -4 31 -3 20 4 -14 9 -69 15 -59 6z"/>
<path d="M1073 293 c15 -2 37 -2 50 0 12 2 0 4 -28 4 -27 0 -38 -2 -22 -4z"/>
<path d="M1197 293 c20 -4 22 -12 26 -71 l3 -67 2 67 c2 64 3 67 30 71 15 2 2
4 -28 4 -30 0 -45 -2 -33 -4z"/>
<path d="M1320 230 l0 -70 53 2 52 2 -47 3 -48 4 0 59 0 59 48 4 47 3 -52 2
-53 2 0 -70z"/>
<path d="M1658 293 c6 -2 18 -2 25 0 6 3 1 5 -13 5 -14 0 -19 -2 -12 -5z"/>
<path d="M1760 230 l0 -70 53 2 52 2 -47 3 -48 4 0 59 0 59 43 4 42 4 -47 1
-48 2 0 -70z"/>
<path d="M761 273 c7 -12 15 -20 18 -17 3 2 -3 12 -13 22 -17 16 -18 16 -5 -5z"/>
<path d="M840 275 c-7 -9 -11 -17 -9 -20 3 -2 10 5 17 15 14 24 10 26 -8 5z"/>
<path d="M1624 275 c-7 -17 12 -45 29 -45 6 0 2 6 -8 14 -11 8 -16 19 -12 30
4 9 4 16 1 16 -2 0 -7 -7 -10 -15z"/>
<path d="M520 251 c0 -10 19 -25 25 -20 1 2 -3 10 -11 17 -8 7 -14 8 -14 3z"/>
<path d="M820 229 c0 -20 37 -69 53 -69 7 0 4 5 -6 11 -11 6 -25 25 -33 43 -7
17 -13 24 -14 15z"/>
<path d="M578 220 c12 -5 22 -17 23 -27 0 -11 3 -13 6 -5 7 17 -15 42 -36 41
-11 0 -9 -3 7 -9z"/>
<path d="M265 211 c3 -5 -1 -11 -7 -14 -7 -2 -9 -8 -5 -13 4 -5 13 -2 18 6 8
11 10 8 6 -13 -3 -22 -2 -25 9 -16 8 6 20 9 28 6 26 -10 7 17 -25 35 -16 10
-27 14 -24 9z"/>
<path d="M651 209 c-1 -17 29 -49 45 -49 5 0 1 5 -9 11 -10 6 -22 20 -27 32
-6 15 -9 17 -9 6z"/>
<path d="M1550 211 c0 -6 4 -13 10 -16 6 -3 7 1 4 9 -7 18 -14 21 -14 7z"/>
<path d="M753 183 c-12 -13 -19 -23 -14 -23 10 0 46 39 40 43 -2 2 -14 -7 -26
-20z"/>
<path d="M406 165 c-8 -30 -43 -74 -80 -97 -27 -17 -28 -19 -6 -13 14 4 25 8
25 9 3 9 65 75 65 69 1 -8 29 38 30 48 1 17 -29 2 -34 -16z"/>
<path d="M527 169 c7 -7 15 -10 18 -7 3 3 -2 9 -12 12 -14 6 -15 5 -6 -5z"/>
<path d="M920 170 c-9 -6 -10 -10 -3 -10 6 0 15 5 18 10 8 12 4 12 -15 0z"/>
<path d="M1073 163 c15 -2 37 -2 50 0 12 2 0 4 -28 4 -27 0 -38 -2 -22 -4z"/>
<path d="M150 56 c0 -13 77 -24 110 -17 33 8 31 9 -22 10 -31 1 -63 4 -72 7
-9 3 -16 4 -16 0z"/>
</g>
</svg>
