<?xml version="1.0" encoding="UTF-8"?>
<!DOCTYPE svg PUBLIC "-//W3C//DTD SVG 1.1//EN" "http://www.w3.org/Graphics/SVG/1.1/DTD/svg11.dtd">
<svg xmlns="http://www.w3.org/2000/svg" version="1.1" width="500px" height="500px" style="shape-rendering:geometricPrecision; text-rendering:geometricPrecision; image-rendering:optimizeQuality; fill-rule:evenodd; clip-rule:evenodd" xmlns:xlink="http://www.w3.org/1999/xlink">
<g><path style="opacity:1" fill="#fefefe" d="M -0.5,-0.5 C 166.167,-0.5 332.833,-0.5 499.5,-0.5C 499.5,166.167 499.5,332.833 499.5,499.5C 332.833,499.5 166.167,499.5 -0.5,499.5C -0.5,332.833 -0.5,166.167 -0.5,-0.5 Z"/></g>
<g><path style="opacity:1" fill="#9a96fa" d="M 241.5,18.5 C 247.29,18.0962 252.956,18.5962 258.5,20C 252.5,20.6667 246.5,20.6667 240.5,20C 241.056,19.6174 241.389,19.1174 241.5,18.5 Z"/></g>
<g><path style="opacity:1" fill="#827df9" d="M 220.5,21.5 C 224.182,21.3347 227.848,21.5014 231.5,22C 224.617,24.2941 217.617,25.1274 210.5,24.5C 210.833,24.1667 211.167,23.8333 211.5,23.5C 214.64,22.9106 217.64,22.2439 220.5,21.5 Z"/></g>
<g><path style="opacity:1" fill="#7873f9" d="M 399.5,417.5 C 383.082,432.568 364.749,444.901 344.5,454.5C 352.767,448.689 361.1,442.856 369.5,437C 354.311,444.258 338.978,451.591 323.5,459C 314.228,462.479 304.895,465.646 295.5,468.5C 289.099,470.349 282.766,472.016 276.5,473.5C 257.788,475.67 239.121,478.17 220.5,481C 212.833,481.667 205.167,481.667 197.5,481C 195.616,480.784 193.949,480.117 192.5,479C 200.523,478.598 208.523,477.932 216.5,477C 201.711,475.053 187.378,471.386 173.5,466C 180.493,465.892 187.493,466.059 194.5,466.5C 204.332,467.729 214.332,468.729 224.5,469.5C 266.497,472.44 306.164,464.274 343.5,445C 347.5,442.333 351.5,439.667 355.5,437C 356.696,436.346 356.696,435.846 355.5,435.5C 319.49,453.281 281.49,463.948 241.5,467.5C 227.421,467.865 213.421,467.199 199.5,465.5C 159.899,459.698 125.566,443.198 96.5,416C 50.5855,373.004 24.2522,320.171 17.5,257.5C 17.2035,250.615 18.2035,243.948 20.5,237.5C 21.3333,240.5 22.1667,243.5 23,246.5C 23.6667,247.833 24.3333,247.833 25,246.5C 26.2105,237.756 25.3771,229.256 22.5,221C 24.7441,218.951 26.9107,216.785 29,214.5C 29.6727,204.716 31.006,195.05 33,185.5C 39.6785,165.477 48.5119,146.477 59.5,128.5C 59.1543,127.304 58.6543,127.304 58,128.5C 51.7399,136.688 46.2399,145.354 41.5,154.5C 41.1667,154.5 40.8333,154.5 40.5,154.5C 45.3516,141.958 52.3516,130.792 61.5,121C 63.0468,120.667 64.3801,121.167 65.5,122.5C 67.6568,121.034 67.9901,119.2 66.5,117C 68.8584,114.975 70.8584,112.642 72.5,110C 71.7052,108.418 70.5385,108.251 69,109.5C 91.7823,86.5005 117.616,66.0005 146.5,48C 162.271,40.1135 178.271,32.7801 194.5,26C 198.167,25.3333 201.833,25.3333 205.5,26C 185.888,35.1394 166.555,44.8061 147.5,55C 103.01,82.1511 69.8438,119.318 48,166.5C 47.8603,163.957 47.1937,161.623 46,159.5C 44.5167,162.702 44.1834,166.036 45,169.5C 45.8113,168.04 46.6446,167.707 47.5,168.5C 29.7242,209.154 26.2242,250.82 37,293.5C 62.6189,387.054 123.786,437.22 220.5,444C 287.957,449.858 344.457,428.025 390,378.5C 400.817,366.687 410.484,354.02 419,340.5C 428.308,322.277 435.641,303.277 441,283.5C 444.009,275.449 449.509,273.282 457.5,277C 462.191,279.23 467.024,281.063 472,282.5C 474.217,281.953 476.217,280.953 478,279.5C 478.772,279.645 479.439,279.978 480,280.5C 480.751,285.572 480.418,290.572 479,295.5C 465.635,336.42 444.469,372.586 415.5,404C 410.274,408.734 404.941,413.234 399.5,417.5 Z"/></g>
<g><path style="opacity:1" fill="#f14826" d="M 225.5,68.5 C 227.124,68.3601 228.29,69.0267 229,70.5C 234.066,87.7111 241.066,104.044 250,119.5C 255.069,126.034 261.735,129.034 270,128.5C 288.639,126.73 305.472,120.23 320.5,109C 321.944,108.219 323.277,108.386 324.5,109.5C 304.976,125.185 285.143,140.518 265,155.5C 264.5,175.497 264.333,195.497 264.5,215.5C 263.5,215.5 262.5,215.5 261.5,215.5C 256.014,191.541 247.847,168.541 237,146.5C 235.36,142.608 234.027,138.608 233,134.5C 230.664,112.478 228.164,90.478 225.5,68.5 Z"/></g>
<g><path style="opacity:1" fill="#f2f1fe" d="M 101.5,85.5 C 99.9606,88.6108 97.4606,91.6108 94,94.5C 95.4851,90.8311 97.9851,87.8311 101.5,85.5 Z"/></g>
<g><path style="opacity:1" fill="#f2f1fe" d="M 85.5,98.5 C 86.9281,100.795 86.4281,102.795 84,104.5C 83.2516,102.16 83.7516,100.16 85.5,98.5 Z"/></g>
<g><path style="opacity:1" fill="#e5e3fe" d="M 68.5,124.5 C 68.0703,128.032 66.4037,131.366 63.5,134.5C 63.1667,134.167 62.8333,133.833 62.5,133.5C 64.2622,130.299 66.2622,127.299 68.5,124.5 Z"/></g>
<g><path style="opacity:1" fill="#87c63a" d="M 163.5,131.5 C 165.911,131.137 167.411,132.137 168,134.5C 175.539,156.952 183.373,179.285 191.5,201.5C 209.994,208.11 228.661,214.11 247.5,219.5C 247.5,220.5 247.5,221.5 247.5,222.5C 227.831,222.333 208.164,222.5 188.5,223C 177.927,225.206 167.26,225.872 156.5,225C 136.608,220.588 116.608,216.755 96.5,213.5C 96.5,212.167 96.5,210.833 96.5,209.5C 116.515,210.205 136.182,208.038 155.5,203C 162.009,198.478 166.175,192.312 168,184.5C 170.848,166.461 169.348,148.794 163.5,131.5 Z"/></g>
<g><path style="opacity:1" fill="#ec1490" d="M 398.5,147.5 C 399.833,147.5 401.167,147.5 402.5,147.5C 402.67,148.822 402.337,149.989 401.5,151C 389.083,160.079 377.25,169.913 366,180.5C 355.69,192.262 354.69,204.929 363,218.5C 371.247,231.415 381.58,242.415 394,251.5C 394.601,252.965 394.101,253.965 392.5,254.5C 372.674,240.42 352.674,226.587 332.5,213C 330.833,212.333 329.167,212.333 327.5,213C 311.229,218.535 294.896,223.868 278.5,229C 272.879,229.844 272.213,228.511 276.5,225C 289.5,216 302.5,207 315.5,198C 322.9,189.93 330.9,182.596 339.5,176C 359.451,166.968 379.117,157.468 398.5,147.5 Z"/></g>
<g><path style="opacity:1" fill="#ecebfe" d="M 56.5,142.5 C 56.2776,146.335 54.7776,150.002 52,153.5C 52.3611,149.434 53.8611,145.768 56.5,142.5 Z"/></g>
<g><path style="opacity:1" fill="#f14927" d="M 279.5,154.5 C 294.386,153.884 301.22,160.884 300,175.5C 298.427,180.071 295.26,182.904 290.5,184C 275.7,185.866 268.534,179.366 269,164.5C 271.081,159.584 274.581,156.25 279.5,154.5 Z"/></g>
<g><path style="opacity:1" fill="#cac7fc" d="M 40.5,154.5 C 40.8333,154.5 41.1667,154.5 41.5,154.5C 40.3466,156.807 39.1799,159.14 38,161.5C 37.7048,158.758 38.5381,156.425 40.5,154.5 Z"/></g>
<g><path style="opacity:1" fill="#87c539" d="M 207.5,171.5 C 220.461,170.629 226.628,176.629 226,189.5C 222.07,200.049 214.57,204.216 203.5,202C 195.545,196.726 193.378,189.56 197,180.5C 199.505,176.189 203.005,173.189 207.5,171.5 Z"/></g>
<g><path style="opacity:1" fill="#8983f9" d="M 31.5,171.5 C 32.0967,171.735 32.4301,172.235 32.5,173C 27.1565,185.711 23.3232,198.877 21,212.5C 20.124,205.679 20.7907,199.012 23,192.5C 25.8461,185.479 28.6795,178.479 31.5,171.5 Z"/></g>
<g><path style="opacity:1" fill="#ec1290" d="M 320.5,218.5 C 328.807,217.569 334.641,220.902 338,228.5C 340.791,239.19 337.291,246.69 327.5,251C 313.034,251.181 307.201,244.014 310,229.5C 312.357,224.645 315.857,220.979 320.5,218.5 Z"/></g>
<g><path style="opacity:1" fill="#55aee5" d="M 246.5,238.5 C 247.649,238.791 248.316,239.624 248.5,241C 243.001,257.498 237.501,273.998 232,290.5C 231.101,306.195 226.768,320.862 219,334.5C 210.161,348.842 201.827,363.508 194,378.5C 192.989,379.337 191.822,379.67 190.5,379.5C 195.114,363.375 198.947,347.042 202,330.5C 203.68,317.694 198.847,308.194 187.5,302C 171.598,295.125 154.932,291.458 137.5,291C 136.167,290 136.167,289 137.5,288C 162.156,286.968 186.823,286.301 211.5,286C 223.298,270.226 234.965,254.393 246.5,238.5 Z"/></g>
<g><path style="opacity:1" fill="#9a2090" d="M 264.5,242.5 C 265.922,242.709 267.255,243.209 268.5,244C 281.833,254 295.167,264 308.5,274C 318.485,278.322 327.818,283.655 336.5,290C 351.685,306.35 366.685,322.85 381.5,339.5C 380.965,341.101 379.965,341.601 378.5,341C 365.134,329.985 350.467,320.985 334.5,314C 323.923,310.54 314.59,312.54 306.5,320C 294.358,332.78 285.692,347.614 280.5,364.5C 279.5,364.5 278.5,364.5 277.5,364.5C 283.679,340.291 290.679,316.291 298.5,292.5C 287.527,277.027 276.36,261.693 265,246.5C 264.51,245.207 264.343,243.873 264.5,242.5 Z"/></g>
<g><path style="opacity:1" fill="#55aee5" d="M 197.5,247.5 C 214.055,246.644 220.888,254.311 218,270.5C 214.061,278.042 207.895,280.542 199.5,278C 188.657,271.491 186.157,262.658 192,251.5C 193.812,250.023 195.645,248.69 197.5,247.5 Z"/></g>
<g><path style="opacity:1" fill="#efeefe" d="M 22.5,258.5 C 25.9499,259.737 26.9499,262.07 25.5,265.5C 23.6726,263.513 22.6726,261.179 22.5,258.5 Z"/></g>
<g><path style="opacity:1" fill="#e8e6fe" d="M 29.5,273.5 C 31.7279,274.322 32.3946,275.655 31.5,277.5C 30.2949,276.423 29.6282,275.09 29.5,273.5 Z"/></g>
<g><path style="opacity:1" fill="#9a2090" d="M 270.5,277.5 C 287.054,277.327 292.887,284.994 288,300.5C 279.528,308.937 270.528,309.604 261,302.5C 256.888,297.05 256.554,291.383 260,285.5C 262.975,281.952 266.475,279.286 270.5,277.5 Z"/></g>
<g><path style="opacity:1" fill="#edebfe" d="M 25.5,283.5 C 27.4628,284.96 29.2962,286.627 31,288.5C 31.6987,290.074 31.3654,291.407 30,292.5C 27.4289,290.024 25.9289,287.024 25.5,283.5 Z"/></g>
<g><path style="opacity:1" fill="#e4e3fe" d="M 461.5,290.5 C 463.344,291.204 463.844,292.537 463,294.5C 461.812,293.437 461.312,292.103 461.5,290.5 Z"/></g>
<g><path style="opacity:1" fill="#e7e5fe" d="M 29.5,295.5 C 30.9056,298.525 32.239,301.692 33.5,305C 33.1667,305.5 32.8333,306 32.5,306.5C 30.1207,303.243 29.1207,299.576 29.5,295.5 Z"/></g>
<g><path style="opacity:1" fill="#f2f1fe" d="M 31.5,312.5 C 38.2933,324.071 45.1266,335.738 52,347.5C 52.6667,348.5 52.6667,349.5 52,350.5C 41.8779,339.561 35.0446,326.894 31.5,312.5 Z"/></g>
<g><path style="opacity:1" fill="#dfdefd" d="M 443.5,333.5 C 445.344,334.204 445.844,335.537 445,337.5C 443.812,336.437 443.312,335.103 443.5,333.5 Z"/></g>
<g><path style="opacity:1" fill="#f7f6fe" d="M 439.5,343.5 C 440.497,343.47 441.164,343.97 441.5,345C 439.059,354.381 434.892,362.881 429,370.5C 420.234,381.269 410.734,391.436 400.5,401C 398.945,402.289 397.279,402.956 395.5,403C 408,387.833 420.5,372.667 433,357.5C 435.988,353.192 438.155,348.525 439.5,343.5 Z"/></g>
<g><path style="opacity:1" fill="#e5e4fe" d="M 53.5,357.5 C 56.6352,360.808 59.6352,364.308 62.5,368C 60.6133,368.163 59.1133,367.329 58,365.5C 56.2226,362.941 54.7226,360.274 53.5,357.5 Z"/></g>
<g><path style="opacity:1" fill="#e9e8fe" d="M 440.5,361.5 C 441.043,361.56 441.376,361.893 441.5,362.5C 439.861,367.112 437.694,371.446 435,375.5C 435.968,370.553 437.801,365.886 440.5,361.5 Z"/></g>
<g><path style="opacity:1" fill="#7f7af9" d="M 75.5,367.5 C 84.6703,377.836 94.6703,387.336 105.5,396C 116.334,402.918 127.334,409.585 138.5,416C 140.954,417.74 142.454,419.907 143,422.5C 119.474,410.643 98.4741,395.31 80,376.5C 77.9404,373.714 76.4404,370.714 75.5,367.5 Z"/></g>
<g><path style="opacity:1" fill="#eceafe" d="M 63.5,374.5 C 66.0163,374.755 68.3496,375.589 70.5,377C 71.731,378.183 71.731,379.349 70.5,380.5C 67.4219,379.163 65.0886,377.163 63.5,374.5 Z"/></g>
<g><path style="opacity:1" fill="#e8e6fe" d="M 428.5,377.5 C 428.714,382.099 426.88,386.099 423,389.5C 424.051,385.239 425.885,381.239 428.5,377.5 Z"/></g>
<g><path style="opacity:1" fill="#e2e0fd" d="M 71.5,382.5 C 74.7974,385.296 77.9641,388.296 81,391.5C 81.6877,392.332 81.521,392.998 80.5,393.5C 76.3479,390.69 73.3479,387.024 71.5,382.5 Z"/></g>
<g><path style="opacity:1" fill="#ebe9fe" d="M 83.5,398.5 C 87.2634,399.701 90.93,401.201 94.5,403C 96.3293,404.113 97.1626,405.613 97,407.5C 93.7882,406.145 90.6215,404.645 87.5,403C 85.3645,402.124 84.0312,400.624 83.5,398.5 Z"/></g>
<g><path style="opacity:1" fill="#e8e7fe" d="M 417.5,389.5 C 418.465,390.721 418.298,392.054 417,393.5C 413.715,398.454 410.048,403.12 406,407.5C 405.333,406.833 405.333,406.167 406,405.5C 410.088,400.314 413.921,394.98 417.5,389.5 Z"/></g>
<g><path style="opacity:1" fill="#eae9fe" d="M 386.5,407.5 C 388.97,408.36 389.137,409.694 387,411.5C 386.51,410.207 386.343,408.873 386.5,407.5 Z"/></g>
<g><path style="opacity:1" fill="#dad8fd" d="M 98.5,411.5 C 99.9778,411.238 101.311,411.571 102.5,412.5C 101.833,412.833 101.167,413.167 100.5,413.5C 99.2867,413.253 98.62,412.586 98.5,411.5 Z"/></g>
<g><path style="opacity:1" fill="#f0effe" d="M 399.5,417.5 C 391.475,423.061 383.142,427.894 374.5,432C 383.576,424.713 392.743,417.546 402,410.5C 402.007,413.042 401.174,415.376 399.5,417.5 Z"/></g>
<g><path style="opacity:1" fill="#f0effe" d="M 379.5,414.5 C 380.239,414.369 380.906,414.536 381.5,415C 380.81,417.696 379.31,419.863 377,421.5C 376.333,420.167 376.333,418.833 377,417.5C 378.045,416.627 378.878,415.627 379.5,414.5 Z"/></g>
<g><path style="opacity:1" fill="#eae9fe" d="M 105.5,417.5 C 107.827,417.247 109.827,417.914 111.5,419.5C 108.707,420.972 106.707,420.306 105.5,417.5 Z"/></g>
<g><path style="opacity:1" fill="#f6f6fe" d="M 224.5,469.5 C 230.167,468.833 235.833,468.167 241.5,467.5C 281.49,463.948 319.49,453.281 355.5,435.5C 356.696,435.846 356.696,436.346 355.5,437C 351.5,439.667 347.5,442.333 343.5,445C 306.164,464.274 266.497,472.44 224.5,469.5 Z"/></g>
<g><path style="opacity:1" fill="#f2f1fe" d="M 344.5,454.5 C 338.535,457.818 332.535,461.151 326.5,464.5C 326.44,463.957 326.107,463.624 325.5,463.5C 316.296,466.134 306.963,468.134 297.5,469.5C 296.508,469.672 295.842,469.338 295.5,468.5C 304.895,465.646 314.228,462.479 323.5,459C 338.978,451.591 354.311,444.258 369.5,437C 361.1,442.856 352.767,448.689 344.5,454.5 Z"/></g>
<g><path style="opacity:1" fill="#817bf9" d="M 326.5,464.5 C 312.222,470.783 297.222,474.116 281.5,474.5C 286.745,472.523 292.078,470.856 297.5,469.5C 306.963,468.134 316.296,466.134 325.5,463.5C 326.107,463.624 326.44,463.957 326.5,464.5 Z"/></g>
<g><path style="opacity:1" fill="#dad9fd" d="M 199.5,465.5 C 213.421,467.199 227.421,467.865 241.5,467.5C 235.833,468.167 230.167,468.833 224.5,469.5C 214.332,468.729 204.332,467.729 194.5,466.5C 196.415,466.784 198.081,466.451 199.5,465.5 Z"/></g>
<g><path style="opacity:1" fill="#cac7fc" d="M 295.5,468.5 C 295.842,469.338 296.508,469.672 297.5,469.5C 292.078,470.856 286.745,472.523 281.5,474.5C 280.749,475.573 279.749,475.74 278.5,475C 279.167,474.667 279.833,474.333 280.5,474C 279.207,473.51 277.873,473.343 276.5,473.5C 282.766,472.016 289.099,470.349 295.5,468.5 Z"/></g>
<g><path style="opacity:1" fill="#8580f9" d="M 179.5,473.5 C 183.588,473.218 184.088,473.885 181,475.5C 179.97,475.164 179.47,474.497 179.5,473.5 Z"/></g>
</svg>
