<?xml version="1.0" encoding="UTF-8"?>
<!DOCTYPE svg PUBLIC "-//W3C//DTD SVG 1.1//EN" "http://www.w3.org/Graphics/SVG/1.1/DTD/svg11.dtd">
<svg xmlns="http://www.w3.org/2000/svg" version="1.1" width="2200px" height="1467px" style="shape-rendering:geometricPrecision; text-rendering:geometricPrecision; image-rendering:optimizeQuality; fill-rule:evenodd; clip-rule:evenodd" xmlns:xlink="http://www.w3.org/1999/xlink">
<g><path style="opacity:0.909" fill="#dd0c16" d="M 566.5,507.5 C 569.118,509.531 571.951,510.198 575,509.5C 575.308,510.308 575.808,510.975 576.5,511.5C 579.25,511.441 582.084,510.775 585,509.5C 586.101,511.394 587.434,512.061 589,511.5C 591.667,510.833 594.333,510.167 597,509.5C 598.848,512.478 600.848,512.812 603,510.5C 605.494,512.901 607.827,512.901 610,510.5C 611.333,511.167 612.667,511.833 614,512.5C 620.211,512.77 626.545,512.437 633,511.5C 633.667,512.167 634.333,512.833 635,513.5C 641.201,512.247 647.368,512.247 653.5,513.5C 655.926,513.596 658.093,512.93 660,511.5C 660.667,512.167 661.333,512.833 662,513.5C 664.313,513.005 666.98,512.672 670,512.5C 671.833,512.667 673.667,512.833 675.5,513C 674.304,513.654 674.304,514.154 675.5,514.5C 676.519,513.313 677.686,512.313 679,511.5C 681.706,514.871 684.539,515.204 687.5,512.5C 688.75,512.577 689.583,513.244 690,514.5C 690.677,512.311 691.844,511.978 693.5,513.5C 695.901,510.587 697.234,510.921 697.5,514.5C 700.569,513.561 703.402,513.561 706,514.5C 706.95,513.978 707.784,513.311 708.5,512.5C 709.315,514.276 710.482,514.943 712,514.5C 714.045,512.645 716.379,511.311 719,510.5C 720.333,511.167 721.333,512.167 722,513.5C 722.535,511.729 723.369,511.396 724.5,512.5C 723.544,514.075 722.877,515.742 722.5,517.5C 724.449,516.816 726.115,515.649 727.5,514C 738.017,514.111 748.351,513.278 758.5,511.5C 759.696,511.846 759.696,512.346 758.5,513C 760,513.167 761.5,513.333 763,513.5C 771.214,513.409 779.047,513.075 786.5,512.5C 788.802,513.86 790.468,513.193 791.5,510.5C 792.696,510.846 792.696,511.346 791.5,512C 792.094,512.464 792.761,512.631 793.5,512.5C 793.833,513.833 794.167,513.833 794.5,512.5C 799.844,512.666 805.177,512.499 810.5,512C 809.376,511.751 808.376,511.251 807.5,510.5C 808,510.167 808.5,509.833 809,509.5C 812.128,510.204 815.294,510.704 818.5,511C 816.5,511.333 814.5,511.667 812.5,512C 815.167,512.667 817.833,512.667 820.5,512C 819.396,510.869 819.729,510.035 821.5,509.5C 825.386,510.588 825.386,511.421 821.5,512C 824.833,512.667 828.167,512.667 831.5,512C 831.167,511.667 830.833,511.333 830.5,511C 833.462,509.436 836.462,509.269 839.5,510.5C 840.216,509.689 841.05,509.022 842,508.5C 844.983,509.707 847.983,509.707 851,508.5C 854.108,509.331 853.941,510.164 850.5,511C 852.556,511.311 854.556,511.811 856.5,512.5C 857.842,511.098 858.676,511.431 859,513.5C 859.889,512.112 860.389,512.278 860.5,514C 860.095,514.945 859.428,515.612 858.5,516C 845.823,516.1 833.156,515.6 820.5,514.5C 816.882,514.404 813.549,515.238 810.5,517C 815.146,518.611 819.813,518.778 824.5,517.5C 829.493,518.749 834.326,520.415 839,522.5C 845,522.5 851,522.5 857,522.5C 857.519,521.484 858.353,520.818 859.5,520.5C 861.155,522.536 863.822,524.036 867.5,525C 869.377,525.576 871.211,525.409 873,524.5C 876.527,525.924 880.027,527.424 883.5,529C 825.33,528.91 767.33,528.743 709.5,528.5C 652.421,530.832 595.255,532.166 538,532.5C 457.843,530.707 377.676,529.541 297.5,529C 281.485,528.192 265.485,527.359 249.5,526.5C 251.424,556.133 252.424,585.8 252.5,615.5C 250.428,690.826 250.094,766.159 251.5,841.5C 250.574,869.838 249.574,898.171 248.5,926.5C 248.551,929.223 248.884,931.89 249.5,934.5C 254.467,935.329 259.467,935.829 264.5,936C 285.667,936.167 306.833,936.333 328,936.5C 471.335,935.25 614.668,935.25 758,936.5C 933.306,935.031 1108.47,934.198 1283.5,934C 1281.17,935.5 1278.83,937 1276.5,938.5C 1276.71,939.086 1277.04,939.586 1277.5,940C 1275.71,944.41 1273.04,948.243 1269.5,951.5C 1269.94,952.506 1270.6,952.506 1271.5,951.5C 1272.94,956.238 1274.94,956.572 1277.5,952.5C 1278.94,953.304 1280.44,953.971 1282,954.5C 1287.23,953.648 1292.07,952.481 1296.5,951C 1296.04,950.586 1295.71,950.086 1295.5,949.5C 1296.83,948.833 1298.17,948.167 1299.5,947.5C 1298.37,945.471 1298.87,945.137 1301,946.5C 1302.02,944.731 1302.19,943.064 1301.5,941.5C 1302.73,940.719 1304.06,940.219 1305.5,940C 1305.28,938.201 1304.95,936.368 1304.5,934.5C 1306.33,934.167 1308.17,933.833 1310,933.5C 1323.49,934.228 1336.99,934.728 1350.5,935C 1345.6,936.96 1340.93,938.627 1336.5,940C 1333.23,943.097 1332.56,946.43 1334.5,950C 1334.17,950.5 1333.83,951 1333.5,951.5C 1332.39,950.41 1331.39,950.41 1330.5,951.5C 1331.76,952.382 1332.93,953.382 1334,954.5C 1336.77,950.453 1338.27,951.12 1338.5,956.5C 1338.29,957.086 1337.96,957.586 1337.5,958C 1338.9,959.977 1339.9,962.143 1340.5,964.5C 1340.18,965.647 1339.52,966.481 1338.5,967C 1339.04,969.109 1340.04,969.609 1341.5,968.5C 1342.67,968.919 1343.67,969.585 1344.5,970.5C 1342.34,970.838 1340.01,970.838 1337.5,970.5C 1337.36,972.262 1337.69,973.929 1338.5,975.5C 1338.17,975.833 1337.83,976.167 1337.5,976.5C 1336.74,975.189 1335.74,974.689 1334.5,975C 1332.87,978.427 1330.2,980.927 1326.5,982.5C 1321.57,981.98 1316.4,981.314 1311,980.5C 1305.92,981.637 1300.75,981.804 1295.5,981C 1295.04,980.586 1294.71,980.086 1294.5,979.5C 1296.39,976.779 1296.56,974.113 1295,971.5C 1293.11,975.545 1290.11,976.211 1286,973.5C 1282.55,977.05 1279.22,979.717 1276,981.5C 1276.26,980.049 1276.1,978.716 1275.5,977.5C 1273.17,978.683 1271,980.017 1269,981.5C 1268.17,981.167 1267.33,980.833 1266.5,980.5C 1265.9,979.365 1265.56,978.365 1265.5,977.5C 1263.3,979.056 1263.3,980.223 1265.5,981C 1261.74,982.071 1258.74,981.071 1256.5,978C 1257.43,976.392 1256.77,975.559 1254.5,975.5C 1253.56,975.608 1252.72,975.941 1252,976.5C 1252,977.833 1252,979.167 1252,980.5C 1251.67,980.167 1251.33,979.833 1251,979.5C 1248.6,982.054 1246.27,982.054 1244,979.5C 1240.94,980.783 1237.6,981.45 1234,981.5C 1230.83,981.333 1227.67,981.167 1224.5,981C 1225.26,980.056 1226.26,979.556 1227.5,979.5C 1228.86,980.043 1230.2,980.21 1231.5,980C 1231.04,979.586 1230.71,979.086 1230.5,978.5C 1231.83,977.5 1233.17,976.5 1234.5,975.5C 1233.93,973.941 1233.26,972.441 1232.5,971C 1229.58,968.079 1226.25,964.745 1222.5,961C 1220.02,959.674 1217.52,958.507 1215,957.5C 1213.08,958.492 1211.24,959.659 1209.5,961C 1210.02,961.561 1210.36,962.228 1210.5,963C 1209.88,965.812 1208.88,968.812 1207.5,972C 1209.01,974.454 1208.35,976.121 1205.5,977C 1206.83,978.333 1208.17,979.667 1209.5,981C 1172.17,981.552 1134.83,982.052 1097.5,982.5C 1083.44,982.491 1069.61,981.824 1056,980.5C 1024.05,982.297 991.886,983.297 959.5,983.5C 947.302,983.085 934.968,982.918 922.5,983C 922,982.5 921.5,982 921,981.5C 919.302,982.733 917.302,983.4 915,983.5C 904.98,983.307 894.814,983.307 884.5,983.5C 884.5,982.5 884.5,981.5 884.5,980.5C 882.801,980.34 881.134,980.506 879.5,981C 878.167,981.667 878.167,982.333 879.5,983C 869.969,982.972 860.636,983.139 851.5,983.5C 850.5,983.167 849.5,982.833 848.5,982.5C 850.162,981.673 851.495,980.507 852.5,979C 854.5,978.667 856.5,978.333 858.5,978C 859.863,975.871 859.529,975.371 857.5,976.5C 855.41,973.991 853.577,974.325 852,977.5C 850.615,976.449 849.615,975.116 849,973.5C 847.871,975.141 846.371,976.141 844.5,976.5C 846.034,974.658 845.7,973.325 843.5,972.5C 841.205,974.48 838.539,975.647 835.5,976C 836.76,977.113 837.927,977.28 839,976.5C 839.311,978.556 839.811,980.556 840.5,982.5C 834,982.833 827.5,983.167 821,983.5C 792.095,983.39 762.928,983.39 733.5,983.5C 727.5,983.333 721.5,983.167 715.5,983C 713.989,981.385 712.656,981.385 711.5,983C 562.832,983.584 414.166,983.918 265.5,984C 252.111,983.728 238.777,982.728 225.5,981C 219.764,980.53 214.097,978.864 208.5,976C 204.203,969.546 202.036,962.38 202,954.5C 201.833,943.167 201.667,931.833 201.5,920.5C 202.127,888.219 202.96,856.219 204,824.5C 204.244,829.4 205.411,834.066 207.5,838.5C 207.167,839.167 206.833,839.833 206.5,840.5C 207.833,846.833 209.167,853.167 210.5,859.5C 209.681,861.916 210.348,862.082 212.5,860C 210.938,853.91 209.604,847.743 208.5,841.5C 209.015,838.843 208.515,836.177 207,833.5C 206.231,830.901 206.398,828.401 207.5,826C 205.355,825.257 205.189,824.424 207,823.5C 209.9,825.557 210.066,827.724 207.5,830C 209.482,832.081 210.816,834.581 211.5,837.5C 210.897,839.452 211.23,841.452 212.5,843.5C 211.808,845.335 212.142,847.168 213.5,849C 213.167,849.333 212.833,849.667 212.5,850C 213.264,852.069 213.764,854.236 214,856.5C 214.893,855.289 215.726,855.289 216.5,856.5C 215.689,857.216 215.022,858.05 214.5,859C 217.474,876.033 220.307,892.866 223,909.5C 223.635,907.382 224.469,905.382 225.5,903.5C 225.333,902.833 225.167,902.167 225,901.5C 224.346,902.696 223.846,902.696 223.5,901.5C 224.021,899.139 224.354,896.806 224.5,894.5C 222.23,893.407 221.897,891.907 223.5,890C 222.971,888.441 222.304,886.941 221.5,885.5C 223.003,884.948 224.669,884.948 226.5,885.5C 226.312,887.103 226.812,888.437 228,889.5C 228.19,883.584 228.69,877.751 229.5,872C 228.222,868.737 228.556,865.237 230.5,861.5C 229.811,859.556 229.311,857.556 229,855.5C 227.131,860.306 226.131,865.306 226,870.5C 225.586,870.957 225.086,871.291 224.5,871.5C 223.819,867.457 223.819,863.29 224.5,859C 223.807,856.448 222.473,854.281 220.5,852.5C 221.311,851.784 221.978,850.95 222.5,850C 221.409,847.182 221.409,844.349 222.5,841.5C 219.282,841.349 218.949,840.516 221.5,839C 220.833,838.667 220.167,838.333 219.5,838C 220.357,837.311 221.023,836.478 221.5,835.5C 221.417,830.628 220.751,825.628 219.5,820.5C 218.64,818.728 217.307,817.395 215.5,816.5C 220.329,814.25 220.496,811.917 216,809.5C 215.577,810.956 214.744,811.456 213.5,811C 212.74,809.559 212.074,808.059 211.5,806.5C 212.071,802.632 212.405,798.798 212.5,795C 209.225,792.939 208.892,790.606 211.5,788C 210.949,786.602 210.616,785.268 210.5,784C 213.943,783.779 214.276,782.779 211.5,781C 213.991,780.374 213.991,779.541 211.5,778.5C 215.102,776.678 215.102,775.678 211.5,775.5C 211.271,773.567 210.438,771.9 209,770.5C 208.346,771.696 207.846,771.696 207.5,770.5C 207.815,768.517 208.815,767.184 210.5,766.5C 209.723,761.916 209.223,757.25 209,752.5C 207.539,753.883 206.706,753.549 206.5,751.5C 207.791,751.737 208.791,751.404 209.5,750.5C 210.167,750.5 210.5,750.167 210.5,749.5C 211.787,750.871 212.453,752.705 212.5,755C 212.087,758.196 211.92,761.362 212,764.5C 212.333,763.833 212.667,763.167 213,762.5C 213.333,756.167 213.667,749.833 214,743.5C 214.333,743.833 214.667,744.167 215,744.5C 215.752,741.106 215.585,737.773 214.5,734.5C 215.04,733.252 215.707,732.085 216.5,731C 215.694,726.618 215.361,722.118 215.5,717.5C 216.376,716.749 217.376,716.249 218.5,716C 215.332,715.418 214.999,714.418 217.5,713C 216.299,712.097 215.465,710.931 215,709.5C 213.605,710.815 212.605,710.481 212,708.5C 211.751,709.624 211.251,710.624 210.5,711.5C 209.511,709.412 209.844,707.412 211.5,705.5C 210.603,705.331 209.603,704.998 208.5,704.5C 208.627,701.628 209.294,698.628 210.5,695.5C 210.167,694.833 209.833,694.167 209.5,693.5C 210.716,692.904 212.049,692.737 213.5,693C 212.169,691.341 210.835,689.674 209.5,688C 209.905,687.055 210.572,686.388 211.5,686C 209.864,684.566 208.864,682.733 208.5,680.5C 208.887,679.28 209.72,678.613 211,678.5C 214.107,682.708 216.274,682.208 217.5,677C 217.321,672.651 217.321,668.151 217.5,663.5C 218.5,663.5 219.5,663.5 220.5,663.5C 220.286,661.856 220.62,660.356 221.5,659C 220.062,658.781 218.729,658.281 217.5,657.5C 218.035,655.729 218.869,655.396 220,656.5C 220.662,655.016 221.496,653.683 222.5,652.5C 224.927,653.279 224.927,654.446 222.5,656C 223,656.5 223.5,657 224,657.5C 225.269,656.095 225.769,654.429 225.5,652.5C 226.552,652.649 227.552,652.483 228.5,652C 226.867,651.52 225.534,650.687 224.5,649.5C 224.167,648.5 223.5,647.833 222.5,647.5C 222.414,646.504 222.748,645.671 223.5,645C 222.692,644.692 222.025,644.192 221.5,643.5C 222.274,642.289 223.107,642.289 224,643.5C 224.905,640.768 224.238,640.101 222,641.5C 219.057,640.76 218.891,639.76 221.5,638.5C 223.003,639.052 224.669,639.052 226.5,638.5C 226.336,632.833 226.003,632.5 225.5,637.5C 222.478,637.931 220.145,636.931 218.5,634.5C 217.164,632.625 217.664,631.292 220,630.5C 220.692,629.563 220.525,628.897 219.5,628.5C 219.5,627.833 219.167,627.5 218.5,627.5C 218.421,626.07 218.754,624.736 219.5,623.5C 217.774,621.772 216.441,619.772 215.5,617.5C 216.729,616.719 218.062,616.219 219.5,616C 216.456,615.641 216.122,614.974 218.5,614C 216.801,611.773 215.468,609.273 214.5,606.5C 215.167,605.833 215.833,605.167 216.5,604.5C 216.062,603.494 215.396,603.494 214.5,604.5C 213.548,602.955 213.215,601.288 213.5,599.5C 217.311,599.404 217.311,598.738 213.5,597.5C 214.326,596.549 214.492,595.549 214,594.5C 213.282,595.451 212.449,595.617 211.5,595C 213.491,592.004 213.491,589.171 211.5,586.5C 212.902,585.158 212.569,584.324 210.5,584C 210.421,582.093 210.754,580.093 211.5,578C 209.02,574.878 209.02,571.878 211.5,569C 210.692,568.692 210.025,568.192 209.5,567.5C 210.529,567.704 211.529,567.204 212.5,566C 208.068,565.377 207.735,564.377 211.5,563C 210.167,562.667 208.833,562.333 207.5,562C 209.273,558.616 208.273,556.449 204.5,555.5C 205.582,555.251 206.915,555.085 208.5,555C 206.356,554.208 205.023,552.708 204.5,550.5C 202.674,548.545 202.174,546.212 203,543.5C 207.705,542.118 207.539,541.451 202.5,541.5C 201.733,525.516 201.733,509.516 202.5,493.5C 203.172,494.267 204.005,494.934 205,495.5C 205.273,493.899 205.773,492.399 206.5,491C 204.637,489.582 204.137,487.749 205,485.5C 209.75,483.028 214.75,481.361 220,480.5C 220.424,484.19 221.258,484.357 222.5,481C 223.5,480.667 224.5,480.333 225.5,480C 327.175,480.646 428.841,482.312 530.5,485C 528.167,485.333 525.833,485.667 523.5,486C 524.833,486.333 526.167,486.667 527.5,487C 538.084,487.483 548.584,488.317 559,489.5C 560.545,489.634 562.212,489.3 564,488.5C 564.546,489.289 565.213,490.289 566,491.5C 569.243,491.67 572.576,491.337 576,490.5C 579.272,491.611 582.439,492.944 585.5,494.5C 588.399,492.684 591.399,492.351 594.5,493.5C 600.791,492.201 607.124,491.201 613.5,490.5C 614.192,491.025 614.692,491.692 615,492.5C 616.194,491.57 617.527,490.903 619,490.5C 621.496,491.006 623.83,491.006 626,490.5C 626.388,489.572 627.055,488.905 628,488.5C 632.103,489.987 636.27,490.821 640.5,491C 639.376,490.751 638.376,490.251 637.5,489.5C 637.667,489.167 637.833,488.833 638,488.5C 642.214,489.937 646.881,490.937 652,491.5C 660.545,491.314 668.878,490.98 677,490.5C 677.333,491.5 677.667,492.5 678,493.5C 678.632,491.469 679.799,489.802 681.5,488.5C 681.998,489.603 682.331,490.603 682.5,491.5C 683.5,490.167 684.5,490.167 685.5,491.5C 687.566,488.702 689.066,489.035 690,492.5C 690.991,491.061 692.324,490.061 694,489.5C 694,490.833 694,492.167 694,493.5C 695.067,492.809 696.234,492.309 697.5,492C 696.289,491.107 696.289,490.274 697.5,489.5C 699.135,490.33 700.802,490.497 702.5,490C 700.606,491.079 700.273,492.413 701.5,494C 700.833,494.333 700.167,494.667 699.5,495C 700.337,496.011 700.67,497.178 700.5,498.5C 701.675,498.281 702.675,498.614 703.5,499.5C 695.807,500.197 688.14,500.864 680.5,501.5C 671.725,501.707 662.891,501.374 654,500.5C 647.864,501.186 641.698,501.853 635.5,502.5C 613.908,501.316 592.075,501.316 570,502.5C 566.164,504.357 562.164,505.691 558,506.5C 553.954,505.736 550.121,505.736 546.5,506.5C 546.5,507.5 546.5,508.5 546.5,509.5C 553.014,509.4 559.348,509.4 565.5,509.5C 566.298,509.043 566.631,508.376 566.5,507.5 Z M 223.5,482.5 C 224.89,485.853 226.224,489.353 227.5,493C 225.133,493.018 223.133,492.018 221.5,490C 222.573,488.75 222.573,487.416 221.5,486C 222.429,484.923 223.096,483.756 223.5,482.5 Z M 576.5,494.5 C 579.001,494.511 579.168,495.178 577,496.5C 576.536,495.906 576.369,495.239 576.5,494.5 Z M 443.5,502.5 C 443.735,501.903 444.235,501.57 445,501.5C 447.795,502.185 450.628,502.685 453.5,503C 456.858,505.564 460.525,507.564 464.5,509C 463.5,509.833 462.5,510.667 461.5,511.5C 462.506,512.396 462.506,513.062 461.5,513.5C 458.017,512.033 454.017,511.2 449.5,511C 447.051,510.045 445.051,508.545 443.5,506.5C 442.218,505.042 442.218,503.708 443.5,502.5 Z M 508.5,506.5 C 507.391,506.557 506.391,506.89 505.5,507.5C 499.932,506.232 494.265,506.232 488.5,507.5C 488.089,508.262 487.923,509.262 488,510.5C 487.25,509.874 486.416,509.374 485.5,509C 487.255,506.249 489.589,505.416 492.5,506.5C 496.208,505.527 499.708,504.86 503,504.5C 504.948,505.109 506.782,505.776 508.5,506.5 Z M 542.5,505.5 C 543.263,506.268 544.263,506.768 545.5,507C 541.148,507.419 540.815,508.086 544.5,509C 538.667,510.887 532.833,510.72 527,508.5C 525.274,510.098 524.441,509.765 524.5,507.5C 519.834,507.184 515.334,507.517 511,508.5C 509.699,508.361 508.866,507.695 508.5,506.5C 515.44,504.579 522.274,504.579 529,506.5C 529.95,505.978 530.784,505.311 531.5,504.5C 534.432,503.938 537.265,504.604 540,506.5C 540.671,505.748 541.504,505.414 542.5,505.5 Z M 497.5,509.5 C 497.5,510.5 497.5,511.5 497.5,512.5C 496.448,512.649 495.448,512.483 494.5,512C 495.833,511.333 495.833,510.667 494.5,510C 495.448,509.517 496.448,509.351 497.5,509.5 Z M 716.5,512.5 C 717.675,512.281 718.675,512.614 719.5,513.5C 717.948,514.798 716.948,514.465 716.5,512.5 Z M 722.5,517.5 C 721.878,518.627 721.045,519.627 720,520.5C 718.59,519.213 717.09,518.046 715.5,517C 717.721,516.445 720.054,516.612 722.5,517.5 Z M 709.5,523.5 C 710.189,522.226 711.023,522.226 712,523.5C 713.487,522.747 713.654,521.914 712.5,521C 715.009,518.773 717.009,519.106 718.5,522C 716.184,525.981 713.184,526.481 709.5,523.5 Z M 709.5,523.5 C 709.728,525.355 709.061,526.188 707.5,526C 708.066,525.005 708.733,524.172 709.5,523.5 Z M 709.5,528.5 C 710.314,526.727 711.648,526.227 713.5,527C 712.255,527.791 710.922,528.291 709.5,528.5 Z M 204.5,550.5 C 205.209,549.596 206.209,549.263 207.5,549.5C 207.649,550.552 207.483,551.552 207,552.5C 206.583,551.244 205.75,550.577 204.5,550.5 Z M 222.5,612.5 C 223.622,614.288 223.789,616.288 223,618.5C 221.668,616.45 221.502,614.45 222.5,612.5 Z M 223.5,620.5 C 225.739,622.001 225.739,623.334 223.5,624.5C 223.094,623.443 223.094,622.109 223.5,620.5 Z M 214.5,697.5 C 216.978,699.483 217.145,701.816 215,704.5C 215.522,702.12 215.355,699.787 214.5,697.5 Z M 215.5,748.5 C 217.76,749.238 217.927,750.238 216,751.5C 215.517,750.552 215.351,749.552 215.5,748.5 Z M 210.5,766.5 C 212.337,766.639 212.67,767.306 211.5,768.5C 210.702,768.043 210.369,767.376 210.5,766.5 Z M 230.5,788.5 C 231.201,791.563 231.868,794.73 232.5,798C 231.484,798.519 230.818,799.353 230.5,800.5C 231.804,805.341 231.804,810.174 230.5,815C 230.905,815.945 231.572,816.612 232.5,817C 230.91,821.241 229.91,825.408 229.5,829.5C 228.848,833.931 229.515,838.265 231.5,842.5C 230.112,846.09 229.279,849.757 229,853.5C 228.691,852.234 228.191,851.067 227.5,850C 227.654,846.584 227.987,843.251 228.5,840C 227.833,837.667 227.167,835.333 226.5,833C 227.833,829.667 227.833,826.333 226.5,823C 228.891,820.4 228.891,817.733 226.5,815C 228.054,812.776 229.054,810.276 229.5,807.5C 228.96,806.252 228.293,805.085 227.5,804C 229.11,798.752 230.11,793.585 230.5,788.5 Z M 216.5,793.5 C 216.286,795.144 216.62,796.644 217.5,798C 216.906,798.464 216.239,798.631 215.5,798.5C 215.423,797.25 214.756,796.417 213.5,796C 214.078,794.583 215.078,793.75 216.5,793.5 Z M 213.5,873.5 C 212.766,872.122 212.099,870.622 211.5,869C 211.833,868.833 212.167,868.667 212.5,868.5C 213.452,870.045 213.785,871.712 213.5,873.5 Z M 213.5,873.5 C 216.042,882.892 217.708,892.559 218.5,902.5C 216.346,896.295 214.679,890.128 213.5,884C 213.746,880.651 213.746,877.151 213.5,873.5 Z M 219.5,908.5 C 221.745,909.292 222.078,910.625 220.5,912.5C 219.566,911.432 219.232,910.099 219.5,908.5 Z M 221.5,918.5 C 222.573,919.251 222.74,920.251 222,921.5C 220.272,920.648 220.105,919.648 221.5,918.5 Z M 222.5,923.5 C 223.224,925.218 223.891,927.052 224.5,929C 224,929.5 223.5,930 223,930.5C 221.482,928.187 221.316,925.854 222.5,923.5 Z M 891.5,938.5 C 895.692,939.985 900.026,941.319 904.5,942.5C 903.497,945.035 904.163,947.202 906.5,949C 905.853,950.609 905.02,952.109 904,953.5C 903.692,952.692 903.192,952.025 902.5,951.5C 894.688,955.048 888.188,953.381 883,946.5C 882.219,945.056 882.386,943.723 883.5,942.5C 886.007,940.614 888.673,939.281 891.5,938.5 Z M 872.5,941.5 C 874.857,941.337 877.19,941.503 879.5,942C 880.022,942.561 880.355,943.228 880.5,944C 878.296,946.856 875.463,949.023 872,950.5C 868.525,947.087 868.692,944.087 872.5,941.5 Z M 1310.5,943.5 C 1310,945.085 1309,945.585 1307.5,945C 1308.24,943.961 1309.24,943.461 1310.5,943.5 Z M 1197.5,951.5 C 1198.55,951.351 1199.55,951.517 1200.5,952C 1199.37,953.016 1199.7,953.683 1201.5,954C 1198.27,954.808 1195.27,955.808 1192.5,957C 1194.2,955.161 1195.87,953.327 1197.5,951.5 Z M 222.5,960.5 C 221.193,962.223 221.193,964.057 222.5,966C 221.874,966.75 221.374,967.584 221,968.5C 220.522,963.132 220.855,957.799 222,952.5C 222.497,955.146 222.664,957.813 222.5,960.5 Z M 1263.5,963.5 C 1264.04,961.883 1264.37,960.216 1264.5,958.5C 1266.38,958.288 1267.72,957.288 1268.5,955.5C 1269.26,956.628 1269.93,957.795 1270.5,959C 1268.27,960.75 1265.93,962.25 1263.5,963.5 Z M 1250.5,961.5 C 1250.41,958.402 1250.91,958.068 1252,960.5C 1252.65,959.304 1253.15,959.304 1253.5,960.5C 1252.68,961.386 1251.68,961.719 1250.5,961.5 Z M 1158.5,978.5 C 1158.7,976.61 1158.04,975.11 1156.5,974C 1158.17,971 1160.5,968.667 1163.5,967C 1163.17,966.667 1162.83,966.333 1162.5,966C 1164.03,965.077 1165.7,964.577 1167.5,964.5C 1170.12,964.912 1172.79,965.245 1175.5,965.5C 1189.57,956.266 1199.24,959.432 1204.5,975C 1196.52,979.909 1188.52,980.076 1180.5,975.5C 1175.31,979.793 1169.31,980.459 1162.5,977.5C 1161.15,977.846 1159.82,978.179 1158.5,978.5 Z M 837.5,963.5 C 838.386,962.224 839.386,962.224 840.5,963.5C 839.575,964.562 838.575,964.562 837.5,963.5 Z M 880.5,963.5 C 881.713,964.497 881.546,965.497 880,966.5C 879.53,965.423 879.697,964.423 880.5,963.5 Z M 922.5,964.5 C 922.933,967.259 924.6,968.592 927.5,968.5C 925.741,972.36 924.241,976.36 923,980.5C 922.369,979.128 921.702,977.795 921,976.5C 920.055,976.905 919.388,977.572 919,978.5C 918.333,976.833 918.333,975.167 919,973.5C 920.664,970.673 921.83,967.673 922.5,964.5 Z M 765.5,966.5 C 766.833,966.5 768.167,966.5 769.5,966.5C 769.5,967.5 769.5,968.5 769.5,969.5C 768.167,969.5 766.833,969.5 765.5,969.5C 765.5,968.5 765.5,967.5 765.5,966.5 Z M 882.5,966.5 C 883.376,966.369 884.043,966.702 884.5,967.5C 883.095,970.852 881.761,971.018 880.5,968C 881.416,967.722 882.082,967.222 882.5,966.5 Z M 884.5,970.5 C 888.581,971.977 888.414,973.311 884,974.5C 883.5,974.167 883,973.833 882.5,973.5C 883.193,972.482 883.859,971.482 884.5,970.5 Z M 955.5,971.5 C 955.56,970.957 955.893,970.624 956.5,970.5C 958.66,972.093 958.827,973.76 957,975.5C 956.139,974.252 955.639,972.919 955.5,971.5 Z M 726.5,972.5 C 726.56,971.957 726.893,971.624 727.5,971.5C 730.199,973.322 730.032,974.655 727,975.5C 727.109,974.231 726.942,973.231 726.5,972.5 Z M 928.5,971.5 C 931.218,973.088 931.052,974.421 928,975.5C 927.5,975.333 927,975.167 926.5,975C 927.305,973.887 927.972,972.721 928.5,971.5 Z M 1282.5,973.5 C 1280.89,977.525 1278.56,978.191 1275.5,975.5C 1276.07,974.027 1276.91,972.693 1278,971.5C 1279.05,973.107 1280.55,973.773 1282.5,973.5 Z M 937.5,972.5 C 938.043,972.56 938.376,972.893 938.5,973.5C 937.833,974.833 937.167,976.167 936.5,977.5C 935.635,978.583 934.635,978.749 933.5,978C 934.412,975.795 935.745,973.962 937.5,972.5 Z M 1274.5,975.5 C 1272.92,974.998 1272.42,973.998 1273,972.5C 1274.04,973.244 1274.54,974.244 1274.5,975.5 Z M 1322.5,972.5 C 1323.29,972.783 1323.96,973.283 1324.5,974C 1323.18,974.528 1322.52,974.028 1322.5,972.5 Z M 974.5,973.5 C 975.289,973.783 975.956,974.283 976.5,975C 975.184,975.528 974.517,975.028 974.5,973.5 Z M 1270.5,976.5 C 1269.22,975.614 1269.22,974.614 1270.5,973.5C 1271.09,974.233 1271.09,975.233 1270.5,976.5 Z M 949.5,975.5 C 948.614,976.776 947.614,976.776 946.5,975.5C 947.233,974.913 948.233,974.913 949.5,975.5 Z M 1242.5,975.5 C 1243.08,974.227 1243.74,974.227 1244.5,975.5C 1244.03,976.463 1243.36,976.463 1242.5,975.5 Z M 824.5,977.5 C 825.077,976.227 825.743,976.227 826.5,977.5C 826.03,978.463 825.363,978.463 824.5,977.5 Z M 1015.5,977.5 C 1020.91,977.99 1021.41,979.324 1017,981.5C 1015.81,980.437 1015.31,979.103 1015.5,977.5 Z"/></g>
<g><path style="opacity:0.929" fill="#dd0c16" d="M 1963.5,481.5 C 1964.95,480.06 1966.78,479.393 1969,479.5C 1975.5,480.808 1982,480.808 1988.5,479.5C 1990.87,479.842 1993.2,480.342 1995.5,481C 1996.19,482.067 1996.69,483.234 1997,484.5C 1998.41,494.13 1998.74,503.797 1998,513.5C 1995.89,514.035 1995.39,515.035 1996.5,516.5C 1994.62,517.197 1994.28,518.197 1995.5,519.5C 1993.97,522.807 1993.47,526.14 1994,529.5C 1993.67,529.167 1993.33,528.833 1993,528.5C 1992.29,531.536 1991.12,534.369 1989.5,537C 1990.58,539.19 1989.92,540.856 1987.5,542C 1988.36,542.689 1989.02,543.522 1989.5,544.5C 1989.16,547.036 1988.16,549.203 1986.5,551C 1989,552.784 1989,554.451 1986.5,556C 1987.71,557.113 1987.71,558.28 1986.5,559.5C 1987.17,559.833 1987.83,560.167 1988.5,560.5C 1987.89,562.709 1987.23,564.876 1986.5,567C 1987.73,568.587 1987.39,569.921 1985.5,571C 1988.17,572 1988.17,573 1985.5,574C 1988.67,574.582 1989,575.582 1986.5,577C 1987.29,578.085 1987.96,579.252 1988.5,580.5C 1987.73,581.711 1986.89,581.711 1986,580.5C 1985.88,582.437 1985.05,583.77 1983.5,584.5C 1983.17,583.167 1982.83,583.167 1982.5,584.5C 1981.85,585.091 1981.18,585.757 1980.5,586.5C 1979.91,581.722 1979.57,577.055 1979.5,572.5C 1978.23,571.913 1977.23,571.913 1976.5,572.5C 1976.78,575.443 1976.78,578.443 1976.5,581.5C 1978.26,584.001 1978.59,586.834 1977.5,590C 1977.74,595.681 1978.74,601.181 1980.5,606.5C 1980.36,613.69 1980.03,620.857 1979.5,628C 1981.48,628.605 1981.81,629.605 1980.5,631C 1981.05,632.845 1982.05,634.345 1983.5,635.5C 1984.5,632.833 1985.5,630.167 1986.5,627.5C 1987.13,629.567 1988.13,631.4 1989.5,633C 1988.83,633.333 1988.17,633.667 1987.5,634C 1988.91,634.368 1989.91,635.201 1990.5,636.5C 1989.29,637.995 1989.29,639.328 1990.5,640.5C 1991.3,641.423 1991.47,642.423 1991,643.5C 1989.44,643.088 1987.94,642.755 1986.5,642.5C 1986.39,643.117 1986.06,643.617 1985.5,644C 1987.06,644.318 1988.23,645.151 1989,646.5C 1991.17,643.723 1991.67,643.89 1990.5,647C 1991.74,648.875 1993.08,650.709 1994.5,652.5C 1992.74,655.212 1992.07,658.212 1992.5,661.5C 1991.17,661.833 1991.17,662.167 1992.5,662.5C 1992.5,663.167 1992.5,663.833 1992.5,664.5C 1990.23,663.875 1989.9,664.875 1991.5,667.5C 1990.62,668.251 1989.62,668.751 1988.5,669C 1990,669.833 1991.17,671 1992,672.5C 1992.38,671.944 1992.88,671.611 1993.5,671.5C 1993.86,673.471 1994.2,675.471 1994.5,677.5C 1993.62,678.251 1992.62,678.751 1991.5,679C 1996.26,680.466 1998.09,683.633 1997,688.5C 1996.5,689.667 1995.67,690.5 1994.5,691C 1995.42,691.278 1996.08,691.778 1996.5,692.5C 1995.9,692.735 1995.57,693.235 1995.5,694C 1998,696.891 1997.67,699.558 1994.5,702C 1996.06,704.955 1997.06,708.121 1997.5,711.5C 1997.6,715.074 1997.27,718.741 1996.5,722.5C 1997.17,723.167 1997.83,723.833 1998.5,724.5C 1998.12,731.144 1998.12,738.144 1998.5,745.5C 1995.53,745.746 1994.2,747.412 1994.5,750.5C 1995.82,750.33 1996.99,750.663 1998,751.5C 1998.62,816.348 1998.62,881.348 1998,946.5C 1997.51,955.89 1996.51,965.223 1995,974.5C 1994.27,978.142 1992.44,980.975 1989.5,983C 1976.05,984.13 1962.55,984.63 1949,984.5C 1791.5,984.188 1634,984.021 1476.5,984C 1471.83,983.667 1467.17,983.333 1462.5,983C 1463.31,982.692 1463.97,982.192 1464.5,981.5C 1462.37,976.005 1458.87,974.671 1454,977.5C 1452.01,976.846 1450.68,975.513 1450,973.5C 1446.56,975.668 1446.72,977.335 1450.5,978.5C 1451.19,979.774 1452.02,979.774 1453,978.5C 1453.49,979.793 1453.66,981.127 1453.5,982.5C 1451.25,983.677 1446.92,983.844 1440.5,983C 1439.5,981 1438.5,981 1437.5,983C 1432.51,983.499 1427.51,983.666 1422.5,983.5C 1422.51,980.452 1421.51,979.952 1419.5,982C 1398.17,982.667 1376.83,982.667 1355.5,982C 1357.35,979.429 1359.02,976.762 1360.5,974C 1366.1,971.489 1370.77,967.822 1374.5,963C 1373.29,960.766 1373.96,959.099 1376.5,958C 1375.57,957.612 1374.91,956.945 1374.5,956C 1375.88,953.141 1376.55,950.474 1376.5,948C 1375.5,947 1374.5,946 1373.5,945C 1374.64,944.259 1374.64,943.425 1373.5,942.5C 1372.5,941.833 1371.5,941.167 1370.5,940.5C 1370.71,939.914 1371.04,939.414 1371.5,939C 1370.26,937.846 1369.26,936.512 1368.5,935C 1442.5,935.591 1516.5,936.424 1590.5,937.5C 1710.5,935.726 1830.5,935.393 1950.5,936.5C 1950.5,863.5 1950.5,790.5 1950.5,717.5C 1959.93,716.035 1967.76,719.035 1974,726.5C 1975.53,726.056 1977.03,725.723 1978.5,725.5C 1976.26,724.868 1974.6,723.535 1973.5,721.5C 1972.81,722.025 1972.31,722.692 1972,723.5C 1971.46,721.865 1971.96,720.532 1973.5,719.5C 1972.41,718.391 1972.41,717.391 1973.5,716.5C 1975.81,717.497 1978.14,717.997 1980.5,718C 1978.11,716.691 1978.11,715.691 1980.5,715C 1976.57,714.916 1972.9,713.916 1969.5,712C 1970.17,711.333 1970.83,710.667 1971.5,710C 1968.06,710.051 1965.23,708.885 1963,706.5C 1962.67,707.167 1962.33,707.833 1962,708.5C 1958.1,707.865 1954.26,707.532 1950.5,707.5C 1950.5,647.5 1950.5,587.5 1950.5,527.5C 1941.88,528.662 1933.21,529.495 1924.5,530C 1873.16,530.278 1821.83,530.778 1770.5,531.5C 1705.01,529.699 1639.51,528.699 1574,528.5C 1401.33,529.091 1228.66,530.091 1056,531.5C 999.495,530.936 942.995,530.102 886.5,529C 887.453,527.045 888.787,525.378 890.5,524C 888.473,522.604 888.14,520.938 889.5,519C 888.793,516.457 887.46,514.291 885.5,512.5C 890.069,512.036 893.736,511.036 896.5,509.5C 898.437,511.326 900.437,511.493 902.5,510C 902.167,509.667 901.833,509.333 901.5,509C 902.448,508.517 903.448,508.351 904.5,508.5C 905.045,512.172 905.378,511.838 905.5,507.5C 906.675,507.281 907.675,507.614 908.5,508.5C 907.494,509.396 907.494,510.062 908.5,510.5C 911.225,508.022 913.892,508.022 916.5,510.5C 917.584,510.315 918.584,509.982 919.5,509.5C 929.462,510.801 940.462,510.801 952.5,509.5C 952.351,508.448 952.517,507.448 953,506.5C 953.745,507.99 954.912,508.99 956.5,509.5C 959.655,509.263 962.155,508.263 964,506.5C 964.833,506.667 965.667,506.833 966.5,507C 966.167,507.333 965.833,507.667 965.5,508C 966.416,508.374 967.25,508.874 968,509.5C 967.923,508.262 968.089,507.262 968.5,506.5C 970.684,505.892 972.684,506.559 974.5,508.5C 975.182,507.757 975.849,507.091 976.5,506.5C 977.167,507.833 977.833,507.833 978.5,506.5C 980.086,505.587 981.586,505.587 983,506.5C 983.464,505.906 983.631,505.239 983.5,504.5C 980.762,503.239 977.762,502.572 974.5,502.5C 973.167,501.833 973.167,501.167 974.5,500.5C 975.687,501.653 976.687,501.653 977.5,500.5C 978.496,500.586 979.329,500.252 980,499.5C 982.157,502.078 983.323,502.078 983.5,499.5C 987.31,499.391 991.143,499.724 995,500.5C 995.5,500 996,499.5 996.5,499C 984.789,498.771 973.122,498.604 961.5,498.5C 951.783,499.985 942.283,500.985 933,501.5C 929.366,500.567 925.699,499.567 922,498.5C 917.111,499.058 912.277,498.391 907.5,496.5C 902.521,497.783 897.521,497.783 892.5,496.5C 893.263,495.281 894.263,494.281 895.5,493.5C 894.167,492.5 892.833,491.5 891.5,490.5C 892.651,489.269 893.817,489.269 895,490.5C 895.834,487.828 896.668,485.161 897.5,482.5C 900.167,482.167 902.833,481.833 905.5,481.5C 954.495,482.324 1003.49,482.991 1052.5,483.5C 1142.17,482.69 1231.83,482.023 1321.5,481.5C 1346.12,481.535 1370.28,482.201 1394,483.5C 1395.76,483.056 1395.6,482.556 1393.5,482C 1439.17,481.495 1484.84,481.162 1530.5,481C 1529.5,481.333 1528.5,481.667 1527.5,482C 1511.3,482.61 1495.3,483.11 1479.5,483.5C 1483.18,484.652 1487.18,484.819 1491.5,484C 1492.33,484.833 1493.17,485.667 1494,486.5C 1495.58,487.013 1496.91,486.346 1498,484.5C 1499.65,486.141 1500.65,485.807 1501,483.5C 1506.34,485.839 1511.67,485.839 1517,483.5C 1518.6,483.93 1520.1,484.264 1521.5,484.5C 1524.01,483.887 1526.51,483.22 1529,482.5C 1529.33,483.167 1529.67,483.833 1530,484.5C 1534.54,482.695 1539.38,481.695 1544.5,481.5C 1545.04,485.172 1545.38,484.838 1545.5,480.5C 1547.1,480.232 1548.43,480.566 1549.5,481.5C 1548.83,481.5 1548.5,481.833 1548.5,482.5C 1547.6,483.209 1547.26,484.209 1547.5,485.5C 1544.83,485.833 1544.83,486.167 1547.5,486.5C 1550.26,488.167 1553.43,489.167 1557,489.5C 1560.06,488.549 1563.22,488.216 1566.5,488.5C 1570.29,488.885 1574.29,488.885 1578.5,488.5C 1580.89,489.21 1583.39,489.877 1586,490.5C 1595.55,490.745 1605.05,490.411 1614.5,489.5C 1615.17,489.5 1615.83,489.5 1616.5,489.5C 1616.5,490.167 1616.83,490.5 1617.5,490.5C 1618.17,491.833 1618.83,491.833 1619.5,490.5C 1626.82,491.002 1634.15,490.669 1641.5,489.5C 1644.01,490.497 1646.67,490.497 1649.5,489.5C 1656.03,489.632 1662.7,489.632 1669.5,489.5C 1669.83,490.833 1670.17,490.833 1670.5,489.5C 1676.86,490.022 1683.2,490.022 1689.5,489.5C 1690.62,490.757 1691.29,490.424 1691.5,488.5C 1692.5,488.5 1693.5,488.5 1694.5,488.5C 1695.17,489.833 1695.83,489.833 1696.5,488.5C 1697.83,488.5 1699.17,488.5 1700.5,488.5C 1700.79,489.649 1701.62,490.316 1703,490.5C 1704.53,490.227 1706.03,489.894 1707.5,489.5C 1713.29,489.478 1719.45,489.811 1726,490.5C 1728.61,489.877 1731.11,489.21 1733.5,488.5C 1734.17,488.5 1734.83,488.5 1735.5,488.5C 1736.5,491.167 1737.5,491.167 1738.5,488.5C 1739.17,488.5 1739.83,488.5 1740.5,488.5C 1740.78,489.289 1741.28,489.956 1742,490.5C 1751.37,490.045 1760.87,489.712 1770.5,489.5C 1783.96,490.147 1797.63,490.147 1811.5,489.5C 1813.41,489.784 1815.08,489.451 1816.5,488.5C 1820.43,488.961 1824.43,489.294 1828.5,489.5C 1834.13,488.458 1839.8,487.791 1845.5,487.5C 1847.83,488.833 1850.17,488.833 1852.5,487.5C 1861.59,487.439 1870.59,487.439 1879.5,487.5C 1881.21,487.623 1883.04,487.956 1885,488.5C 1888.15,486.588 1891.32,485.922 1894.5,486.5C 1896.92,486.292 1899.25,486.626 1901.5,487.5C 1909.08,486.1 1916.75,485.267 1924.5,485C 1925.83,484.667 1927.17,484.333 1928.5,484C 1927.32,483.033 1925.99,482.533 1924.5,482.5C 1927.45,481.345 1930.45,481.179 1933.5,482C 1933.04,482.414 1932.71,482.914 1932.5,483.5C 1935.91,484.823 1939.25,484.656 1942.5,483C 1940.03,483.302 1937.69,483.468 1935.5,483.5C 1934.23,482.641 1934.39,481.974 1936,481.5C 1944.43,479.886 1952.93,479.386 1961.5,480C 1962.04,480.717 1962.71,481.217 1963.5,481.5 Z M 1963.5,481.5 C 1964.5,481.414 1965.33,481.748 1966,482.5C 1966,483.833 1966,485.167 1966,486.5C 1966.41,486.043 1966.91,485.709 1967.5,485.5C 1968.26,486.628 1968.93,487.795 1969.5,489C 1968.38,489.249 1967.38,489.749 1966.5,490.5C 1967.9,494.499 1969.24,498.499 1970.5,502.5C 1968.75,507.093 1969.42,511.593 1972.5,516C 1971.35,518.557 1972.35,519.89 1975.5,520C 1974.58,520.278 1973.92,520.778 1973.5,521.5C 1971.38,520.969 1969.88,519.635 1969,517.5C 1967.98,515.731 1967.81,514.064 1968.5,512.5C 1968.1,510.566 1967.1,509.066 1965.5,508C 1966.99,505.978 1966.66,504.312 1964.5,503C 1965.11,501.769 1965.44,500.436 1965.5,499C 1964.58,495.401 1963.58,491.568 1962.5,487.5C 1962.23,485.549 1962.89,484.049 1964.5,483C 1963.94,482.617 1963.61,482.117 1963.5,481.5 Z M 1479.5,483.5 C 1473.71,483.431 1467.87,484.098 1462,485.5C 1457.46,484.733 1452.96,484.4 1448.5,484.5C 1454.63,484.048 1460.96,483.381 1467.5,482.5C 1471.51,482.304 1475.51,482.637 1479.5,483.5 Z M 1400.5,483.5 C 1416.76,484.269 1432.76,484.602 1448.5,484.5C 1439.29,484.591 1429.95,484.924 1420.5,485.5C 1413.6,485.692 1406.93,485.025 1400.5,483.5 Z M 1675.5,483.5 C 1675.3,485.646 1674.3,485.812 1672.5,484C 1673.45,483.517 1674.45,483.351 1675.5,483.5 Z M 1724.5,483.5 C 1726.78,484.546 1729.12,484.546 1731.5,483.5C 1729.72,485.344 1727.39,486.01 1724.5,485.5C 1724.5,484.833 1724.5,484.167 1724.5,483.5 Z M 1369.5,484.5 C 1372.27,484.421 1374.94,484.921 1377.5,486C 1376.17,486.167 1374.83,486.333 1373.5,486.5C 1371.67,486.415 1370.33,485.748 1369.5,484.5 Z M 1521.5,484.5 C 1521.41,485.496 1521.75,486.329 1522.5,487C 1520.7,488.441 1518.7,488.608 1516.5,487.5C 1518.29,486.767 1519.96,485.767 1521.5,484.5 Z M 1528.5,488.5 C 1527.61,489.776 1526.61,489.776 1525.5,488.5C 1524.57,487.232 1524.41,485.899 1525,484.5C 1525.5,486.544 1526.66,487.878 1528.5,488.5 Z M 1540.5,484.5 C 1541.67,486.041 1543,487.375 1544.5,488.5C 1543.79,489.404 1542.79,489.737 1541.5,489.5C 1541.37,487.784 1541.04,486.117 1540.5,484.5 Z M 1572.5,484.5 C 1573.29,484.783 1573.96,485.283 1574.5,486C 1573.18,486.528 1572.52,486.028 1572.5,484.5 Z M 1823.5,484.5 C 1824.17,484.5 1824.83,484.5 1825.5,484.5C 1825.17,485.167 1824.83,485.833 1824.5,486.5C 1823.51,486.672 1822.84,486.338 1822.5,485.5C 1823.17,485.5 1823.5,485.167 1823.5,484.5 Z M 1512.5,486.5 C 1513.57,487.434 1514.9,487.768 1516.5,487.5C 1511.68,488.399 1506.68,489.066 1501.5,489.5C 1499.95,489.489 1498.62,489.156 1497.5,488.5C 1500.17,488.067 1502.83,487.567 1505.5,487C 1504.3,486.346 1504.3,485.846 1505.5,485.5C 1507.53,487.751 1509.86,488.084 1512.5,486.5 Z M 1530.5,486.5 C 1531.08,485.227 1531.74,485.227 1532.5,486.5C 1532.03,487.463 1531.36,487.463 1530.5,486.5 Z M 1566.5,485.5 C 1566.5,486.5 1566.5,487.5 1566.5,488.5C 1563.22,488.216 1560.06,488.549 1557,489.5C 1553.43,489.167 1550.26,488.167 1547.5,486.5C 1551.5,487.833 1555.5,487.833 1559.5,486.5C 1562.01,487.898 1564.34,487.564 1566.5,485.5 Z M 1625.5,485.5 C 1626.29,485.783 1626.96,486.283 1627.5,487C 1626.18,487.528 1625.52,487.028 1625.5,485.5 Z M 1806.5,486.5 C 1805.96,486.56 1805.62,486.893 1805.5,487.5C 1807.5,488.295 1809.5,488.961 1811.5,489.5C 1797.63,490.147 1783.96,490.147 1770.5,489.5C 1770.5,488.833 1770.5,488.167 1770.5,487.5C 1777.92,488.146 1785.26,488.479 1792.5,488.5C 1794.83,488.333 1797.17,488.167 1799.5,488C 1794.46,486.992 1794.79,486.492 1800.5,486.5C 1800.37,487.376 1800.7,488.043 1801.5,488.5C 1802.46,488.03 1802.46,487.363 1801.5,486.5C 1803.4,485.904 1805.06,485.904 1806.5,486.5 Z M 1694.5,488.5 C 1693.5,488.5 1692.5,488.5 1691.5,488.5C 1692.5,485.833 1693.5,485.833 1694.5,488.5 Z M 1756.5,487.5 C 1757.65,488.625 1758.65,488.625 1759.5,487.5C 1762.54,488.734 1765.54,488.734 1768.5,487.5C 1768.83,488.5 1769.5,489.167 1770.5,489.5C 1760.87,489.712 1751.37,490.045 1742,490.5C 1741.28,489.956 1740.78,489.289 1740.5,488.5C 1741.61,488.443 1742.61,488.11 1743.5,487.5C 1743.83,488.833 1744.17,488.833 1744.5,487.5C 1746.79,488.686 1749.13,488.686 1751.5,487.5C 1753.17,486.167 1754.83,486.167 1756.5,487.5 Z M 1491.5,487.5 C 1492.63,488.122 1493.63,488.955 1494.5,490C 1490.45,490.304 1486.45,490.804 1482.5,491.5C 1482.61,490.883 1482.94,490.383 1483.5,490C 1486.04,489.814 1488.37,489.314 1490.5,488.5C 1491.17,488.5 1491.5,488.167 1491.5,487.5 Z M 1578.5,488.5 C 1574.29,488.885 1570.29,488.885 1566.5,488.5C 1570.6,487.209 1574.6,487.209 1578.5,488.5 Z M 1707.5,489.5 C 1706.03,489.894 1704.53,490.227 1703,490.5C 1701.62,490.316 1700.79,489.649 1700.5,488.5C 1701.12,488.611 1701.62,488.944 1702,489.5C 1703.1,487.606 1704.43,486.939 1706,487.5C 1706.72,488.044 1707.22,488.711 1707.5,489.5 Z M 1733.5,488.5 C 1731.11,489.21 1728.61,489.877 1726,490.5C 1719.45,489.811 1713.29,489.478 1707.5,489.5C 1712.14,488.834 1716.8,488.167 1721.5,487.5C 1725.33,488.149 1729.33,488.482 1733.5,488.5 Z M 1481.5,491.5 C 1479.78,491.371 1478.12,491.038 1476.5,490.5C 1476.37,489.624 1476.7,488.957 1477.5,488.5C 1478.9,489.521 1480.23,490.521 1481.5,491.5 Z M 1530.5,488.5 C 1533.08,488.865 1535.41,488.865 1537.5,488.5C 1538.75,489.472 1538.42,490.139 1536.5,490.5C 1534.28,490.122 1532.28,489.455 1530.5,488.5 Z M 1578.5,488.5 C 1590.37,488.486 1602.37,488.819 1614.5,489.5C 1605.05,490.411 1595.55,490.745 1586,490.5C 1583.39,489.877 1580.89,489.21 1578.5,488.5 Z M 1641.5,489.5 C 1634.15,490.669 1626.82,491.002 1619.5,490.5C 1622.23,489.795 1625.06,489.128 1628,488.5C 1632.66,489.364 1637.16,489.697 1641.5,489.5 Z M 1649.5,489.5 C 1646.67,490.497 1644.01,490.497 1641.5,489.5C 1644.35,488.742 1647.02,488.742 1649.5,489.5 Z M 1669.5,489.5 C 1662.7,489.632 1656.03,489.632 1649.5,489.5C 1656.24,488.329 1662.91,488.329 1669.5,489.5 Z M 1670.5,489.5 C 1676.83,488.167 1683.17,488.167 1689.5,489.5C 1683.2,490.022 1676.86,490.022 1670.5,489.5 Z M 1691.5,488.5 C 1691.29,490.424 1690.62,490.757 1689.5,489.5C 1690.17,489.167 1690.83,488.833 1691.5,488.5 Z M 1735.5,488.5 C 1736.5,488.5 1737.5,488.5 1738.5,488.5C 1737.5,491.167 1736.5,491.167 1735.5,488.5 Z M 1464.5,491.5 C 1463.5,491.5 1462.5,491.5 1461.5,491.5C 1462.5,488.833 1463.5,488.833 1464.5,491.5 Z M 1476.5,490.5 C 1473.59,492.018 1470.59,492.352 1467.5,491.5C 1470.44,490.173 1473.44,489.84 1476.5,490.5 Z M 1389.5,491.5 C 1387.72,492.72 1386.05,492.72 1384.5,491.5C 1386.4,490.904 1388.06,490.904 1389.5,491.5 Z M 1467.5,491.5 C 1466.5,492.833 1465.5,492.833 1464.5,491.5C 1465.5,490.167 1466.5,490.167 1467.5,491.5 Z M 1389.5,491.5 C 1395.9,491.33 1401.9,491.664 1407.5,492.5C 1403.21,492.697 1398.88,493.03 1394.5,493.5C 1392.66,492.972 1391,492.306 1389.5,491.5 Z M 1407.5,492.5 C 1408.58,492.461 1409.58,492.127 1410.5,491.5C 1418.22,492.035 1425.89,492.868 1433.5,494C 1424.71,493.916 1416.04,493.416 1407.5,492.5 Z M 1434.5,494.5 C 1442.23,493.633 1450.23,493.466 1458.5,494C 1450.17,495.017 1442.17,495.184 1434.5,494.5 Z M 997.5,498.5 C 998.806,498.879 1000.14,499.212 1001.5,499.5C 1000.83,499.833 1000.17,500.167 999.5,500.5C 998.287,500.253 997.62,499.586 997.5,498.5 Z M 1003.5,499.5 C 1004.08,498.227 1004.74,498.227 1005.5,499.5C 1005.03,500.463 1004.36,500.463 1003.5,499.5 Z M 1014.5,498.5 C 1016.97,498.947 1017.14,499.947 1015,501.5C 1014.52,500.552 1014.35,499.552 1014.5,498.5 Z M 983.5,504.5 C 984.531,503.751 985.698,503.085 987,502.5C 989.407,502.673 991.74,502.673 994,502.5C 994.925,503.047 995.758,503.713 996.5,504.5C 994.378,506.115 992.045,506.615 989.5,506C 990.5,505.667 991.5,505.333 992.5,505C 989.489,505.802 986.489,505.635 983.5,504.5 Z M 1024.5,503.5 C 1025.77,502.913 1026.77,502.913 1027.5,503.5C 1026.39,504.776 1025.39,504.776 1024.5,503.5 Z M 1004.5,503.5 C 1005.77,504.077 1005.77,504.743 1004.5,505.5C 1003.54,505.03 1003.54,504.363 1004.5,503.5 Z M 1983.5,547.5 C 1985.98,548.86 1985.65,549.86 1982.5,550.5C 1982.56,549.391 1982.89,548.391 1983.5,547.5 Z M 1976.5,548.5 C 1978.65,548.696 1978.81,549.696 1977,551.5C 1976.52,550.552 1976.35,549.552 1976.5,548.5 Z M 1980.5,553.5 C 1982.74,555.001 1982.74,556.334 1980.5,557.5C 1980.09,556.443 1980.09,555.109 1980.5,553.5 Z M 1976.5,556.5 C 1975.92,557.773 1975.26,557.773 1974.5,556.5C 1974.97,555.537 1975.64,555.537 1976.5,556.5 Z M 1979.5,562.5 C 1979.59,561.504 1979.25,560.671 1978.5,560C 1979.74,559.544 1980.58,560.044 1981,561.5C 1981.25,560.376 1981.75,559.376 1982.5,558.5C 1982.91,559.557 1982.91,560.891 1982.5,562.5C 1981.5,562.5 1980.5,562.5 1979.5,562.5 Z M 1976.5,565.5 C 1977.83,565.5 1978.5,566.167 1978.5,567.5C 1977.5,567.167 1976.83,566.5 1976.5,565.5 Z M 1980.5,568.5 C 1981.36,567.537 1982.03,567.537 1982.5,568.5C 1981.74,569.773 1981.08,569.773 1980.5,568.5 Z M 1979.5,572.5 C 1979.51,569.999 1980.18,569.832 1981.5,572C 1980.91,572.464 1980.24,572.631 1979.5,572.5 Z M 1981.5,636.5 C 1983.86,637.389 1984.03,638.722 1982,640.5C 1981.51,639.207 1981.34,637.873 1981.5,636.5 Z M 1986.5,640.5 C 1986.5,641.167 1986.5,641.833 1986.5,642.5C 1984.07,641.452 1984.07,640.786 1986.5,640.5 Z M 1982.5,641.5 C 1983.77,642.077 1983.77,642.743 1982.5,643.5C 1981.54,643.03 1981.54,642.363 1982.5,641.5 Z M 1984.5,661.5 C 1983.22,660.292 1983.22,658.958 1984.5,657.5C 1986.79,658.625 1986.79,659.959 1984.5,661.5 Z M 1986.5,670.5 C 1984.35,670.611 1984.02,669.944 1985.5,668.5C 1982.82,665.665 1983.48,664.498 1987.5,665C 1987.44,666.829 1987.1,668.662 1986.5,670.5 Z M 1986.5,670.5 C 1988.7,674.573 1989.36,678.906 1988.5,683.5C 1987.78,683.082 1987.28,682.416 1987,681.5C 1986.67,681.833 1986.33,682.167 1986,682.5C 1985.24,678.413 1985.4,674.413 1986.5,670.5 Z M 1988.5,684.5 C 1989.14,690.234 1988.14,690.567 1985.5,685.5C 1985.74,682.937 1986.24,682.937 1987,685.5C 1987.38,684.944 1987.88,684.611 1988.5,684.5 Z M 1985.5,690.5 C 1987.38,691.659 1987.88,693.326 1987,695.5C 1986.39,693.846 1985.89,692.179 1985.5,690.5 Z M 1988.5,703.5 C 1987.78,701.782 1987.11,699.948 1986.5,698C 1987,697.5 1987.5,697 1988,696.5C 1988.5,698.81 1988.66,701.143 1988.5,703.5 Z M 1962.5,704.5 C 1962.74,703.903 1963.24,703.57 1964,703.5C 1965.5,704 1967,704.5 1968.5,705C 1966.45,705.49 1964.45,705.323 1962.5,704.5 Z M 1978.5,711.5 C 1979.5,710.287 1980.5,710.454 1981.5,712C 1980.42,712.47 1979.42,712.303 1978.5,711.5 Z M 1989.5,712.5 C 1990.77,713.077 1990.77,713.743 1989.5,714.5C 1988.54,714.03 1988.54,713.363 1989.5,712.5 Z M 1992.5,721.5 C 1993.77,722.077 1993.77,722.743 1992.5,723.5C 1991.54,723.03 1991.54,722.363 1992.5,721.5 Z M 1969.5,726.5 C 1968.32,726.281 1967.32,726.614 1966.5,727.5C 1967.73,728.281 1969.06,728.781 1970.5,729C 1966.32,731.12 1966.65,732.453 1971.5,733C 1968.88,733.576 1968.21,734.91 1969.5,737C 1967.83,737.122 1966.16,736.788 1964.5,736C 1966.27,735.465 1966.6,734.631 1965.5,733.5C 1964.14,734.18 1962.81,734.847 1961.5,735.5C 1961.17,734.167 1960.83,734.167 1960.5,735.5C 1958.16,734.033 1958.49,732.699 1961.5,731.5C 1960.97,730.808 1960.31,730.308 1959.5,730C 1961.63,729.457 1963.63,728.624 1965.5,727.5C 1951.01,726.733 1951.01,725.4 1965.5,723.5C 1967.26,724.035 1968.59,725.035 1969.5,726.5 Z M 1994.5,724.5 C 1997,724.511 1997.17,725.178 1995,726.5C 1994.54,725.906 1994.37,725.239 1994.5,724.5 Z M 1990.5,739.5 C 1992.97,739.947 1993.14,740.947 1991,742.5C 1990.52,741.552 1990.35,740.552 1990.5,739.5 Z M 1970.5,741.5 C 1971.29,741.783 1971.96,742.283 1972.5,743C 1971.18,743.528 1970.52,743.028 1970.5,741.5 Z M 1992.5,752.5 C 1993.47,752.987 1994.47,753.487 1995.5,754C 1993.7,755.387 1993.03,756.887 1993.5,758.5C 1992.53,756.604 1992.2,754.604 1992.5,752.5 Z M 1985.5,913.5 C 1986.63,915.966 1986.8,918.633 1986,921.5C 1985.11,922.711 1984.27,922.711 1983.5,921.5C 1984.94,918.746 1985.61,916.079 1985.5,913.5 Z M 1991.5,923.5 C 1993.03,922.075 1992.7,921.409 1990.5,921.5C 1990.82,919.952 1991.82,919.285 1993.5,919.5C 1993.66,922.187 1993.5,924.854 1993,927.5C 1992.79,925.942 1992.29,924.609 1991.5,923.5 Z M 1994.5,928.5 C 1995.21,927.596 1996.21,927.263 1997.5,927.5C 1997.65,928.552 1997.48,929.552 1997,930.5C 1996.58,929.244 1995.75,928.577 1994.5,928.5 Z M 1985.5,928.5 C 1985.41,929.496 1985.75,930.329 1986.5,931C 1983.03,931.309 1982.7,930.476 1985.5,928.5 Z M 1992.5,930.5 C 1991.04,930.433 1989.71,930.766 1988.5,931.5C 1989.1,929.974 1990.27,928.974 1992,928.5C 1992.46,929.094 1992.63,929.761 1992.5,930.5 Z M 1987.5,933.5 C 1986.82,935.414 1986.32,937.414 1986,939.5C 1985.67,938.5 1985.33,937.5 1985,936.5C 1984.33,937.252 1983.5,937.586 1982.5,937.5C 1983.87,935.793 1985.54,934.46 1987.5,933.5 Z M 1391.5,973.5 C 1391.44,974.043 1391.11,974.376 1390.5,974.5C 1389.42,973.635 1389.25,972.635 1390,971.5C 1390.28,972.416 1390.78,973.082 1391.5,973.5 Z M 1423.5,977.5 C 1427.28,977.469 1427.44,978.136 1424,979.5C 1422.32,979.317 1422.15,978.65 1423.5,977.5 Z"/></g>
<g><path style="opacity:0.035" fill="#dd0c16" d="M 1533.5,481.5 C 1533.9,480.475 1534.56,480.308 1535.5,481C 1534.91,481.464 1534.24,481.631 1533.5,481.5 Z"/></g>
<g><path style="opacity:0.015" fill="#dd0c16" d="M 1563.5,481.5 C 1564.76,481.907 1566.1,482.24 1567.5,482.5C 1568.7,482.154 1568.7,481.654 1567.5,481C 1568.5,480.833 1569.5,480.667 1570.5,480.5C 1592.96,480.505 1615.46,480.505 1638,480.5C 1638.67,481.167 1639.33,481.833 1640,482.5C 1640.39,481.572 1641.05,480.905 1642,480.5C 1643.42,481.573 1644.75,481.573 1646,480.5C 1656.26,481.456 1666.43,481.956 1676.5,482C 1675.94,482.383 1675.61,482.883 1675.5,483.5C 1678.85,480.946 1682.02,481.28 1685,484.5C 1685.38,483.944 1685.88,483.611 1686.5,483.5C 1688.17,484.833 1689.83,484.833 1691.5,483.5C 1692.17,483.5 1692.83,483.5 1693.5,483.5C 1693.74,484.097 1694.24,484.43 1695,484.5C 1696.09,483.704 1697.26,483.037 1698.5,482.5C 1700.58,483.959 1702.75,485.292 1705,486.5C 1705.67,485.833 1706.33,485.167 1707,484.5C 1708.29,485.791 1709.46,485.791 1710.5,484.5C 1715.28,485.933 1719.94,485.599 1724.5,483.5C 1724.5,484.167 1724.5,484.833 1724.5,485.5C 1727.39,486.01 1729.72,485.344 1731.5,483.5C 1737.49,482.15 1743.49,482.317 1749.5,484C 1744.64,484.428 1739.97,484.262 1735.5,483.5C 1734.5,484 1733.5,484.5 1732.5,485C 1739.21,486.487 1746.21,486.32 1753.5,484.5C 1754.1,485.139 1754.93,485.472 1756,485.5C 1758.06,484.203 1760.22,483.703 1762.5,484C 1761.5,484.333 1760.5,484.667 1759.5,485C 1761.14,485.242 1762.64,486.075 1764,487.5C 1765.9,486.842 1767.4,485.675 1768.5,484C 1770.5,483.333 1772.5,483.333 1774.5,484C 1772.83,484.333 1771.17,484.667 1769.5,485C 1768.75,485.671 1768.41,486.504 1768.5,487.5C 1765.54,488.734 1762.54,488.734 1759.5,487.5C 1758.65,488.625 1757.65,488.625 1756.5,487.5C 1754.83,486.167 1753.17,486.167 1751.5,487.5C 1749.13,488.686 1746.79,488.686 1744.5,487.5C 1744.17,486.167 1743.83,486.167 1743.5,487.5C 1742.61,488.11 1741.61,488.443 1740.5,488.5C 1739.83,487.167 1739.17,487.167 1738.5,488.5C 1737.5,488.5 1736.5,488.5 1735.5,488.5C 1734.83,487.167 1734.17,487.167 1733.5,488.5C 1729.33,488.482 1725.33,488.149 1721.5,487.5C 1716.8,488.167 1712.14,488.834 1707.5,489.5C 1707.22,488.711 1706.72,488.044 1706,487.5C 1704.43,486.939 1703.1,487.606 1702,489.5C 1701.62,488.944 1701.12,488.611 1700.5,488.5C 1699.17,487.167 1697.83,487.167 1696.5,488.5C 1695.83,488.5 1695.17,488.5 1694.5,488.5C 1693.5,485.833 1692.5,485.833 1691.5,488.5C 1690.83,488.833 1690.17,489.167 1689.5,489.5C 1683.17,488.167 1676.83,488.167 1670.5,489.5C 1670.17,489.5 1669.83,489.5 1669.5,489.5C 1662.91,488.329 1656.24,488.329 1649.5,489.5C 1647.02,488.742 1644.35,488.742 1641.5,489.5C 1637.16,489.697 1632.66,489.364 1628,488.5C 1625.06,489.128 1622.23,489.795 1619.5,490.5C 1618.83,490.5 1618.17,490.5 1617.5,490.5C 1616.83,490.5 1616.5,490.167 1616.5,489.5C 1615.83,488.167 1615.17,488.167 1614.5,489.5C 1602.37,488.819 1590.37,488.486 1578.5,488.5C 1574.6,487.209 1570.6,487.209 1566.5,488.5C 1566.5,487.5 1566.5,486.5 1566.5,485.5C 1564.34,487.564 1562.01,487.898 1559.5,486.5C 1555.5,487.833 1551.5,487.833 1547.5,486.5C 1547.5,486.167 1547.5,485.833 1547.5,485.5C 1548.4,484.791 1548.74,483.791 1548.5,482.5C 1549.17,482.5 1549.5,482.167 1549.5,481.5C 1554.08,480.805 1558.75,480.805 1563.5,481.5 Z M 1675.5,483.5 C 1674.45,483.351 1673.45,483.517 1672.5,484C 1674.3,485.812 1675.3,485.646 1675.5,483.5 Z M 1724.5,483.5 C 1726.78,484.546 1729.12,484.546 1731.5,483.5C 1729.72,485.344 1727.39,486.01 1724.5,485.5C 1724.5,484.833 1724.5,484.167 1724.5,483.5 Z M 1572.5,484.5 C 1572.52,486.028 1573.18,486.528 1574.5,486C 1573.96,485.283 1573.29,484.783 1572.5,484.5 Z M 1625.5,485.5 C 1625.52,487.028 1626.18,487.528 1627.5,487C 1626.96,486.283 1626.29,485.783 1625.5,485.5 Z M 1694.5,488.5 C 1693.5,488.5 1692.5,488.5 1691.5,488.5C 1692.5,485.833 1693.5,485.833 1694.5,488.5 Z"/></g>
<g><path style="opacity:0.004" fill="#dd0c16" d="M 1563.5,480.5 C 1564.83,481.167 1564.83,481.167 1563.5,480.5 Z"/></g>
<g><path style="opacity:0.01" fill="#dd0c16" d="M 743.5,481.5 C 745.337,481.639 745.67,482.306 744.5,483.5C 743.702,483.043 743.369,482.376 743.5,481.5 Z"/></g>
<g><path style="opacity:0.005" fill="#dd0c16" d="M 798.5,481.5 C 799.773,482.077 799.773,482.743 798.5,483.5C 797.537,483.03 797.537,482.363 798.5,481.5 Z"/></g>
<g><path style="opacity:0.004" fill="#dd0c16" d="M 821.5,481.5 C 822.833,482.167 822.833,482.167 821.5,481.5 Z"/></g>
<g><path style="opacity:0.047" fill="#dd0c16" d="M 826.5,482.5 C 825.448,482.649 824.448,482.483 823.5,482C 824.749,481.26 825.749,481.427 826.5,482.5 Z"/></g>
<g><path style="opacity:0.085" fill="#dd0c16" d="M 826.5,482.5 C 835.112,481.806 844.112,481.806 853.5,482.5C 853.719,483.675 853.386,484.675 852.5,485.5C 849.261,484.926 845.927,484.926 842.5,485.5C 840.626,485.61 839.126,484.944 838,483.5C 837.481,484.516 836.647,485.182 835.5,485.5C 832.235,484.943 829.235,483.943 826.5,482.5 Z"/></g>
<g><path style="opacity:0.022" fill="#dd0c16" d="M 867.5,481.5 C 868.675,481.281 869.675,481.614 870.5,482.5C 868.948,483.798 867.948,483.465 867.5,481.5 Z"/></g>
<g><path style="opacity:0.281" fill="#dd0c16" d="M 1691.5,483.5 C 1689.83,483.5 1688.17,483.5 1686.5,483.5C 1686.97,482.307 1687.97,481.64 1689.5,481.5C 1691.98,481.233 1692.64,481.899 1691.5,483.5 Z"/></g>
<g><path style="opacity:0.027" fill="#dd0c16" d="M 1693.5,483.5 C 1693.64,481.663 1694.31,481.33 1695.5,482.5C 1695.04,483.298 1694.38,483.631 1693.5,483.5 Z"/></g>
<g><path style="opacity:0.01" fill="#dd0c16" d="M 854.5,483.5 C 854.897,482.475 855.563,482.308 856.5,483C 855.906,483.464 855.239,483.631 854.5,483.5 Z"/></g>
<g><path style="opacity:0.286" fill="#dd0c16" d="M 1701.5,483.5 C 1702.71,482.218 1704.04,482.218 1705.5,483.5C 1704.3,484.292 1702.97,484.292 1701.5,483.5 Z"/></g>
<g><path style="opacity:0.271" fill="#dd0c16" d="M 1710.5,483.5 C 1713.64,482.359 1716.97,482.192 1720.5,483C 1719.97,483.692 1719.31,484.192 1718.5,484.5C 1715.92,483.607 1713.25,483.274 1710.5,483.5 Z"/></g>
<g><path style="opacity:0.004" fill="#dd0c16" d="M 1721.5,482.5 C 1722.83,483.167 1722.83,483.167 1721.5,482.5 Z"/></g>
<g><path style="opacity:0.165" fill="#dd0c16" d="M 1724.5,483.5 C 1726.83,482.167 1729.17,482.167 1731.5,483.5C 1729.12,484.546 1726.78,484.546 1724.5,483.5 Z"/></g>
<g><path style="opacity:0.046" fill="#dd0c16" d="M 1795.5,483.5 C 1798.64,482.359 1801.97,482.192 1805.5,483C 1802.09,483.972 1798.75,484.138 1795.5,483.5 Z"/></g>
<g><path style="opacity:0.142" fill="#dd0c16" d="M 1825.5,484.5 C 1824.83,484.5 1824.17,484.5 1823.5,484.5C 1818.13,483.968 1812.46,483.468 1806.5,483C 1814.17,482.333 1821.83,482.333 1829.5,483C 1827.94,483.21 1826.61,483.71 1825.5,484.5 Z"/></g>
<g><path style="opacity:0.016" fill="#dd0c16" d="M 1835.5,482.5 C 1836.83,483.167 1836.83,483.167 1835.5,482.5 Z"/></g>
<g><path style="opacity:0.169" fill="#dd0c16" d="M 1858.5,484.5 C 1858.17,483.167 1857.83,483.167 1857.5,484.5C 1852.1,484.233 1846.77,483.733 1841.5,483C 1848.83,482.333 1856.17,482.333 1863.5,483C 1862.1,484.269 1860.43,484.769 1858.5,484.5 Z"/></g>
<g><path style="opacity:0.093" fill="#dd0c16" d="M 1864.5,484.5 C 1867.77,483.178 1871.43,482.511 1875.5,482.5C 1879.17,482.667 1882.83,482.833 1886.5,483C 1879.22,483.792 1871.89,484.292 1864.5,484.5 Z"/></g>
<g><path style="opacity:0.09" fill="#dd0c16" d="M 1887.5,483.5 C 1890.64,482.359 1893.97,482.192 1897.5,483C 1893.96,484.446 1890.62,484.613 1887.5,483.5 Z"/></g>
<g><path style="opacity:0.147" fill="#dd0c16" d="M 1905.5,483.5 C 1904.07,483.421 1902.74,483.754 1901.5,484.5C 1900.69,484.192 1900.03,483.692 1899.5,483C 1901.71,482.211 1903.71,482.378 1905.5,483.5 Z"/></g>
<g><path style="opacity:0.166" fill="#dd0c16" d="M 1907.5,483.5 C 1908.6,482.402 1909.93,482.235 1911.5,483C 1910.44,484.511 1909.1,484.677 1907.5,483.5 Z"/></g>
<g><path style="opacity:0.047" fill="#dd0c16" d="M 1915.5,483.5 C 1915.9,482.475 1916.56,482.308 1917.5,483C 1916.91,483.464 1916.24,483.631 1915.5,483.5 Z"/></g>
<g><path style="opacity:0.07" fill="#dd0c16" d="M 860.5,483.5 C 862.337,483.639 862.67,484.306 861.5,485.5C 860.702,485.043 860.369,484.376 860.5,483.5 Z"/></g>
<g><path style="opacity:0.008" fill="#dd0c16" d="M 1710.5,483.5 C 1710.5,483.833 1710.5,484.167 1710.5,484.5C 1709.83,484.019 1709.83,483.685 1710.5,483.5 Z"/></g>
<g><path style="opacity:0.063" fill="#dd0c16" d="M 1753.5,483.5 C 1754.83,484.167 1754.83,484.167 1753.5,483.5 Z"/></g>
<g><path style="opacity:0.006" fill="#dd0c16" d="M 1763.5,484.5 C 1764.5,483.287 1765.5,483.454 1766.5,485C 1765.42,485.47 1764.42,485.303 1763.5,484.5 Z"/></g>
<g><path style="opacity:0.108" fill="#dd0c16" d="M 1776.5,484.5 C 1777.95,483.387 1779.61,483.22 1781.5,484C 1779.87,484.494 1778.2,484.66 1776.5,484.5 Z"/></g>
<g><path style="opacity:0.057" fill="#dd0c16" d="M 1784.5,484.5 C 1784.9,483.475 1785.56,483.308 1786.5,484C 1785.91,484.464 1785.24,484.631 1784.5,484.5 Z"/></g>
<g><path style="opacity:0.059" fill="#dd0c16" d="M 1789.5,483.5 C 1790.83,484.167 1790.83,484.167 1789.5,483.5 Z"/></g>
<g><path style="opacity:0.075" fill="#dd0c16" d="M 1795.5,483.5 C 1795.5,483.833 1795.5,484.167 1795.5,484.5C 1790.17,484.167 1790.17,483.833 1795.5,483.5 Z"/></g>
<g><path style="opacity:0.005" fill="#dd0c16" d="M 1832.5,485.5 C 1830.97,485.483 1830.47,484.816 1831,483.5C 1831.72,484.044 1832.22,484.711 1832.5,485.5 Z"/></g>
<g><path style="opacity:0.005" fill="#dd0c16" d="M 1905.5,483.5 C 1906.29,483.783 1906.96,484.283 1907.5,485C 1906.18,485.528 1905.52,485.028 1905.5,483.5 Z"/></g>
<g><path style="opacity:0.004" fill="#dd0c16" d="M 1913.5,483.5 C 1914.83,484.167 1914.83,484.167 1913.5,483.5 Z"/></g>
<g><path style="opacity:0.006" fill="#dd0c16" d="M 533.5,485.5 C 533.897,484.475 534.563,484.308 535.5,485C 534.906,485.464 534.239,485.631 533.5,485.5 Z"/></g>
<g><path style="opacity:0.006" fill="#dd0c16" d="M 1776.5,484.5 C 1778.39,486.636 1780.55,486.636 1783,484.5C 1784.4,485.227 1785.9,485.727 1787.5,486C 1787.17,486.333 1786.83,486.667 1786.5,487C 1788.07,487.765 1789.4,487.598 1790.5,486.5C 1792.31,485.976 1793.97,485.309 1795.5,484.5C 1797.31,485.024 1798.97,485.691 1800.5,486.5C 1794.79,486.492 1794.46,486.992 1799.5,488C 1797.17,488.167 1794.83,488.333 1792.5,488.5C 1785.26,488.479 1777.92,488.146 1770.5,487.5C 1770.78,485.242 1771.78,484.908 1773.5,486.5C 1774.52,485.807 1775.52,485.141 1776.5,484.5 Z"/></g>
<g><path style="opacity:0.043" fill="#dd0c16" d="M 1789.5,484.5 C 1789.83,485.167 1790.17,485.833 1790.5,486.5C 1788.58,486.289 1788.24,485.623 1789.5,484.5 Z"/></g>
<g><path style="opacity:0.008" fill="#dd0c16" d="M 1808.5,486.5 C 1807.83,486.5 1807.17,486.5 1806.5,486.5C 1805.06,485.904 1803.4,485.904 1801.5,486.5C 1802.15,485.275 1803.32,484.608 1805,484.5C 1806.68,484.608 1807.85,485.275 1808.5,486.5 Z"/></g>
<g><path style="opacity:0.012" fill="#dd0c16" d="M 1816.5,486.5 C 1815.17,486.833 1815.17,487.167 1816.5,487.5C 1816.5,487.833 1816.5,488.167 1816.5,488.5C 1814.59,488.216 1812.92,488.549 1811.5,489.5C 1809.5,488.961 1807.5,488.295 1805.5,487.5C 1805.62,486.893 1805.96,486.56 1806.5,486.5C 1807.17,487.833 1807.83,487.833 1808.5,486.5C 1809.58,486.461 1810.58,486.127 1811.5,485.5C 1813,487.802 1814.33,487.469 1815.5,484.5C 1816.3,484.957 1816.63,485.624 1816.5,486.5 Z"/></g>
<g><path style="opacity:0.01" fill="#dd0c16" d="M 1825.5,484.5 C 1826.76,485.623 1826.42,486.289 1824.5,486.5C 1824.83,485.833 1825.17,485.167 1825.5,484.5 Z"/></g>
<g><path style="opacity:0.006" fill="#dd0c16" d="M 1829.5,486.5 C 1827.66,486.361 1827.33,485.694 1828.5,484.5C 1829.3,484.957 1829.63,485.624 1829.5,486.5 Z"/></g>
<g><path style="opacity:0.007" fill="#dd0c16" d="M 1836.5,485.5 C 1838.18,484.156 1839.85,484.323 1841.5,486C 1839.8,486.384 1838.14,486.218 1836.5,485.5 Z"/></g>
<g><path style="opacity:0.004" fill="#dd0c16" d="M 1857.5,484.5 C 1857.83,484.5 1858.17,484.5 1858.5,484.5C 1858.17,487.167 1857.83,487.167 1857.5,484.5 Z"/></g>
<g><path style="opacity:0.004" fill="#dd0c16" d="M 1864.5,484.5 C 1863.83,485.167 1863.83,485.167 1864.5,484.5 Z"/></g>
<g><path style="opacity:0.009" fill="#dd0c16" d="M 1879.5,487.5 C 1879.08,486.778 1878.42,486.278 1877.5,486C 1878.77,485.691 1879.93,485.191 1881,484.5C 1881.58,485.998 1881.08,486.998 1879.5,487.5 Z"/></g>
<g><path style="opacity:0.008" fill="#dd0c16" d="M 1884.5,484.5 C 1888.22,484.793 1888.05,485.459 1884,486.5C 1883.5,486.333 1883,486.167 1882.5,486C 1883.42,485.722 1884.08,485.222 1884.5,484.5 Z"/></g>
<g><path style="opacity:0.004" fill="#dd0c16" d="M 1897.5,485.5 C 1897.9,484.475 1898.56,484.308 1899.5,485C 1898.91,485.464 1898.24,485.631 1897.5,485.5 Z"/></g>
<g><path style="opacity:0.004" fill="#dd0c16" d="M 1816.5,487.5 C 1816.5,487.167 1816.5,486.833 1816.5,486.5C 1817.58,485.438 1818.58,485.438 1819.5,486.5C 1818.68,487.386 1817.68,487.719 1816.5,487.5 Z"/></g>
<g><path style="opacity:0.006" fill="#dd0c16" d="M 1822.5,485.5 C 1822.84,486.338 1823.51,486.672 1824.5,486.5C 1823.29,487.782 1821.96,487.782 1820.5,486.5C 1820.96,485.702 1821.62,485.369 1822.5,485.5 Z"/></g>
<g><path style="opacity:0.006" fill="#dd0c16" d="M 1832.5,485.5 C 1835.15,486.294 1834.99,486.96 1832,487.5C 1830.93,487.472 1830.1,487.139 1829.5,486.5C 1830.79,486.737 1831.79,486.404 1832.5,485.5 Z"/></g>
<g><path style="opacity:0.004" fill="#dd0c16" d="M 1842.5,485.5 C 1843.83,486.167 1843.83,486.167 1842.5,485.5 Z"/></g>
<g><path style="opacity:0.005" fill="#dd0c16" d="M 1852.5,487.5 C 1851.32,487.719 1850.32,487.386 1849.5,486.5C 1850.86,485.335 1851.86,485.668 1852.5,487.5 Z"/></g>
<g><path style="opacity:0.004" fill="#dd0c16" d="M 1853.5,486.5 C 1854.39,485.224 1855.39,485.224 1856.5,486.5C 1855.77,487.087 1854.77,487.087 1853.5,486.5 Z"/></g>
<g><path style="opacity:0.004" fill="#dd0c16" d="M 1865.5,485.5 C 1866.83,486.167 1866.83,486.167 1865.5,485.5 Z"/></g>
<g><path style="opacity:0.004" fill="#dd0c16" d="M 1894.5,486.5 C 1893.83,485.167 1893.83,485.167 1894.5,486.5 Z"/></g>
<g><path style="opacity:0.018" fill="#dd0c16" d="M 806.5,492.5 C 805.549,495.045 804.549,495.045 803.5,492.5C 805.441,490.684 806.108,488.684 805.5,486.5C 806.197,488.385 807.197,488.718 808.5,487.5C 811.538,490.412 811.204,491.412 807.5,490.5C 806.702,490.957 806.369,491.624 806.5,492.5 Z"/></g>
<g><path style="opacity:0.043" fill="#dd0c16" d="M 818.5,486.5 C 822.579,487.955 822.412,489.289 818,490.5C 816.07,488.923 816.237,487.59 818.5,486.5 Z"/></g>
<g><path style="opacity:0.007" fill="#dd0c16" d="M 1800.5,486.5 C 1800.83,486.5 1801.17,486.5 1801.5,486.5C 1802.46,487.363 1802.46,488.03 1801.5,488.5C 1800.7,488.043 1800.37,487.376 1800.5,486.5 Z"/></g>
<g><path style="opacity:0.004" fill="#dd0c16" d="M 1835.5,486.5 C 1836.83,487.167 1836.83,487.167 1835.5,486.5 Z"/></g>
<g><path style="opacity:0.006" fill="#dd0c16" d="M 1845.5,487.5 C 1845.9,486.475 1846.56,486.308 1847.5,487C 1846.91,487.464 1846.24,487.631 1845.5,487.5 Z"/></g>
<g><path style="opacity:0.02" fill="#dd0c16" d="M 760.5,487.5 C 762.225,487.843 762.725,488.843 762,490.5C 760.961,489.756 760.461,488.756 760.5,487.5 Z"/></g>
<g><path style="opacity:0.057" fill="#dd0c16" d="M 766.5,487.5 C 768.935,488.13 769.602,489.463 768.5,491.5C 767.295,490.423 766.628,489.09 766.5,487.5 Z"/></g>
<g><path style="opacity:0.016" fill="#dd0c16" d="M 814.5,489.5 C 813.325,489.719 812.325,489.386 811.5,488.5C 812.86,487.335 813.86,487.668 814.5,489.5 Z"/></g>
<g><path style="opacity:0.005" fill="#dd0c16" d="M 822.5,487.5 C 824.337,487.639 824.67,488.306 823.5,489.5C 822.702,489.043 822.369,488.376 822.5,487.5 Z"/></g>
<g><path style="opacity:0.012" fill="#dd0c16" d="M 1768.5,487.5 C 1769.17,487.5 1769.83,487.5 1770.5,487.5C 1770.5,488.167 1770.5,488.833 1770.5,489.5C 1769.5,489.167 1768.83,488.5 1768.5,487.5 Z"/></g>
<g><path style="opacity:0.008" fill="#dd0c16" d="M 1826.5,487.5 C 1827.83,488.167 1827.83,488.167 1826.5,487.5 Z"/></g>
<g><path style="opacity:0.016" fill="#dd0c16" d="M 202.5,488.5 C 203.833,489.167 203.833,489.167 202.5,488.5 Z"/></g>
<g><path style="opacity:0.011" fill="#dd0c16" d="M 757.5,488.5 C 759.337,488.639 759.67,489.306 758.5,490.5C 757.702,490.043 757.369,489.376 757.5,488.5 Z"/></g>
<g><path style="opacity:0.009" fill="#dd0c16" d="M 796.5,488.5 C 798.337,488.639 798.67,489.306 797.5,490.5C 796.702,490.043 796.369,489.376 796.5,488.5 Z"/></g>
<g><path style="opacity:0.014" fill="#dd0c16" d="M 801.5,488.5 C 803.337,488.639 803.67,489.306 802.5,490.5C 801.702,490.043 801.369,489.376 801.5,488.5 Z"/></g>
<g><path style="opacity:0.017" fill="#dd0c16" d="M 829.5,493.5 C 827.65,494.695 826.65,494.029 826.5,491.5C 827.928,487.874 829.595,487.707 831.5,491C 830.944,492.011 830.278,492.844 829.5,493.5 Z"/></g>
<g><path style="opacity:0.006" fill="#dd0c16" d="M 785.5,489.5 C 787.337,489.639 787.67,490.306 786.5,491.5C 785.702,491.043 785.369,490.376 785.5,489.5 Z"/></g>
<g><path style="opacity:0.034" fill="#dd0c16" d="M 814.5,489.5 C 816.93,490.653 816.93,491.653 814.5,492.5C 813.833,492.167 813.167,491.833 812.5,491.5C 813.243,490.818 813.909,490.151 814.5,489.5 Z"/></g>
<g><path style="opacity:0.443" fill="#dd0c16" d="M 202.5,493.5 C 201.438,492.425 201.438,491.425 202.5,490.5C 205.012,491.784 205.012,492.784 202.5,493.5 Z"/></g>
<g><path style="opacity:0.149" fill="#dd0c16" d="M 851.5,490.5 C 853.337,490.639 853.67,491.306 852.5,492.5C 851.702,492.043 851.369,491.376 851.5,490.5 Z"/></g>
<g><path style="opacity:0.019" fill="#dd0c16" d="M 795.5,491.5 C 797.337,491.639 797.67,492.306 796.5,493.5C 795.702,493.043 795.369,492.376 795.5,491.5 Z"/></g>
<g><path style="opacity:0.009" fill="#dd0c16" d="M 823.5,491.5 C 824.773,492.077 824.773,492.743 823.5,493.5C 822.537,493.03 822.537,492.363 823.5,491.5 Z"/></g>
<g><path style="opacity:0.029" fill="#dd0c16" d="M 806.5,492.5 C 808.337,492.639 808.67,493.306 807.5,494.5C 806.702,494.043 806.369,493.376 806.5,492.5 Z"/></g>
<g><path style="opacity:0.064" fill="#dd0c16" d="M 837.5,493.5 C 838.743,492.263 839.743,492.596 840.5,494.5C 839.975,495.192 839.308,495.692 838.5,496C 840.235,496.651 841.902,496.485 843.5,495.5C 844.583,496.365 844.749,497.365 844,498.5C 841.954,498.549 839.787,498.215 837.5,497.5C 836.865,495.792 836.865,494.459 837.5,493.5 Z"/></g>
<g><path style="opacity:0.004" fill="#dd0c16" d="M 844.5,492.5 C 846.337,492.639 846.67,493.306 845.5,494.5C 844.702,494.043 844.369,493.376 844.5,492.5 Z"/></g>
<g><path style="opacity:0.004" fill="#dd0c16" d="M 731.5,493.5 C 733.337,493.639 733.67,494.306 732.5,495.5C 731.702,495.043 731.369,494.376 731.5,493.5 Z"/></g>
<g><path style="opacity:0.111" fill="#dd0c16" d="M 763.5,493.5 C 765.052,495.133 766.719,495.967 768.5,496C 766.699,496.317 766.366,496.984 767.5,498C 765.435,499.543 763.268,499.377 761,497.5C 760.667,498.167 760.333,498.833 760,499.5C 759.1,498.23 757.934,497.23 756.5,496.5C 756.833,495.5 757.5,494.833 758.5,494.5C 759.72,495.711 760.887,495.711 762,494.5C 763.087,496.932 763.587,496.598 763.5,493.5 Z"/></g>
<g><path style="opacity:0.06" fill="#dd0c16" d="M 785.5,493.5 C 787.575,494.62 789.741,495.62 792,496.5C 794.552,493.806 795.719,494.473 795.5,498.5C 791.167,497.167 786.833,497.167 782.5,498.5C 782.5,497.5 782.5,496.5 782.5,495.5C 784.179,495.715 785.179,495.048 785.5,493.5 Z"/></g>
<g><path style="opacity:0.004" fill="#dd0c16" d="M 811.5,493.5 C 812.525,493.897 812.692,494.563 812,495.5C 811.536,494.906 811.369,494.239 811.5,493.5 Z"/></g>
<g><path style="opacity:0.021" fill="#dd0c16" d="M 818.5,495.5 C 817.022,495.762 815.689,495.429 814.5,494.5C 815.167,494.167 815.833,493.833 816.5,493.5C 817.713,493.747 818.38,494.414 818.5,495.5 Z"/></g>
<g><path style="opacity:0.016" fill="#dd0c16" d="M 829.5,493.5 C 831.337,493.639 831.67,494.306 830.5,495.5C 829.702,495.043 829.369,494.376 829.5,493.5 Z"/></g>
<g><path style="opacity:0.041" fill="#dd0c16" d="M 750.5,494.5 C 752.113,494.944 753.28,495.944 754,497.5C 754.333,497.167 754.667,496.833 755,496.5C 755.5,497.5 756,498.5 756.5,499.5C 755.302,499.94 754.135,500.273 753,500.5C 751.956,499.377 751.29,498.044 751,496.5C 749.519,499.064 748.019,499.064 746.5,496.5C 747.949,495.828 749.282,495.161 750.5,494.5 Z"/></g>
<g><path style="opacity:0.018" fill="#dd0c16" d="M 818.5,495.5 C 821.244,494.623 821.911,495.623 820.5,498.5C 819.575,497.643 818.908,496.643 818.5,495.5 Z"/></g>
<g><path style="opacity:0.009" fill="#dd0c16" d="M 702.5,495.5 C 704.337,495.639 704.67,496.306 703.5,497.5C 702.702,497.043 702.369,496.376 702.5,495.5 Z"/></g>
<g><path style="opacity:0.064" fill="#dd0c16" d="M 832.5,495.5 C 834.337,495.639 834.67,496.306 833.5,497.5C 832.702,497.043 832.369,496.376 832.5,495.5 Z"/></g>
<g><path style="opacity:0.101" fill="#dd0c16" d="M 845.5,495.5 C 847.465,495.948 847.798,496.948 846.5,498.5C 845.614,497.675 845.281,496.675 845.5,495.5 Z"/></g>
<g><path style="opacity:0.029" fill="#dd0c16" d="M 733.5,498.5 C 733.639,496.663 734.306,496.33 735.5,497.5C 735.043,498.298 734.376,498.631 733.5,498.5 Z"/></g>
<g><path style="opacity:0.005" fill="#dd0c16" d="M 826.5,496.5 C 828.337,496.639 828.67,497.306 827.5,498.5C 826.702,498.043 826.369,497.376 826.5,496.5 Z"/></g>
<g><path style="opacity:0.01" fill="#dd0c16" d="M 829.5,496.5 C 831.337,496.639 831.67,497.306 830.5,498.5C 829.702,498.043 829.369,497.376 829.5,496.5 Z"/></g>
<g><path style="opacity:0.007" fill="#dd0c16" d="M 849.5,496.5 C 852.001,496.511 852.168,497.178 850,498.5C 849.536,497.906 849.369,497.239 849.5,496.5 Z"/></g>
<g><path style="opacity:0.113" fill="#dd0c16" d="M 733.5,498.5 C 734.376,498.631 735.043,498.298 735.5,497.5C 734.306,496.33 733.639,496.663 733.5,498.5 Z"/></g>
<g><path style="opacity:0.067" fill="#dd0c16" d="M 977.5,500.5 C 976.833,499.167 976.833,499.167 977.5,500.5 Z"/></g>
<g><path style="opacity:0.02" fill="#dd0c16" d="M 901.5,503.5 C 903.337,503.639 903.67,504.306 902.5,505.5C 901.702,505.043 901.369,504.376 901.5,503.5 Z"/></g>
<g><path style="opacity:0.012" fill="#dd0c16" d="M 566.5,505.5 C 566.897,504.475 567.563,504.308 568.5,505C 567.906,505.464 567.239,505.631 566.5,505.5 Z"/></g>
<g><path style="opacity:0.004" fill="#dd0c16" d="M 570.5,505.5 C 570.897,504.475 571.563,504.308 572.5,505C 571.906,505.464 571.239,505.631 570.5,505.5 Z"/></g>
<g><path style="opacity:0.006" fill="#dd0c16" d="M 970.5,505.5 C 970.897,504.475 971.563,504.308 972.5,505C 971.906,505.464 971.239,505.631 970.5,505.5 Z"/></g>
<g><path style="opacity:0.144" fill="#dd0c16" d="M 978.5,506.5 C 977.833,506.5 977.167,506.5 976.5,506.5C 977.167,503.833 977.833,503.833 978.5,506.5 Z"/></g>
<g><path style="opacity:0.083" fill="#dd0c16" d="M 883.5,505.5 C 885.465,505.948 885.798,506.948 884.5,508.5C 883.614,507.675 883.281,506.675 883.5,505.5 Z"/></g>
<g><path style="opacity:0.004" fill="#dd0c16" d="M 566.5,507.5 C 565.833,506.167 565.833,506.167 566.5,507.5 Z"/></g>
<g><path style="opacity:0.005" fill="#dd0c16" d="M 571.5,506.5 C 573.337,506.639 573.67,507.306 572.5,508.5C 571.702,508.043 571.369,507.376 571.5,506.5 Z"/></g>
<g><path style="opacity:0.046" fill="#dd0c16" d="M 830.5,507.5 C 832.337,507.639 832.67,508.306 831.5,509.5C 830.702,509.043 830.369,508.376 830.5,507.5 Z"/></g>
<g><path style="opacity:0.004" fill="#dd0c16" d="M 590.5,508.5 C 591.833,509.167 591.833,509.167 590.5,508.5 Z"/></g>
<g><path style="opacity:0.044" fill="#dd0c16" d="M 890.5,509.5 C 889.054,510.613 887.387,510.78 885.5,510C 886.962,508.372 888.628,508.205 890.5,509.5 Z"/></g>
<g><path style="opacity:0.016" fill="#dd0c16" d="M 890.5,508.5 C 891.833,509.167 891.833,509.167 890.5,508.5 Z"/></g>
<g><path style="opacity:0.004" fill="#dd0c16" d="M 896.5,508.5 C 897.833,509.167 897.833,509.167 896.5,508.5 Z"/></g>
<g><path style="opacity:0.004" fill="#dd0c16" d="M 919.5,508.5 C 920.833,509.167 920.833,509.167 919.5,508.5 Z"/></g>
<g><path style="opacity:0.019" fill="#dd0c16" d="M 618.5,509.5 C 620.337,509.639 620.67,510.306 619.5,511.5C 618.702,511.043 618.369,510.376 618.5,509.5 Z"/></g>
<g><path style="opacity:0.059" fill="#dd0c16" d="M 729.5,509.5 C 732.348,510.772 735.348,511.605 738.5,512C 735.167,512.667 731.833,512.667 728.5,512C 729.252,511.329 729.586,510.496 729.5,509.5 Z"/></g>
<g><path style="opacity:0.043" fill="#dd0c16" d="M 803.5,509.5 C 805.337,509.639 805.67,510.306 804.5,511.5C 803.702,511.043 803.369,510.376 803.5,509.5 Z"/></g>
<g><path style="opacity:0.004" fill="#dd0c16" d="M 628.5,510.5 C 629.833,511.167 629.833,511.167 628.5,510.5 Z"/></g>
<g><path style="opacity:0.016" fill="#dd0c16" d="M 749.5,510.5 C 751.604,510.201 753.604,510.534 755.5,511.5C 754.401,511.352 753.068,511.685 751.5,512.5C 750.287,512.253 749.62,511.586 749.5,510.5 Z"/></g>
<g><path style="opacity:0.088" fill="#dd0c16" d="M 762.5,510.5 C 763.978,510.238 765.311,510.571 766.5,511.5C 765.833,511.833 765.167,512.167 764.5,512.5C 763.287,512.253 762.62,511.586 762.5,510.5 Z"/></g>
<g><path style="opacity:0.012" fill="#dd0c16" d="M 786.5,512.5 C 785.624,512.631 784.957,512.298 784.5,511.5C 786.808,510.127 787.475,510.46 786.5,512.5 Z"/></g>
<g><path style="opacity:0.005" fill="#dd0c16" d="M 794.5,512.5 C 794.167,512.5 793.833,512.5 793.5,512.5C 793.369,511.624 793.702,510.957 794.5,510.5C 795.463,510.97 795.463,511.637 794.5,512.5 Z"/></g>
<g><path style="opacity:0.004" fill="#dd0c16" d="M 796.5,510.5 C 797.833,511.167 797.833,511.167 796.5,510.5 Z"/></g>
<g><path style="opacity:0.082" fill="#dd0c16" d="M 798.5,511.5 C 798.897,510.475 799.563,510.308 800.5,511C 799.906,511.464 799.239,511.631 798.5,511.5 Z"/></g>
<g><path style="opacity:0.004" fill="#dd0c16" d="M 687.5,512.5 C 686.833,511.167 686.833,511.167 687.5,512.5 Z"/></g>
<g><path style="opacity:0.307" fill="#dd0c16" d="M 861.5,511.5 C 863.337,511.639 863.67,512.306 862.5,513.5C 861.702,513.043 861.369,512.376 861.5,511.5 Z"/></g>
<g><path style="opacity:0.027" fill="#dd0c16" d="M 682.5,513.5 C 682.897,512.475 683.563,512.308 684.5,513C 683.906,513.464 683.239,513.631 682.5,513.5 Z"/></g>
<g><path style="opacity:0.024" fill="#dd0c16" d="M 880.5,516.5 C 880.639,514.663 881.306,514.33 882.5,515.5C 882.043,516.298 881.376,516.631 880.5,516.5 Z"/></g>
<g><path style="opacity:0.008" fill="#dd0c16" d="M 880.5,516.5 C 880.103,517.525 879.437,517.692 878.5,517C 879.094,516.536 879.761,516.369 880.5,516.5 Z"/></g>
<g><path style="opacity:0.008" fill="#dd0c16" d="M 884.5,528.5 C 885.833,529.167 885.833,529.167 884.5,528.5 Z"/></g>
<g><path style="opacity:0.008" fill="#dd0c16" d="M 207.5,572.5 C 208.833,573.167 208.833,573.167 207.5,572.5 Z"/></g>
<g><path style="opacity:0.022" fill="#dd0c16" d="M 205.5,583.5 C 207.337,583.639 207.67,584.306 206.5,585.5C 205.702,585.043 205.369,584.376 205.5,583.5 Z"/></g>
<g><path style="opacity:0.004" fill="#dd0c16" d="M 1982.5,584.5 C 1982.83,584.5 1983.17,584.5 1983.5,584.5C 1983.31,585.17 1982.98,585.17 1982.5,584.5 Z"/></g>
<g><path style="opacity:0.048" fill="#dd0c16" d="M 1984.5,586.5 C 1985.39,585.224 1986.39,585.224 1987.5,586.5C 1986.58,587.562 1985.58,587.562 1984.5,586.5 Z"/></g>
<g><path style="opacity:0.005" fill="#dd0c16" d="M 204.5,587.5 C 205.289,587.783 205.956,588.283 206.5,589C 205.184,589.528 204.517,589.028 204.5,587.5 Z"/></g>
<g><path style="opacity:0.017" fill="#dd0c16" d="M 1982.5,589.5 C 1984.34,589.639 1984.67,590.306 1983.5,591.5C 1982.7,591.043 1982.37,590.376 1982.5,589.5 Z"/></g>
<g><path style="opacity:0.984" fill="#dd0c16" d="M 342.5,592.5 C 378.849,592.132 415.182,592.632 451.5,594C 512.744,602.616 539.244,637.783 531,699.5C 529.46,709.787 526.127,719.453 521,728.5C 520.255,729.99 519.088,730.99 517.5,731.5C 516.136,730.957 514.803,730.79 513.5,731C 515.984,733.284 516.151,735.784 514,738.5C 496.487,756.837 474.987,767.004 449.5,769C 435.837,769.5 422.171,769.667 408.5,769.5C 408.826,801.544 408.493,833.544 407.5,865.5C 384.601,866.827 361.768,866.827 339,865.5C 338.333,775.167 338.333,684.833 339,594.5C 340.302,593.915 341.469,593.249 342.5,592.5 Z M 408.5,655.5 C 418.839,655.334 429.172,655.5 439.5,656C 460.25,659.626 467.75,671.793 462,692.5C 456.579,701.805 448.412,706.971 437.5,708C 427.863,709.091 418.196,709.591 408.5,709.5C 408.5,691.5 408.5,673.5 408.5,655.5 Z M 517.5,724.5 C 518.675,724.281 519.675,724.614 520.5,725.5C 518.948,726.798 517.948,726.465 517.5,724.5 Z M 504.5,738.5 C 509.529,740.473 509.529,742.139 504.5,743.5C 499.433,741.947 499.433,740.28 504.5,738.5 Z M 392.5,771.5 C 396.119,772.18 399.786,772.68 403.5,773C 400.231,773.871 396.897,774.371 393.5,774.5C 390.174,773.953 386.84,773.453 383.5,773C 386.695,772.819 389.695,772.319 392.5,771.5 Z"/></g>
<g><path style="opacity:0.985" fill="#dd0c16" d="M 684.5,593.5 C 686.814,595.477 689.147,597.477 691.5,599.5C 692.425,598.359 693.259,598.359 694,599.5C 694.342,597.182 693.842,595.015 692.5,593C 700.833,592.333 709.167,592.333 717.5,593C 718.931,593.465 720.097,594.299 721,595.5C 721.667,615.5 721.667,635.5 721,655.5C 720.692,656.308 720.192,656.975 719.5,657.5C 685.21,658.493 650.877,658.826 616.5,658.5C 616.5,670.833 616.5,683.167 616.5,695.5C 649.168,695.333 681.835,695.5 714.5,696C 715.126,696.75 715.626,697.584 716,698.5C 716.667,717.167 716.667,735.833 716,754.5C 715.626,755.416 715.126,756.25 714.5,757C 681.835,757.5 649.168,757.667 616.5,757.5C 616.5,772.167 616.5,786.833 616.5,801.5C 652.835,801.333 689.168,801.5 725.5,802C 726.701,802.903 727.535,804.069 728,805.5C 728.667,824.5 728.667,843.5 728,862.5C 727.535,863.931 726.701,865.097 725.5,866C 668.891,867.654 612.225,867.988 555.5,867C 553.671,866.727 552.171,865.893 551,864.5C 550.333,774.833 550.333,685.167 551,595.5C 552.171,594.107 553.671,593.273 555.5,593C 598.541,592.178 641.541,592.344 684.5,593.5 Z"/></g>
<g><path style="opacity:0.031" fill="#dd0c16" d="M 684.5,593.5 C 684.897,592.475 685.563,592.308 686.5,593C 685.906,593.464 685.239,593.631 684.5,593.5 Z"/></g>
<g><path style="opacity:0.989" fill="#dd0c16" d="M 750.5,593.5 C 771.836,593.333 793.169,593.5 814.5,594C 844.125,639.415 873.625,684.915 903,730.5C 903.333,685.833 903.667,641.167 904,596.5C 904.833,595.667 905.667,594.833 906.5,594C 927.833,593.333 949.167,593.333 970.5,594C 971.333,594.833 972.167,595.667 973,596.5C 973.667,685.5 973.667,774.5 973,863.5C 972.167,864.333 971.333,865.167 970.5,866C 949.167,866.667 927.833,866.667 906.5,866C 876.627,821.09 847.127,775.923 818,730.5C 817.667,774.833 817.333,819.167 817,863.5C 816.167,864.333 815.333,865.167 814.5,866C 793.167,866.667 771.833,866.667 750.5,866C 749.667,865.167 748.833,864.333 748,863.5C 746.344,775.877 746.01,688.21 747,600.5C 747.133,597.596 748.3,595.262 750.5,593.5 Z"/></g>
<g><path style="opacity:0.975" fill="#dd0c16" d="M 1167.5,622.5 C 1168.79,622.737 1169.79,622.404 1170.5,621.5C 1171.81,620.847 1173.14,620.18 1174.5,619.5C 1175.83,621.818 1175.17,623.485 1172.5,624.5C 1174.62,626.4 1175.95,628.733 1176.5,631.5C 1180.05,629.935 1182.05,627.102 1182.5,623C 1182.43,622.235 1182.1,621.735 1181.5,621.5C 1180.79,620.596 1179.79,620.263 1178.5,620.5C 1179.21,618.97 1180.21,617.637 1181.5,616.5C 1182.34,616.158 1182.67,615.492 1182.5,614.5C 1183.74,613.588 1185.07,613.421 1186.5,614C 1226.48,641.632 1245.15,679.966 1242.5,729C 1244.05,771.215 1229.38,806.548 1198.5,835C 1175.66,852.955 1149.66,863.288 1120.5,866C 1083.17,866.667 1045.83,866.667 1008.5,866C 1007.81,864.933 1007.31,863.766 1007,862.5C 1006.01,773.11 1006.34,683.777 1008,594.5C 1045.1,593.337 1082.26,593.171 1119.5,594C 1136.4,595.48 1152.74,599.313 1168.5,605.5C 1168.83,605.833 1169.17,606.167 1169.5,606.5C 1168.38,607.914 1167.38,609.414 1166.5,611C 1167.06,612.566 1166.39,613.899 1164.5,615C 1167.25,617.19 1166.92,618.857 1163.5,620C 1164.32,621.688 1165.32,621.855 1166.5,620.5C 1167.3,620.957 1167.63,621.624 1167.5,622.5 Z M 1167.5,622.5 C 1167.51,624.308 1167.01,625.975 1166,627.5C 1165.12,625.326 1165.62,623.659 1167.5,622.5 Z M 1176.5,631.5 C 1174.85,634.137 1174.35,633.803 1175,630.5C 1175.38,631.056 1175.88,631.389 1176.5,631.5 Z M 1077.5,657.5 C 1093.65,656.814 1109.65,657.981 1125.5,661C 1151.52,668.022 1166.69,684.855 1171,711.5C 1174.07,729.642 1172.41,747.308 1166,764.5C 1154.07,787.054 1135.24,799.221 1109.5,801C 1098.84,801.5 1088.17,801.667 1077.5,801.5C 1077.5,753.5 1077.5,705.5 1077.5,657.5 Z"/></g>
<g><path style="opacity:0.993" fill="#dd0c16" d="M 1284.5,593.5 C 1307.84,593.333 1331.17,593.5 1354.5,594C 1355,594.5 1355.5,595 1356,595.5C 1356.67,685.167 1356.67,774.833 1356,864.5C 1355.5,865 1355,865.5 1354.5,866C 1330.93,866.827 1307.43,866.66 1284,865.5C 1283.17,774.763 1283.34,684.097 1284.5,593.5 Z"/></g>
<g><path style="opacity:0.986" fill="#dd0c16" d="M 1380.5,593.5 C 1401.84,593.333 1423.17,593.5 1444.5,594C 1474.12,639.415 1503.62,684.915 1533,730.5C 1533.33,685.833 1533.67,641.167 1534,596.5C 1534.83,595.667 1535.67,594.833 1536.5,594C 1557.83,593.333 1579.17,593.333 1600.5,594C 1601.33,594.833 1602.17,595.667 1603,596.5C 1603.67,685.5 1603.67,774.5 1603,863.5C 1602.17,864.333 1601.33,865.167 1600.5,866C 1579.17,866.667 1557.83,866.667 1536.5,866C 1506.63,821.09 1477.13,775.923 1448,730.5C 1447.67,774.833 1447.33,819.167 1447,863.5C 1446.17,864.333 1445.33,865.167 1444.5,866C 1423.17,866.667 1401.83,866.667 1380.5,866C 1379.67,865.167 1378.83,864.333 1378,863.5C 1376.34,775.877 1376.01,688.21 1377,600.5C 1377.13,597.596 1378.3,595.262 1380.5,593.5 Z"/></g>
<g><path style="opacity:0.984" fill="#dd0c16" d="M 1750.5,593.5 C 1787.65,589.703 1821.32,598.536 1851.5,620C 1854.28,622.112 1856.28,624.779 1857.5,628C 1854.38,633.737 1850.88,639.237 1847,644.5C 1838.85,655.975 1830.35,667.141 1821.5,678C 1819.5,678.667 1817.5,678.667 1815.5,678C 1799.79,661.098 1780.46,654.765 1757.5,659C 1735.17,664.325 1720,677.825 1712,699.5C 1703.33,726.177 1705.67,751.843 1719,776.5C 1735.06,797.307 1756.23,805.807 1782.5,802C 1788.67,801.432 1794.67,800.099 1800.5,798C 1801.49,785.914 1801.82,773.747 1801.5,761.5C 1791.49,761.666 1781.49,761.5 1771.5,761C 1771,760.5 1770.5,760 1770,759.5C 1769.33,741.167 1769.33,722.833 1770,704.5C 1770.5,704 1771,703.5 1771.5,703C 1800.5,702.333 1829.5,702.333 1858.5,703C 1859,703.5 1859.5,704 1860,704.5C 1860.67,751.167 1860.67,797.833 1860,844.5C 1838.74,856.476 1815.9,863.643 1791.5,866C 1750.06,871.62 1713.06,861.62 1680.5,836C 1655.8,812.093 1641.63,782.926 1638,748.5C 1632.13,700.428 1645.97,659.261 1679.5,625C 1700.05,607.429 1723.72,596.929 1750.5,593.5 Z"/></g>
<g><path style="opacity:0.004" fill="#dd0c16" d="M 206.5,597.5 C 207.833,598.167 207.833,598.167 206.5,597.5 Z"/></g>
<g><path style="opacity:0.046" fill="#dd0c16" d="M 205.5,606.5 C 207.465,606.948 207.798,607.948 206.5,609.5C 205.614,608.675 205.281,607.675 205.5,606.5 Z"/></g>
<g><path style="opacity:0.006" fill="#dd0c16" d="M 1985.5,607.5 C 1986.53,607.897 1986.69,608.563 1986,609.5C 1985.54,608.906 1985.37,608.239 1985.5,607.5 Z"/></g>
<g><path style="opacity:0.004" fill="#dd0c16" d="M 214.5,610.5 C 215.525,610.897 215.692,611.563 215,612.5C 214.536,611.906 214.369,611.239 214.5,610.5 Z"/></g>
<g><path style="opacity:0.008" fill="#dd0c16" d="M 1172.5,610.5 C 1174.08,611.002 1174.58,612.002 1174,613.5C 1172.96,612.756 1172.46,611.756 1172.5,610.5 Z"/></g>
<g><path style="opacity:0.004" fill="#dd0c16" d="M 1178.5,610.5 C 1179.83,611.167 1179.83,611.167 1178.5,610.5 Z"/></g>
<g><path style="opacity:0.004" fill="#dd0c16" d="M 1175.5,611.5 C 1176.83,612.167 1176.83,612.167 1175.5,611.5 Z"/></g>
<g><path style="opacity:0.005" fill="#dd0c16" d="M 1182.5,614.5 C 1181.66,614.842 1181.33,615.508 1181.5,616.5C 1180.62,616.631 1179.96,616.298 1179.5,615.5C 1180.71,612.741 1181.71,612.408 1182.5,614.5 Z"/></g>
<g><path style="opacity:0.009" fill="#dd0c16" d="M 1176.5,613.5 C 1177.57,614.251 1177.74,615.251 1177,616.5C 1176.52,615.552 1176.35,614.552 1176.5,613.5 Z"/></g>
<g><path style="opacity:0.004" fill="#dd0c16" d="M 1983.5,613.5 C 1984.83,614.167 1984.83,614.167 1983.5,613.5 Z"/></g>
<g><path style="opacity:0.01" fill="#dd0c16" d="M 1994.5,613.5 C 1996.34,613.639 1996.67,614.306 1995.5,615.5C 1994.7,615.043 1994.37,614.376 1994.5,613.5 Z"/></g>
<g><path style="opacity:0.012" fill="#dd0c16" d="M 1172.5,614.5 C 1175.08,614.722 1175.91,616.055 1175,618.5C 1173.92,617.264 1173.08,615.931 1172.5,614.5 Z"/></g>
<g><path style="opacity:0.009" fill="#dd0c16" d="M 1982.5,615.5 C 1984.34,615.639 1984.67,616.306 1983.5,617.5C 1982.7,617.043 1982.37,616.376 1982.5,615.5 Z"/></g>
<g><path style="opacity:0.02" fill="#dd0c16" d="M 1987.5,617.5 C 1985.66,617.361 1985.33,616.694 1986.5,615.5C 1987.3,615.957 1987.63,616.624 1987.5,617.5 Z"/></g>
<g><path style="opacity:0.004" fill="#dd0c16" d="M 1987.5,617.5 C 1988.83,618.167 1988.83,618.167 1987.5,617.5 Z"/></g>
<g><path style="opacity:0.008" fill="#dd0c16" d="M 1994.5,617.5 C 1996.34,617.639 1996.67,618.306 1995.5,619.5C 1994.7,619.043 1994.37,618.376 1994.5,617.5 Z"/></g>
<g><path style="opacity:0.004" fill="#dd0c16" d="M 1176.5,618.5 C 1177.83,619.167 1177.83,619.167 1176.5,618.5 Z"/></g>
<g><path style="opacity:0.01" fill="#dd0c16" d="M 1983.5,618.5 C 1986,618.511 1986.17,619.178 1984,620.5C 1983.54,619.906 1983.37,619.239 1983.5,618.5 Z"/></g>
<g><path style="opacity:0.004" fill="#dd0c16" d="M 1170.5,621.5 C 1169.83,620.167 1169.83,620.167 1170.5,621.5 Z"/></g>
<g><path style="opacity:0.142" fill="#dd0c16" d="M 1178.5,620.5 C 1178.36,622.337 1177.69,622.67 1176.5,621.5C 1176.96,620.702 1177.62,620.369 1178.5,620.5 Z"/></g>
<g><path style="opacity:0.004" fill="#dd0c16" d="M 1987.5,621.5 C 1987.9,620.475 1988.56,620.308 1989.5,621C 1988.91,621.464 1988.24,621.631 1987.5,621.5 Z"/></g>
<g><path style="opacity:0.004" fill="#dd0c16" d="M 1181.5,621.5 C 1181.63,622.239 1181.46,622.906 1181,623.5C 1180.31,622.563 1180.47,621.897 1181.5,621.5 Z"/></g>
<g><path style="opacity:0.004" fill="#dd0c16" d="M 215.5,623.5 C 215.897,622.475 216.563,622.308 217.5,623C 216.906,623.464 216.239,623.631 215.5,623.5 Z"/></g>
<g><path style="opacity:0.028" fill="#dd0c16" d="M 1986.5,622.5 C 1987.68,622.281 1988.68,622.614 1989.5,623.5C 1987.95,624.798 1986.95,624.465 1986.5,622.5 Z"/></g>
<g><path style="opacity:0.007" fill="#dd0c16" d="M 1176.5,624.5 C 1177.77,625.077 1177.77,625.743 1176.5,626.5C 1175.54,626.03 1175.54,625.363 1176.5,624.5 Z"/></g>
<g><path style="opacity:0.004" fill="#dd0c16" d="M 1179.5,624.5 C 1180.83,625.167 1180.83,625.167 1179.5,624.5 Z"/></g>
<g><path style="opacity:0.004" fill="#dd0c16" d="M 1178.5,626.5 C 1179.53,626.897 1179.69,627.563 1179,628.5C 1178.54,627.906 1178.37,627.239 1178.5,626.5 Z"/></g>
<g><path style="opacity:0.009" fill="#dd0c16" d="M 218.5,627.5 C 219.167,627.5 219.5,627.833 219.5,628.5C 219.44,629.043 219.107,629.376 218.5,629.5C 217.227,628.743 217.227,628.077 218.5,627.5 Z"/></g>
<g><path style="opacity:0.004" fill="#dd0c16" d="M 1990.5,627.5 C 1992.34,627.639 1992.67,628.306 1991.5,629.5C 1990.7,629.043 1990.37,628.376 1990.5,627.5 Z"/></g>
<g><path style="opacity:0.084" fill="#dd0c16" d="M 209.5,630.5 C 211.337,630.639 211.67,631.306 210.5,632.5C 209.702,632.043 209.369,631.376 209.5,630.5 Z"/></g>
<g><path style="opacity:0.014" fill="#dd0c16" d="M 209.5,634.5 C 209.897,633.475 210.563,633.308 211.5,634C 210.906,634.464 210.239,634.631 209.5,634.5 Z"/></g>
<g><path style="opacity:0.006" fill="#dd0c16" d="M 1990.5,640.5 C 1990.37,639.761 1990.54,639.094 1991,638.5C 1991.69,639.437 1991.53,640.103 1990.5,640.5 Z"/></g>
<g><path style="opacity:0.072" fill="#dd0c16" d="M 1992.5,638.5 C 1995.43,639.637 1995.76,640.97 1993.5,642.5C 1992.57,641.311 1992.24,639.978 1992.5,638.5 Z"/></g>
<g><path style="opacity:0.052" fill="#dd0c16" d="M 207.5,647.5 C 209.465,647.948 209.798,648.948 208.5,650.5C 207.614,649.675 207.281,648.675 207.5,647.5 Z"/></g>
<g><path style="opacity:0.495" fill="#dd0c16" d="M 222.5,647.5 C 222.361,649.337 221.694,649.67 220.5,648.5C 220.957,647.702 221.624,647.369 222.5,647.5 Z"/></g>
<g><path style="opacity:0.008" fill="#dd0c16" d="M 215.5,649.5 C 217.337,649.639 217.67,650.306 216.5,651.5C 215.702,651.043 215.369,650.376 215.5,649.5 Z"/></g>
<g><path style="opacity:0.144" fill="#dd0c16" d="M 224.5,649.5 C 224.218,650.778 223.551,651.778 222.5,652.5C 221.624,652.631 220.957,652.298 220.5,651.5C 221.766,650.638 223.099,649.971 224.5,649.5 Z"/></g>
<g><path style="opacity:0.259" fill="#dd0c16" d="M 214.5,661.5 C 216.337,661.639 216.67,662.306 215.5,663.5C 214.702,663.043 214.369,662.376 214.5,661.5 Z"/></g>
<g><path style="opacity:0.004" fill="#dd0c16" d="M 1992.5,661.5 C 1993.83,662.167 1993.83,662.167 1992.5,661.5 Z"/></g>
<g><path style="opacity:0.456" fill="#dd0c16" d="M 212.5,664.5 C 217.168,666.68 217.502,669.68 213.5,673.5C 215.94,675.806 215.274,677.14 211.5,677.5C 210.833,677.167 210.167,676.833 209.5,676.5C 210.591,672.824 211.591,668.824 212.5,664.5 Z"/></g>
<g><path style="opacity:0.004" fill="#dd0c16" d="M 1992.5,664.5 C 1993.83,665.167 1993.83,665.167 1992.5,664.5 Z"/></g>
<g><path style="opacity:0.006" fill="#dd0c16" d="M 204.5,666.5 C 206.337,666.639 206.67,667.306 205.5,668.5C 204.702,668.043 204.369,667.376 204.5,666.5 Z"/></g>
<g><path style="opacity:0.004" fill="#dd0c16" d="M 1993.5,670.5 C 1994.83,671.167 1994.83,671.167 1993.5,670.5 Z"/></g>
<g><path style="opacity:0.004" fill="#dd0c16" d="M 203.5,680.5 C 205.337,680.639 205.67,681.306 204.5,682.5C 203.702,682.043 203.369,681.376 203.5,680.5 Z"/></g>
<g><path style="opacity:0.004" fill="#dd0c16" d="M 1997.5,680.5 C 1998.83,681.167 1998.83,681.167 1997.5,680.5 Z"/></g>
<g><path style="opacity:0.004" fill="#dd0c16" d="M 1996.5,692.5 C 1997.83,693.167 1997.83,693.167 1996.5,692.5 Z"/></g>
<g><path style="opacity:0.277" fill="#dd0c16" d="M 1950.5,711.5 C 1953.17,711.933 1955.83,712.433 1958.5,713C 1959.91,713.368 1960.91,714.201 1961.5,715.5C 1957.84,715.625 1954.17,715.958 1950.5,716.5C 1950.5,714.833 1950.5,713.167 1950.5,711.5 Z"/></g>
<g><path style="opacity:0.013" fill="#dd0c16" d="M 210.5,714.5 C 209.525,712.46 210.192,712.127 212.5,713.5C 212.043,714.298 211.376,714.631 210.5,714.5 Z"/></g>
<g><path style="opacity:0.412" fill="#dd0c16" d="M 210.5,714.5 C 212.51,719.954 213.01,725.62 212,731.5C 211.667,731.167 211.333,730.833 211,730.5C 210.5,731.5 210,732.5 209.5,733.5C 211.391,734.311 212.724,735.644 213.5,737.5C 213.399,741.519 212.399,745.519 210.5,749.5C 209.833,749.5 209.5,749.833 209.5,750.5C 208.778,749.449 207.778,748.782 206.5,748.5C 205.602,747.842 204.602,747.176 203.5,746.5C 204.651,745.269 205.817,745.269 207,746.5C 210.21,744.329 210.543,742.329 208,740.5C 207.833,739 207.667,737.5 207.5,736C 208.858,730.437 209.858,724.77 210.5,719C 209.833,718.667 209.167,718.333 208.5,718C 209.641,717.259 209.641,716.425 208.5,715.5C 208.957,714.702 209.624,714.369 210.5,714.5 Z"/></g>
<g><path style="opacity:0.129" fill="#dd0c16" d="M 1962.5,716.5 C 1963.39,715.224 1964.39,715.224 1965.5,716.5C 1964.58,717.562 1963.58,717.562 1962.5,716.5 Z"/></g>
<g><path style="opacity:0.004" fill="#dd0c16" d="M 1970.5,715.5 C 1971.83,716.167 1971.83,716.167 1970.5,715.5 Z"/></g>
<g><path style="opacity:0.283" fill="#dd0c16" d="M 202.5,727.5 C 204.337,727.639 204.67,728.306 203.5,729.5C 202.702,729.043 202.369,728.376 202.5,727.5 Z"/></g>
<g><path style="opacity:0.2" fill="#dd0c16" d="M 204.5,734.5 C 204.5,733.833 204.167,733.5 203.5,733.5C 202.438,732.425 202.438,731.425 203.5,730.5C 204.5,731.5 205.5,732.5 206.5,733.5C 206.043,734.298 205.376,734.631 204.5,734.5 Z"/></g>
<g><path style="opacity:0.199" fill="#dd0c16" d="M 203.5,733.5 C 204.167,733.5 204.5,733.833 204.5,734.5C 205.413,736.086 205.413,737.586 204.5,739C 207.113,740.071 207.113,740.905 204.5,741.5C 202.396,738.997 202.063,736.33 203.5,733.5 Z"/></g>
<g><path style="opacity:0.061" fill="#dd0c16" d="M 204.5,741.5 C 205.658,742.95 205.158,743.95 203,744.5C 202.415,743.002 202.915,742.002 204.5,741.5 Z"/></g>
<g><path style="opacity:0.32" fill="#dd0c16" d="M 206.5,748.5 C 206.5,749.5 206.5,750.5 206.5,751.5C 203.833,750.5 203.833,749.5 206.5,748.5 Z"/></g>
<g><path style="opacity:0.038" fill="#dd0c16" d="M 207.5,756.5 C 208.573,757.251 208.74,758.251 208,759.5C 207.517,758.552 207.351,757.552 207.5,756.5 Z"/></g>
<g><path style="opacity:0.006" fill="#dd0c16" d="M 202.5,760.5 C 204.337,760.639 204.67,761.306 203.5,762.5C 202.702,762.043 202.369,761.376 202.5,760.5 Z"/></g>
<g><path style="opacity:0.006" fill="#dd0c16" d="M 207.5,774.5 C 207.56,773.957 207.893,773.624 208.5,773.5C 209.583,774.365 209.749,775.365 209,776.5C 208.722,775.584 208.222,774.918 207.5,774.5 Z"/></g>
<g><path style="opacity:0.004" fill="#dd0c16" d="M 202.5,796.5 C 203.833,797.167 203.833,797.167 202.5,796.5 Z"/></g>
<g><path style="opacity:0.009" fill="#dd0c16" d="M 202.5,798.5 C 203.598,799.601 203.765,800.934 203,802.5C 202.51,801.207 202.343,799.873 202.5,798.5 Z"/></g>
<g><path style="opacity:0.139" fill="#dd0c16" d="M 202.5,804.5 C 204.379,804.393 204.712,804.893 203.5,806C 206.051,807.516 205.718,808.349 202.5,808.5C 202.5,807.167 202.5,805.833 202.5,804.5 Z"/></g>
<g><path style="opacity:0.269" fill="#dd0c16" d="M 203.5,809.5 C 204.675,809.281 205.675,809.614 206.5,810.5C 206.092,814.554 206.092,818.554 206.5,822.5C 204.118,818.499 203.118,814.165 203.5,809.5 Z"/></g>
<g><path style="opacity:0.004" fill="#dd0c16" d="M 215.5,824.5 C 218.001,824.511 218.168,825.178 216,826.5C 215.536,825.906 215.369,825.239 215.5,824.5 Z"/></g>
<g><path style="opacity:0.018" fill="#dd0c16" d="M 211.5,830.5 C 212.376,830.369 213.043,830.702 213.5,831.5C 211.192,832.873 210.525,832.54 211.5,830.5 Z"/></g>
<g><path style="opacity:0.004" fill="#dd0c16" d="M 218.5,843.5 C 219.525,843.897 219.692,844.563 219,845.5C 218.536,844.906 218.369,844.239 218.5,843.5 Z"/></g>
<g><path style="opacity:0.004" fill="#dd0c16" d="M 216.5,849.5 C 215.833,848.167 215.833,848.167 216.5,849.5 Z"/></g>
<g><path style="opacity:0.004" fill="#dd0c16" d="M 216.5,849.5 C 217.833,850.167 217.833,850.167 216.5,849.5 Z"/></g>
<g><path style="opacity:0.056" fill="#dd0c16" d="M 216.5,850.5 C 216.719,851.675 216.386,852.675 215.5,853.5C 214.202,851.948 214.535,850.948 216.5,850.5 Z"/></g>
<g><path style="opacity:0.048" fill="#dd0c16" d="M 222.5,875.5 C 224.213,876.305 225.879,877.305 227.5,878.5C 224.206,881.013 222.54,880.013 222.5,875.5 Z"/></g>
<g><path style="opacity:0.02" fill="#dd0c16" d="M 223.5,881.5 C 225.337,881.639 225.67,882.306 224.5,883.5C 223.702,883.043 223.369,882.376 223.5,881.5 Z"/></g>
<g><path style="opacity:0.004" fill="#dd0c16" d="M 220.5,887.5 C 221.833,888.167 221.833,888.167 220.5,887.5 Z"/></g>
<g><path style="opacity:0.071" fill="#dd0c16" d="M 1338.5,971.5 C 1339.68,971.281 1340.68,971.614 1341.5,972.5C 1339.95,973.798 1338.95,973.465 1338.5,971.5 Z"/></g>
<g><path style="opacity:0.014" fill="#dd0c16" d="M 1163.5,974.5 C 1165.34,974.639 1165.67,975.306 1164.5,976.5C 1163.7,976.043 1163.37,975.376 1163.5,974.5 Z"/></g>
<g><path style="opacity:0.026" fill="#dd0c16" d="M 844.5,976.5 C 845.538,978.108 844.871,979.108 842.5,979.5C 841.688,977.917 842.355,976.917 844.5,976.5 Z"/></g>
<g><path style="opacity:0.008" fill="#dd0c16" d="M 1450.5,977.5 C 1451.83,978.167 1451.83,978.167 1450.5,977.5 Z"/></g>
<g><path style="opacity:0.212" fill="#dd0c16" d="M 880.5,983.5 C 880.897,982.475 881.563,982.308 882.5,983C 881.906,983.464 881.239,983.631 880.5,983.5 Z"/></g>
</svg>
